<svg width="204" height="91" viewBox="0 0 204 91" fill="none" xmlns="http://www.w3.org/2000/svg">
<path fill-rule="evenodd" clip-rule="evenodd" d="M100.552 0.457608C97.434 1.08933 98.0328 0.642912 94.481 1.91655C73.0614 9.59741 67.9326 39.9061 85.77 54.5025C92.2234 59.7833 99.0077 61.7397 109.333 60.7209C116.408 60.0228 124.117 55.1336 128.258 49.6329C141.223 32.4124 133.743 7.7962 114.382 1.50054C110.739 0.316126 104.694 -0.381571 100.552 0.457608ZM102.416 5.76891C88.2222 7.60671 80.1594 18.441 80.8881 33.0848C81.0215 35.7674 82.2806 40.2868 83.5293 42.608C86.4332 48.006 90.5444 52.072 96.4319 54.1315C112.989 59.9232 130.047 47.4573 128.668 28.1415C127.69 14.4309 115.706 4.04812 102.416 5.76891Z" fill="#FC5963"/>
<path fill-rule="evenodd" clip-rule="evenodd" d="M1.33789 3.74206L1.33868 57.0581C1.34517 60.3764 1.18998 60.15 4.62705 60.1566C7.07309 60.1609 6.84542 59.8208 6.84542 57.4863C6.84517 43.0747 6.61908 27.5147 6.86308 13.0164C7.55756 13.3235 22.5819 31.9949 25.5028 35.5441C28.7291 39.4644 28.7339 40.1499 34.5125 32.5469C36.0534 30.5194 38.0755 28.1788 39.8103 26.0681C40.682 25.0076 49.6669 13.5452 50.6275 13.15C50.9294 17.1703 50.6738 32.9413 50.6738 38.2155L50.6722 57.0593C50.6544 60.3957 50.6677 60.2401 54.3031 60.2402C56.5373 60.2402 56.2617 59.3079 56.2617 57.2722L56.2618 3.74206C56.2626 2.37016 56.3216 1.24972 55.5878 0.334063C53.9486 -0.700556 52.0562 1.98893 51.2354 3.02925C50.2386 4.29257 49.2319 5.50096 48.1033 6.9749L29.0368 30.718C28.2176 30.4183 22.8659 23.4776 21.9858 22.3467C19.7352 19.4554 17.4748 16.7904 15.0915 13.8422C12.9032 11.1352 10.6204 8.21382 8.19444 5.31906C6.20332 2.94325 1.34008 -4.40797 1.33789 3.74206Z" fill="#FC5963"/>
<path fill-rule="evenodd" clip-rule="evenodd" d="M148.114 1.39855C148.072 2.91266 149.671 4.20645 150.572 5.33533C151.579 6.5978 152.592 7.777 153.574 8.96536L171.277 30.5078C171.342 31.1862 152.708 53.1917 150.454 55.9908C149.718 56.9057 147.77 58.5477 148.213 60.1483L152.157 60.2382C154.848 60.2374 156.303 57.6939 158.65 54.7725C159.867 53.2568 174.124 35.699 175.068 35.182C175.851 35.5877 179.762 40.6292 180.524 41.5534L194 57.8288C196.216 60.4772 195.992 60.2388 199.692 60.2391C200.812 60.2393 202.196 60.5937 202.016 59.2699C201.874 58.2269 192.071 46.8206 191.33 45.9441C189.333 43.5845 187.127 40.8863 185.124 38.4198C184.428 37.5625 178.887 31.1244 178.835 30.7219C178.755 30.1062 184.143 23.9307 184.616 23.3596L199.449 5.43875C200.212 4.50119 202.085 2.87151 201.982 1.43557C200.878 0.746796 197.686 0.606771 196.283 1.20432C194.858 1.8114 188.431 10.0797 187.095 11.7018C186.072 12.9429 176.059 25.3099 175.068 26.0358C173.358 24.9624 155.749 2.1085 154.025 1.25919C152.592 0.55348 149.284 0.765611 148.114 1.39855Z" fill="#FC5963"/>
<path d="M2.69282 83.4561C2.57975 83.4561 2.51808 83.5486 2.32282 83.9186L0.0411518 88.3586C0.0103184 88.41 0 88.4613 0 88.5128C0 88.595 0.0616669 88.6361 0.195319 88.6361H0.791411C0.986669 88.6361 1.02782 88.595 1.15115 88.3586L2.68251 85.265L4.21392 88.3586C4.33725 88.595 4.37834 88.6361 4.57366 88.6361H5.19027C5.3136 88.6361 5.37527 88.595 5.37527 88.5128C5.37527 88.4613 5.36501 88.41 5.33418 88.3586L3.06283 83.9186C2.86751 83.5486 2.80584 83.4561 2.69282 83.4561ZM10.9724 88.7286C11.5068 88.7286 11.9899 88.5847 12.2879 88.2867V88.4511C12.2879 88.5847 12.3496 88.6361 12.4729 88.6361H13.1101C13.2335 88.6361 13.2849 88.5847 13.2849 88.4511V85.9536C13.2849 84.3605 12.5449 83.4767 11.0237 83.4767C10.7668 83.4767 10.4379 83.5075 10.2221 83.5486C10.0885 83.5794 10.0268 83.6308 10.0268 83.7438V83.7952L10.0885 84.2475C10.0987 84.3811 10.1604 84.4325 10.2735 84.4325C10.366 84.4325 10.7154 84.3913 10.921 84.3913C11.7843 84.3913 12.2571 84.895 12.2879 85.8405C11.9899 85.5527 11.4966 85.3986 10.9724 85.3986C9.87264 85.3986 9.05039 86.005 9.05039 87.0636C9.05039 88.1222 9.86238 88.7286 10.9724 88.7286ZM11.1882 88.0092C10.5716 88.0092 10.0782 87.6494 10.0782 87.0636C10.0782 86.4777 10.5716 86.118 11.1882 86.118C11.8049 86.118 12.2982 86.4983 12.2982 87.0738C12.2982 87.6392 11.8049 88.0092 11.1882 88.0092ZM18.2447 83.6C18.0905 83.6 18.0391 83.6617 18.0391 83.8158V88.4203C18.0391 88.5744 18.0905 88.6361 18.2447 88.6361H18.8305C18.9847 88.6361 19.0361 88.5744 19.0361 88.4203V86.5702C19.0361 86.488 19.0566 86.4675 19.1389 86.4675H21.2766C21.3589 86.4675 21.3794 86.488 21.3794 86.5702V88.4203C21.3794 88.5744 21.4308 88.6361 21.585 88.6361H22.1708C22.325 88.6361 22.3866 88.5744 22.3866 88.4203V83.8158C22.3866 83.6617 22.325 83.6 22.1708 83.6H21.585C21.4308 83.6 21.3794 83.6617 21.3794 83.8158V85.45C21.3794 85.5322 21.3589 85.5527 21.2766 85.5527H19.1389C19.0566 85.5527 19.0361 85.5322 19.0361 85.45V83.8158C19.0361 83.6617 18.9847 83.6 18.8305 83.6H18.2447ZM26.7812 87.7213C26.6168 87.7213 26.5551 87.783 26.5551 87.9475V90.0544C26.5551 90.2292 26.6168 90.2805 26.7812 90.2805H27.2951C27.4595 90.2805 27.5109 90.2292 27.5109 90.0544V88.7492C27.5109 88.6669 27.5418 88.6361 27.6239 88.6361H30.8512C30.9334 88.6361 30.9539 88.6669 30.9539 88.7492V90.0544C30.9539 90.2292 31.0156 90.2805 31.1801 90.2805H31.6837C31.8584 90.2805 31.92 90.2292 31.92 90.0544V87.9475C31.92 87.783 31.8584 87.7213 31.6837 87.7213H31.5398C31.4473 87.7213 31.3754 87.6905 31.3239 87.5672L29.6076 83.9186C29.4329 83.5486 29.3506 83.4561 29.2273 83.4561C29.1039 83.4561 29.0218 83.5486 28.8573 83.9186L27.1306 87.5672C27.0793 87.67 27.0176 87.7213 26.9353 87.7213H26.7812ZM29.2273 85.0183L30.4709 87.7933H27.9631L29.2273 85.0183ZM36.3043 83.6C36.1502 83.6 36.0988 83.6617 36.0988 83.8158V88.4203C36.0988 88.595 36.1707 88.6361 36.3454 88.6361H43.0774C43.2727 88.6361 43.3344 88.595 43.3344 88.4203V83.8158C43.3344 83.6617 43.2829 83.6 43.1288 83.6H42.5429C42.3888 83.6 42.3374 83.6617 42.3374 83.8158V87.6288C42.3374 87.7008 42.3065 87.7213 42.2346 87.7213H40.3024C40.251 87.7213 40.2202 87.6905 40.2202 87.6392V83.8158C40.2202 83.6617 40.1585 83.6 40.0043 83.6H39.4288C39.2746 83.6 39.2129 83.6617 39.2129 83.8158V87.6288C39.2129 87.7008 39.1718 87.7213 39.1204 87.7213H37.1985C37.1163 87.7213 37.0957 87.7008 37.0957 87.6288V83.8158C37.0957 83.6617 37.0443 83.6 36.8902 83.6H36.3043ZM49.6714 88.7286C50.2058 88.7286 50.6889 88.5847 50.9869 88.2867V88.4511C50.9869 88.5847 51.0486 88.6361 51.1719 88.6361H51.8092C51.9325 88.6361 51.9839 88.5847 51.9839 88.4511V85.9536C51.9839 84.3605 51.2439 83.4767 49.7228 83.4767C49.4658 83.4767 49.1369 83.5075 48.9211 83.5486C48.7875 83.5794 48.7258 83.6308 48.7258 83.7438V83.7952L48.7875 84.2475C48.7978 84.3811 48.8594 84.4325 48.9725 84.4325C49.065 84.4325 49.4144 84.3913 49.62 84.3913C50.4833 84.3913 50.9561 84.895 50.9869 85.8405C50.6889 85.5527 50.1956 85.3986 49.6714 85.3986C48.5717 85.3986 47.7494 86.005 47.7494 87.0636C47.7494 88.1222 48.5614 88.7286 49.6714 88.7286ZM49.8872 88.0092C49.2706 88.0092 48.7772 87.6494 48.7772 87.0636C48.7772 86.4777 49.2706 86.118 49.8872 86.118C50.5039 86.118 50.9972 86.4983 50.9972 87.0738C50.9972 87.6392 50.5039 88.0092 49.8872 88.0092ZM58.9993 88.6361C59.1123 88.6463 59.1329 88.6978 59.1329 88.7903V90.7739C59.1329 90.9486 59.1946 91 59.359 91H59.914C60.0785 91 60.1401 90.9486 60.1401 90.7739V88.7903C60.1401 88.6978 60.171 88.6463 60.2635 88.6361C61.8667 88.5333 62.8843 87.5775 62.8843 86.1283C62.8843 84.6894 61.8771 83.6411 60.2429 83.6C60.171 83.6 60.1401 83.5692 60.1401 83.5075V81.1539C60.1401 80.9791 60.0785 80.9277 59.914 80.9277H59.359C59.1946 80.9277 59.1329 80.9791 59.1329 81.1539V83.4869C59.1329 83.5691 59.1123 83.6 59.0404 83.6C57.3651 83.6617 56.3887 84.71 56.3887 86.1488C56.3887 87.598 57.3754 88.5333 58.9993 88.6361ZM59.061 84.5147C59.1021 84.5147 59.1329 84.5661 59.1329 84.6175V87.6083C59.1329 87.6905 59.1021 87.7213 59.0198 87.7213C58.1256 87.7213 57.4062 87.1458 57.4062 86.1488C57.4062 85.1108 58.1462 84.5147 59.061 84.5147ZM60.2429 87.7317C60.171 87.7317 60.1401 87.6905 60.1401 87.6494V84.6072C60.1401 84.5558 60.171 84.5147 60.2121 84.5147C61.1371 84.5147 61.8667 85.1108 61.8667 86.1283C61.8667 87.115 61.1371 87.7317 60.2429 87.7317ZM68.1114 84.5147C68.2039 84.5147 68.2347 84.525 68.2347 84.6483V88.41C68.2347 88.5847 68.2964 88.6361 68.4608 88.6361H68.9952C69.1597 88.6361 69.2214 88.5847 69.2214 88.41V84.6483C69.2214 84.5352 69.2522 84.5147 69.3447 84.5147H70.5575C70.763 84.5147 70.8452 84.4633 70.8452 84.2886V83.8158C70.8452 83.6411 70.7836 83.6 70.5883 83.6H66.8677C66.693 83.6 66.621 83.6411 66.621 83.8158V84.2886C66.621 84.4633 66.693 84.5147 66.8985 84.5147H68.1114ZM75.1781 83.6C75.0239 83.6 74.9725 83.6617 74.9725 83.8158V88.4203C74.9725 88.5744 75.0239 88.6361 75.1781 88.6361H75.7639C75.9181 88.6361 75.9695 88.5744 75.9695 88.4203V86.5702C75.9695 86.488 75.99 86.4675 76.0723 86.4675H78.21C78.2923 86.4675 78.3129 86.488 78.3129 86.5702V88.4203C78.3129 88.5744 78.3642 88.6361 78.5184 88.6361H79.1042C79.2584 88.6361 79.32 88.5744 79.32 88.4203V83.8158C79.32 83.6617 79.2584 83.6 79.1042 83.6H78.5184C78.3642 83.6 78.3129 83.6617 78.3129 83.8158V85.45C78.3129 85.5322 78.2923 85.5527 78.21 85.5527H76.0723C75.99 85.5527 75.9695 85.5322 75.9695 85.45V83.8158C75.9695 83.6617 75.9181 83.6 75.7639 83.6H75.1781ZM85.6468 88.7286C86.1813 88.7286 86.6643 88.5847 86.9623 88.2867V88.4511C86.9623 88.5847 87.024 88.6361 87.1473 88.6361H87.7846C87.9079 88.6361 87.9593 88.5847 87.9593 88.4511V85.9536C87.9593 84.3605 87.2193 83.4767 85.6982 83.4767C85.4413 83.4767 85.1123 83.5075 84.8965 83.5486C84.7629 83.5794 84.7013 83.6308 84.7013 83.7438V83.7952L84.7629 84.2475C84.7732 84.3811 84.8348 84.4325 84.9479 84.4325C85.0404 84.4325 85.3898 84.3913 85.5954 84.3913C86.4588 84.3913 86.9315 84.895 86.9623 85.8405C86.6643 85.5527 86.171 85.3986 85.6468 85.3986C84.5471 85.3986 83.7248 86.005 83.7248 87.0636C83.7248 88.1222 84.5368 88.7286 85.6468 88.7286ZM85.8627 88.0092C85.246 88.0092 84.7527 87.6494 84.7527 87.0636C84.7527 86.4777 85.246 86.118 85.8627 86.118C86.4793 86.118 86.9727 86.4983 86.9727 87.0738C86.9727 87.6392 86.4793 88.0092 85.8627 88.0092ZM92.4875 85.1417C92.4875 85.8508 92.8369 86.303 93.5461 86.5188L92.2614 88.4203C92.2306 88.4511 92.2202 88.4922 92.2202 88.5333C92.2202 88.6053 92.2716 88.6361 92.3641 88.6361H93.0014C93.2069 88.6361 93.2994 88.595 93.4125 88.4408L94.4608 86.7963C94.5327 86.7038 94.5842 86.673 94.6767 86.673H95.2727C95.3447 86.673 95.3858 86.7142 95.3858 86.7861V88.4408C95.3858 88.595 95.4372 88.6361 95.5914 88.6361H96.1772C96.3314 88.6361 96.3827 88.5642 96.3827 88.4305V83.8055C96.3827 83.6513 96.3417 83.6 96.1875 83.6H94.4608C93.1144 83.6 92.4875 84.3297 92.4875 85.1417ZM95.3858 85.7788C95.3858 85.8611 95.355 85.8919 95.2727 85.8919H94.5636C93.7927 85.8919 93.4844 85.6247 93.4844 85.1622C93.4844 84.7202 93.8133 84.4016 94.5533 84.4016H95.2727C95.3447 84.4016 95.3858 84.4427 95.3858 84.525V85.7788ZM115.721 88.7286C116.256 88.7286 116.739 88.5847 117.037 88.2867V88.4511C117.037 88.5847 117.098 88.6361 117.222 88.6361H117.859C117.982 88.6361 118.034 88.5847 118.034 88.4511V85.9536C118.034 84.3605 117.294 83.4767 115.773 83.4767C115.516 83.4767 115.187 83.5075 114.971 83.5486C114.837 83.5794 114.776 83.6308 114.776 83.7438V83.7952L114.837 84.2475C114.848 84.3811 114.909 84.4325 115.022 84.4325C115.115 84.4325 115.464 84.3913 115.67 84.3913C116.533 84.3913 117.006 84.895 117.037 85.8405C116.739 85.5527 116.245 85.3986 115.721 85.3986C114.621 85.3986 113.799 86.005 113.799 87.0636C113.799 88.1222 114.611 88.7286 115.721 88.7286ZM115.937 88.0092C115.32 88.0092 114.827 87.6494 114.827 87.0636C114.827 86.4777 115.32 86.118 115.937 86.118C116.554 86.118 117.047 86.4983 117.047 87.0738C117.047 87.6392 116.554 88.0092 115.937 88.0092ZM123.004 83.6C122.839 83.6 122.788 83.6411 122.788 83.8158V90.7739C122.788 90.9486 122.839 91 123.004 91H123.559C123.723 91 123.785 90.9486 123.785 90.7739V88.7492C123.785 88.6669 123.816 88.6361 123.898 88.6361H124.432C126.334 88.6361 127.382 87.6186 127.382 86.0872C127.382 84.5661 126.354 83.6 124.453 83.6H123.004ZM126.354 86.0872C126.354 87.1663 125.573 87.7317 124.422 87.7317H123.898C123.826 87.7317 123.785 87.6905 123.785 87.6083V84.638C123.785 84.5455 123.816 84.5147 123.898 84.5147H124.422C125.645 84.5147 126.354 85.0594 126.354 86.0872ZM131.088 83.8467L132.691 86.0667L130.965 88.3997C130.934 88.4511 130.913 88.4922 130.913 88.5333C130.913 88.6053 130.954 88.6361 131.047 88.6361H131.808C132.003 88.6361 132.054 88.6053 132.167 88.4511L133.318 86.8375L134.48 88.4511C134.603 88.6053 134.644 88.6361 134.839 88.6361H135.621C135.713 88.6361 135.754 88.6053 135.754 88.5333C135.754 88.4922 135.734 88.4511 135.703 88.3997L133.986 86.0461L135.59 83.8467C135.631 83.7952 135.651 83.7438 135.651 83.7027C135.651 83.6308 135.61 83.6 135.518 83.6H134.798C134.624 83.6 134.552 83.6411 134.439 83.7952L133.349 85.3163L132.249 83.7952C132.157 83.6411 132.064 83.6 131.89 83.6H131.15C131.068 83.6 131.026 83.6308 131.026 83.7027C131.026 83.7438 131.047 83.7952 131.088 83.8467ZM139.995 83.6C139.84 83.6 139.789 83.6617 139.789 83.8158V88.2867C139.789 88.6463 139.83 88.7594 139.954 88.7594C140.087 88.7594 140.313 88.5538 140.642 88.225L143.17 85.3369V88.4203C143.17 88.5744 143.222 88.6361 143.376 88.6361H143.962C144.116 88.6361 144.167 88.5744 144.167 88.4203V83.9905C144.167 83.6205 144.137 83.4767 143.982 83.4767C143.931 83.4767 143.869 83.5075 143.787 83.5692C143.623 83.6925 143.355 83.9597 143.284 84.0316L140.786 86.93V83.8158C140.786 83.6617 140.735 83.6 140.58 83.6H139.995ZM149.795 84.5147C149.888 84.5147 149.919 84.525 149.919 84.6483V88.41C149.919 88.5847 149.98 88.6361 150.145 88.6361H150.679C150.844 88.6361 150.905 88.5847 150.905 88.41V84.6483C150.905 84.5352 150.936 84.5147 151.029 84.5147H152.241C152.447 84.5147 152.529 84.4633 152.529 84.2886V83.8158C152.529 83.6411 152.467 83.6 152.272 83.6H148.552C148.377 83.6 148.305 83.6411 148.305 83.8158V84.2886C148.305 84.4633 148.377 84.5147 148.582 84.5147H149.795ZM160.994 87.9578C160.994 87.9063 160.983 87.8653 160.953 87.8138L160.726 87.4336C160.696 87.3719 160.644 87.3411 160.593 87.3411C160.541 87.3411 160.49 87.3617 160.428 87.4028C159.966 87.7111 159.483 87.8653 158.979 87.8653C158.054 87.8653 157.417 87.2486 157.335 86.375H161.117C161.24 86.375 161.292 86.3236 161.292 86.19V86.0152C161.292 84.5867 160.264 83.4767 158.835 83.4767C157.386 83.4767 156.307 84.6072 156.307 86.1386C156.307 87.6083 157.355 88.7492 158.907 88.7492C159.668 88.7492 160.326 88.5436 160.881 88.1325C160.953 88.0811 160.994 88.0297 160.994 87.9578ZM158.825 84.3194C159.575 84.3194 160.11 84.8333 160.233 85.6042H157.366C157.561 84.7819 158.095 84.3194 158.825 84.3194ZM165.953 83.6C165.789 83.6 165.727 83.6513 165.727 83.8261V88.41C165.727 88.5847 165.789 88.6361 165.953 88.6361H166.498C166.663 88.6361 166.724 88.5847 166.724 88.41V83.8261C166.724 83.6513 166.663 83.6 166.498 83.6H165.953ZM166.878 86.0872C166.878 86.1386 166.94 86.2208 166.95 86.2311L168.903 88.4511C169.027 88.5847 169.098 88.6361 169.294 88.6361H170.075C170.167 88.6361 170.229 88.5847 170.229 88.5333C170.229 88.5025 170.208 88.4613 170.178 88.41L168.071 86.0358L169.952 83.8467C170.003 83.7952 170.023 83.7438 170.023 83.6925C170.023 83.6308 169.972 83.6 169.869 83.6H169.129C168.955 83.6 168.872 83.6617 168.749 83.7952L166.95 85.933C166.909 85.9844 166.878 86.0461 166.878 86.0872ZM175.086 84.5147C175.179 84.5147 175.209 84.525 175.209 84.6483V88.41C175.209 88.5847 175.271 88.6361 175.435 88.6361H175.97C176.134 88.6361 176.196 88.5847 176.196 88.41V84.6483C176.196 84.5352 176.227 84.5147 176.319 84.5147H177.532C177.738 84.5147 177.82 84.4633 177.82 84.2886V83.8158C177.82 83.6411 177.758 83.6 177.563 83.6H173.842C173.668 83.6 173.596 83.6411 173.596 83.8158V84.2886C173.596 84.4633 173.668 84.5147 173.873 84.5147H175.086ZM181.433 83.8775L183.602 88.3792L182.492 90.7636C182.482 90.7739 182.451 90.8561 182.451 90.8972C182.451 90.9692 182.502 91 182.595 91H183.345C183.468 91 183.53 90.928 183.612 90.7636L186.747 83.8775C186.778 83.8261 186.788 83.7747 186.788 83.7336C186.788 83.6513 186.726 83.6 186.603 83.6H186.007C185.832 83.6 185.75 83.6513 185.668 83.8261L184.157 87.228L182.543 83.8672C182.451 83.6513 182.379 83.6 182.173 83.6H181.588C181.454 83.6 181.392 83.6411 181.392 83.7233C181.392 83.7747 181.403 83.8261 181.433 83.8775ZM191.07 83.6C190.905 83.6 190.854 83.6411 190.854 83.8158V90.7739C190.854 90.9486 190.905 91 191.07 91H191.625C191.789 91 191.851 90.9486 191.851 90.7739V88.7492C191.851 88.6669 191.882 88.6361 191.964 88.6361H192.498C194.4 88.6361 195.448 87.6186 195.448 86.0872C195.448 84.5661 194.42 83.6 192.519 83.6H191.07ZM194.42 86.0872C194.42 87.1663 193.639 87.7317 192.488 87.7317H191.964C191.892 87.7317 191.851 87.6905 191.851 87.6083V84.638C191.851 84.5455 191.882 84.5147 191.964 84.5147H192.488C193.711 84.5147 194.42 85.0594 194.42 86.0872ZM201.436 88.7286C201.97 88.7286 202.453 88.5847 202.751 88.2867V88.4511C202.751 88.5847 202.813 88.6361 202.936 88.6361H203.573C203.697 88.6361 203.748 88.5847 203.748 88.4511V85.9536C203.748 84.3605 203.008 83.4767 201.487 83.4767C201.23 83.4767 200.901 83.5075 200.685 83.5486C200.552 83.5794 200.49 83.6308 200.49 83.7438V83.7952L200.552 84.2475C200.562 84.3811 200.624 84.4325 200.737 84.4325C200.829 84.4325 201.179 84.3913 201.384 84.3913C202.247 84.3913 202.72 84.895 202.751 85.8405C202.453 85.5527 201.96 85.3986 201.436 85.3986C200.336 85.3986 199.514 86.005 199.514 87.0636C199.514 88.1222 200.326 88.7286 201.436 88.7286ZM201.651 88.0092C201.035 88.0092 200.541 87.6494 200.541 87.0636C200.541 86.4777 201.035 86.118 201.651 86.118C202.268 86.118 202.761 86.4983 202.761 87.0738C202.761 87.6392 202.268 88.0092 201.651 88.0092Z" fill="#FC5963"/>
</svg>
