<svg width="345" height="49" viewBox="0 0 345 49" fill="none" xmlns="http://www.w3.org/2000/svg">
<path fill-rule="evenodd" clip-rule="evenodd" d="M257.202 11.1825C256.06 10.8776 255.333 9.04109 251.729 9.04109C247.16 9.04109 245.412 11.8698 243.161 15.2245C242.492 16.2218 241.952 17.2896 241.461 18.5215C240.616 20.6445 236.748 30.4549 233.647 30.4549C233.102 30.4549 233.37 30.3742 232.695 30.2169C232.852 28.3302 237.58 19.8597 238.878 17.3656C239.574 16.0293 242.597 10.8463 242.688 9.75493H234.36C233.903 10.6198 233.667 11.4993 233.161 12.3625C231.319 15.5025 229.416 19.6774 227.709 22.6137C226.821 24.1396 224.367 29.6861 224.367 31.4066C224.367 35.5822 229.156 39.047 235.078 34.5042C235.648 34.0673 235.93 33.6931 236.502 33.3101C237.193 35.8978 240.99 37.3247 244.728 34.8744C245.886 34.1152 246.507 33.2255 247.446 32.5963C247.704 33.6997 248.512 34.355 249.286 35.0391C253.529 38.7866 258.147 33.9429 259.343 33.3101C262.721 35.5722 261.493 36.6411 269.098 36.6411C272.043 36.6411 275.719 35.0888 277.254 33.6139C278.553 32.365 278.695 31.78 279.613 30.2631C282.895 24.8459 280.858 23.703 277.112 19.3482C275.613 17.6062 275.526 17.0167 277.37 13.982C278.753 11.7075 279.805 12.9394 279.805 13.5618C279.805 15.1313 277.997 16.6502 277.664 18.0825C279.17 18.0825 284.156 18.405 285.088 17.8927C286.584 17.0702 291.117 8.80315 282.422 8.80315C277.54 8.80315 272.365 8.36866 269.364 12.3999C265.445 17.6648 266.061 19.7007 270.585 24.685C271.472 25.662 272.106 26.8706 271.8 28.3806C270.915 32.7489 267.909 31.7587 267.909 31.1687C267.909 30.3575 268.664 29.1849 269.018 28.4712C269.728 27.0402 270.199 26.7634 270.288 25.6963H261.96C261.169 27.1911 259.827 29.9791 257.677 29.9791C255.605 29.9791 257.061 27.6325 257.518 26.7269L267.332 7.98897C268.104 6.70069 268.505 5.47225 269.287 4.23341C269.881 3.29331 271.14 1.67644 271.24 0.475586H262.674C261.732 2.25675 260.986 4.0422 259.919 5.81C259.321 6.8001 259.137 7.65761 258.622 8.55826C258.244 9.21881 257.405 10.4226 257.202 11.1825ZM245.967 29.271C248.205 29.7599 248.326 28.631 249.286 26.8367L253.533 18.4605C254.155 17.2307 255.861 15.0786 254.516 14.117C251.973 12.2984 250.069 17.6521 248.784 20.3614C247.693 22.6619 244.893 26.8259 245.967 29.271Z" fill="#FF4E25"/>
<path fill-rule="evenodd" clip-rule="evenodd" d="M85.6549 35.9275C88.5837 35.9275 90.7172 34.8403 92.8998 33.1794C93.587 32.6564 93.8461 32.1097 94.6963 31.8827C95.2785 34.3817 99.3837 35.9275 102.548 35.9275C107.946 35.9275 113.307 31.6469 114.207 31.4068C114.275 34.4962 116.097 35.9275 118.727 35.9275C120.177 35.9275 120.904 35.4827 122.058 35.2138C121.634 37.0367 116.046 46.772 115.634 48.5379H123.486C123.71 47.5752 125.278 44.6449 125.823 43.7369C126.459 42.6764 127.233 40.5564 128.292 38.8304L139.289 16.7544C139.795 15.6208 142.758 10.3015 142.996 9.27929H135.383C132.223 15.251 128.925 22.3878 125.711 28.3978C125.125 29.4942 124.784 30.1528 123.486 30.4551C121.89 29.3862 122.59 28.4527 123.489 26.6508C124.296 25.0306 124.713 23.6962 125.823 21.8472C126.695 20.3942 131.754 9.99239 131.813 9.27929H124.438C123.892 10.3108 123.272 11.4005 122.632 12.47L117.376 22.6799C117.082 23.2771 116.918 23.7389 116.623 24.3062C115.673 26.1333 114.723 27.3236 112.885 28.42C110.584 29.7932 107.43 30.931 104.214 30.931C103.151 30.931 101.596 29.4324 101.596 28.7896C101.596 27.0981 102.652 25.1843 103.262 24.031H114.682C115.636 19.9381 121.669 13.5324 116.31 10.0309C113.727 8.34287 109.255 8.51283 106.415 9.57726C105.037 10.0937 104.174 10.6809 103.089 11.4855C100.045 13.7411 99.9824 15.192 98.6921 17.5578L94.4225 26.1365C94.2408 26.7105 94.1752 27.7009 93.9395 28.2707C93.507 29.316 87.7491 32.6364 90.4155 27.3639L103.738 0H95.886L92.393 6.73803C91.9668 7.58432 91.706 8.39048 91.266 9.17999C88.5941 13.9749 85.6628 20.0582 83.1205 25.0655C82.12 27.0362 80.2901 29.8445 81.6008 33.0816C82.158 34.4578 83.7226 35.9275 85.6549 35.9275ZM104.819 20.8329C109.329 20.8283 107.987 21.6697 110.301 16.8115C110.891 15.5716 112.322 13.7389 111.351 12.3574C108.719 11.878 108.155 13.9617 107.289 15.6883C106.577 17.1073 105.253 19.3561 104.819 20.8329Z" fill="#FF4E25"/>
<path fill-rule="evenodd" clip-rule="evenodd" d="M281.234 30.4548V31.4065C281.234 36.077 286.742 36.8789 290.752 36.8789C293.725 36.8789 295.611 35.7723 297.24 34.3256C299.954 31.9151 300.539 29.3901 302.694 25.9804C303.459 24.7709 304.963 21.0351 306.172 20.4169C306.714 20.14 308.924 19.1797 309.548 19.0341C309.229 20.231 304.128 29.3896 303.048 31.3302C302.537 32.2473 301.19 34.7989 300.983 35.6893H308.359L319.223 16.5741C320.649 13.7052 323.11 14.0817 323.11 15.7031C323.11 18.0073 315.496 28.2471 315.496 32.3583C315.496 34.2344 317.309 35.9272 319.779 35.9272H342.383C343.193 35.9272 343.457 34.9406 343.858 34.3092C344.37 33.5032 344.759 33.1534 345 32.1204L329.296 32.1204C322.965 32.1285 324.003 31.7565 330.087 19.587C330.486 18.7892 330.839 18.3347 331.28 17.4491C332.584 14.8315 333.765 12.6516 331.747 10.397C330.234 8.70508 327.486 9.28915 325.582 9.847C324.942 10.0343 324.491 10.2205 324.029 10.4356C323.226 10.8091 323.298 10.9724 322.396 11.1824C322.647 10.6607 322.812 10.2463 322.872 9.51692C321.279 9.51692 320.011 9.5184 318.757 9.69538C317.461 9.87822 316.339 9.51692 314.783 9.51692C314.014 12.8148 310.724 15.0536 307.883 16.4169C307.883 10.1176 305.208 9.04102 298.365 9.04102C297.045 9.04102 295.246 9.29732 294.249 9.68309C292.888 10.2093 292.377 10.6967 291.327 11.5196C289.209 13.1795 285.509 20.4844 284.013 23.4784C282.974 25.558 281.234 27.4581 281.234 30.4548ZM297.77 19.51L295.272 18.0328C293.686 20.438 291.386 24.9408 289.933 27.7364C289.489 28.5909 288.155 30.7569 289.417 31.3184C291.819 32.387 293.131 28.7268 294.363 26.2258C295.388 24.1446 296.927 21.5519 297.77 19.51Z" fill="#FF4E25"/>
<path fill-rule="evenodd" clip-rule="evenodd" d="M182.969 31.645C182.969 34.8382 184.294 37.1231 187.869 36.7868C191.441 36.4508 192.071 35.1796 194.152 33.7863C194.758 36.3908 196.743 36.4036 199.148 36.4036C202.028 36.4036 204.818 34.8755 206.627 33.6519C208.533 32.3635 211.382 28.9633 211.996 28.5519C211.941 31.0368 211.045 38.3516 211.045 40.6864C211.689 40.453 211.398 40.6147 211.943 39.9197C212.208 39.5818 212.358 39.3204 212.616 38.9267L227.923 17.5927C228.409 16.8292 228.72 16.3588 229.311 15.6494C229.911 14.9295 230.148 14.4945 230.696 13.703C231.417 12.6603 233.159 10.5971 233.41 9.51741C228.635 9.51741 229.869 8.50309 225.99 14.2313C225.135 15.4938 224.236 16.6004 223.417 17.845L220.8 21.414C220.86 18.7243 221.752 12.2025 221.752 9.51741C212.888 9.51741 213.99 8.57432 213.682 12.3929C213.165 18.8102 213.157 21.3326 209.074 26.8191C208.025 28.2291 206.263 30.4553 204.62 30.4553C202.282 30.4553 206.37 22.996 206.922 21.8118C207.367 20.8575 207.584 20.0671 208.031 19.1144L211.97 10.3861C212.147 9.85942 212.374 9.51741 211.521 9.51741H204.858C204.078 9.51741 203.966 9.99734 203.907 10.7071C199.946 8.05453 195.901 9.3233 192.48 11.8907C190.776 13.1693 189.796 15.8414 188.756 17.9215C188.187 19.0578 187.791 20.1011 187.252 21.1761C186.695 22.2859 186.082 23.4051 185.619 24.54C184.99 26.0799 182.969 30.0118 182.969 31.645ZM200.349 13.2709C198.435 13.766 198.232 15.3091 197.333 17.2074C196.584 18.7885 195.89 20.4122 195.158 21.9479C194.414 23.5108 193.72 25.0499 192.994 26.6828C192.493 27.8074 190.932 31.3104 193.782 30.5573C195.269 30.1645 195.952 28.0858 196.64 26.5379L201.941 14.6939C202.04 13.7177 201.266 13.0338 200.349 13.2709Z" fill="#FF4E25"/>
<path fill-rule="evenodd" clip-rule="evenodd" d="M39.498 30.9315C39.498 32.4082 40.3232 34.0364 41.0996 34.8024C43.1904 36.865 46.2846 36.597 48.6178 35.2925C49.1328 35.0046 49.4631 34.7745 49.9213 34.4547C50.544 34.0202 50.713 33.7308 51.3946 33.5487C51.6151 34.3744 52.1735 34.7233 52.7511 35.2855C55.6303 38.0878 60.0977 34.0153 61.1498 33.3109C60.9081 34.348 60.4397 34.653 60.1981 35.6901H68.5256L72.4945 28.0004C72.9897 27.0171 73.2979 26.1028 73.7535 25.2146C76.2164 20.4124 77.5077 17.3694 83.0395 17.3694C84.0629 17.3694 84.3291 17.6469 85.1808 17.8453L89.554 9.08704C83.8738 9.04185 83.9888 9.66809 80.6601 11.8971C81.1812 9.6604 83.4963 9.24142 79.4695 9.27023C78.1055 9.28002 77.7067 9.46002 76.6165 9.5189C75.5742 9.57515 74.3472 9.51775 73.2843 9.51775L70.622 14.9451C69.6164 16.5816 68.8049 18.5141 67.8947 20.3075L65.1148 25.6172C62.1029 31.5555 59.9601 30.248 59.9601 28.7902C59.9601 27.1931 61.2383 24.9412 61.9096 23.8396C62.2357 23.3044 68.758 10.5629 69.0015 9.51775L62.5537 9.49407C60.6376 9.55661 62.0239 9.41672 60.9118 10.2315C59.495 8.1157 53.2705 8.63605 51.3088 9.66991C48.246 11.2841 46.6875 14.9524 45.0456 17.6824C43.1996 20.7517 39.498 27.6324 39.498 30.9315ZM58.8065 13.4735C57.0012 12.7242 55.8492 12.7397 54.3374 15.0843C53.3212 16.6602 47.2949 28.1125 48.0998 29.7086C48.6998 30.8983 50.7761 30.8629 52.1484 28.3626C53.0499 26.7198 53.664 25.2911 54.5434 23.618C55.6764 21.4625 59.0255 15.5515 58.8065 13.4735Z" fill="#FF4E25"/>
<path fill-rule="evenodd" clip-rule="evenodd" d="M141.807 4.04506L179.406 4.03865C184.855 3.98814 182.385 8.29812 181.142 10.7835C180.48 12.1067 180.098 13.2838 179.389 14.5035L173.643 24.9366C172.447 26.9011 171.916 29.463 169.216 31.4542C168.201 32.2023 166.388 32.3588 164.648 32.3588C164.915 31.2143 171.277 19.5635 172.292 17.1615L178.448 5.23472H168.931C168.597 6.66705 165.901 11.0473 164.965 12.9278C164.27 14.3254 163.641 15.3302 162.982 16.6552L154.896 31.8861C154.309 33.0139 153.018 34.659 152.989 35.9278L166.561 35.9373C167.941 35.9202 168.351 35.673 169.878 35.685C173.007 35.7096 173.54 35.4279 175.676 34.3455C180.176 32.0653 181.086 27.9587 183.046 24.3469L186.697 17.2903C187.168 16.3423 187.375 15.861 187.827 14.8512C189.17 11.8438 194.153 5.66346 188.261 2.08395C186.557 1.04874 184.649 1.18978 182.017 1.18991H152.989C150.65 1.18991 148.163 1.27293 145.843 1.19732C144.693 1.15989 143.596 0.57575 142.9 1.32528C142.687 1.55499 141.896 3.66304 141.807 4.04506Z" fill="#FF4E25"/>
<path fill-rule="evenodd" clip-rule="evenodd" d="M0 3.8073H26.4104C26.3317 4.75233 26.3031 4.42312 25.8246 5.36283L19.1925 17.7652C18.7775 18.5833 18.4085 19.0422 18.0837 19.7496L16.0179 23.632C14.9553 25.7592 9.87018 34.5459 9.75519 35.928H18.7966C19.018 34.9778 22.5875 28.5543 23.2344 27.2796L26.7525 20.8046C27.2773 19.9208 27.405 19.3772 27.8379 18.559H32.8345C32.456 19.9764 23.9105 34.5174 23.7931 35.928H32.5966C32.7783 35.1478 33.1887 34.4309 33.5587 33.797C33.9855 33.0661 34.3357 32.4548 34.7382 31.6454L50.9173 1.19009C47.7407 1.19009 45.4393 0.952148 42.3518 0.952148C41.7226 2.14107 41.1696 3.06661 40.5285 4.36336C39.8983 5.63815 39.3181 6.49167 38.6444 7.71383C38.2483 8.43247 38.2108 8.76544 37.789 9.47558L34.9759 14.7521H29.9793L33.5588 7.86269C34.2167 6.73056 34.7336 5.72907 35.3715 4.44087C35.9443 3.28391 36.8447 2.12212 37.1173 0.952148H0.951717C0.686317 2.09141 0.116159 2.4115 0 3.8073Z" fill="#FF4E25"/>
<path fill-rule="evenodd" clip-rule="evenodd" d="M237.217 4.99627H245.782C246.111 3.58344 247.776 1.92053 248.162 0.475586H239.358L237.217 4.99627Z" fill="#FF4E25"/>
<path fill-rule="evenodd" clip-rule="evenodd" d="M145.137 19.7486H154.892C155.343 18.8959 156.566 17.0382 156.795 16.1797H147.04C146.402 17.3849 145.786 18.522 145.137 19.7486Z" fill="#FF4E25"/>
</svg>
