<svg width="282" height="57" viewBox="0 0 282 57" fill="none" xmlns="http://www.w3.org/2000/svg">
<path fill-rule="evenodd" clip-rule="evenodd" d="M64.1562 46.8612L274.355 46.8719C274.487 46.8062 274.39 46.9527 274.455 46.7104C274.696 45.8097 274.749 43.2731 274.399 42.5307L64.1533 42.5166C63.822 44.178 63.8675 45.2179 64.1562 46.8612Z" fill="#FCE61B"/>
<path fill-rule="evenodd" clip-rule="evenodd" d="M29.7725 16.8599C26.2544 17.1445 23.2922 18.1911 20.489 19.993C18.6096 21.2012 17.5786 22.3205 15.8145 23.6291C14.2714 24.7737 12.9098 25.5132 11.0804 26.1372C10.94 26.1851 10.8275 26.2252 10.6803 26.2691C10.4393 26.341 10.4524 26.2877 10.3434 26.4655C9.76324 27.4134 9.70134 29.6383 10.187 30.8543C10.314 31.1721 10.3182 31.2855 10.6726 31.3913C12.1981 31.8472 13.595 32.5801 14.8651 33.4175C16.6192 34.5742 17.8985 35.8204 19.5984 36.9944C22.8803 39.2612 27.4749 40.9148 32.5119 40.5959C34.8885 40.4454 37.2045 39.8546 39.1696 38.995C40.9643 38.2102 42.8955 37.0382 44.2891 35.8066C44.4727 35.6442 44.6516 35.5132 44.8478 35.344C45.0226 35.1933 45.2171 35.0354 45.4107 34.8843C47.0711 33.5878 48.5515 32.5319 50.5874 31.7521L51.7479 31.3589C51.929 31.2957 51.9305 31.267 52.0152 31.0939C52.56 29.9822 52.606 27.918 52.0542 26.654C51.8917 26.2814 51.8607 26.3505 51.4685 26.2198C50.9289 26.0399 50.455 25.8688 49.9507 25.6497C48.9615 25.2194 48.0956 24.7282 47.2819 24.186C46.6127 23.74 45.5065 22.9105 44.9303 22.4051C44.2033 21.7674 43.4632 21.1261 42.6215 20.5373C39.3759 18.2674 34.9497 16.4412 29.7725 16.8599ZM30.5056 21.2489C27.6648 21.4973 25.1098 22.2739 22.8382 23.8547C21.0088 25.1277 19.5091 26.4371 18.2909 28.2841C18.0072 28.714 18.0805 28.6773 18.3481 29.0887C20.3734 32.2021 23.6633 34.4825 27.3123 35.498C32.3613 36.9028 37.2874 35.3642 41.0623 32.3556C42.1863 31.4596 43.3697 30.2116 44.1333 28.9836C44.4214 28.5201 44.3424 28.6038 44.0608 28.1651C42.0675 25.0599 38.7211 22.7684 35.0874 21.7644C33.8416 21.4202 31.9471 21.1228 30.5056 21.2489Z" fill="#FCE61B"/>
<path fill-rule="evenodd" clip-rule="evenodd" d="M147.793 38.7822H149.081C149.217 38.7847 149.213 38.7455 149.392 38.7338C150.797 38.6423 152.029 38.3948 153.334 37.8782C153.728 37.7218 154.476 37.3711 154.83 37.1534L156.973 35.567C157.52 34.9855 157.737 34.8606 158.248 34.1783C159.355 32.6983 160.04 31.2557 160.468 29.3779C161.185 26.2365 160.705 22.6483 159.265 20.0574L158.511 18.8552C157.759 17.8239 156.786 16.7918 155.727 16.0887C154.752 15.4409 154.723 15.4569 153.701 14.9598C150.708 13.5047 146.33 13.6332 143.312 14.8769C142.065 15.3908 140.533 16.3288 139.563 17.3039C139.036 17.8343 138.585 18.3478 138.153 18.9597C137.78 19.4885 137.268 20.3297 137.017 20.9344C136.335 22.5797 136.136 23.4543 135.939 25.2333C135.911 25.4831 135.947 25.7739 135.932 26.0278C135.829 27.753 136.234 29.6574 136.827 31.2209C137.228 32.279 137.846 33.2552 138.515 34.1545C138.579 34.2405 138.603 34.2684 138.675 34.3498L139.23 34.9947C139.364 35.1315 139.473 35.2342 139.608 35.3717C139.832 35.5983 139.858 35.5625 140.011 35.7238C140.106 35.8237 140.101 35.8164 140.199 35.8897L140.251 35.9271C140.879 36.4352 141.027 36.5586 141.811 37.0318L142.832 37.568C144.376 38.2117 145.68 38.6696 147.439 38.732C147.626 38.7386 147.666 38.7847 147.793 38.7822ZM138.82 25.8936V26.6936C138.82 28.1525 139.206 29.4635 139.649 30.4847C139.764 30.7502 139.889 31.0006 140.036 31.2542C140.115 31.3913 140.171 31.4757 140.252 31.6148C140.417 31.8966 141.032 32.7382 141.242 32.9368C141.353 33.0421 141.43 33.1039 141.54 33.2164L142.292 33.8865C143.549 34.9108 145.447 35.6417 147.038 35.8085L148.77 35.9023L149.837 35.8088C151.199 35.6639 152.173 35.2828 153.331 34.6823C154.123 34.2717 154.667 33.7963 155.29 33.1718C155.474 32.987 155.565 32.9352 155.704 32.7422L156.099 32.2478C156.333 31.94 156.8 31.1677 156.959 30.7978C157.382 29.8195 157.75 28.7386 157.837 27.6282L157.84 25.0893C157.73 23.8234 157.389 22.9445 156.954 21.8862L155.826 20.0789L155.245 19.4598C153.619 17.8337 151.97 17.1899 149.634 16.8496C149.433 16.8203 149.283 16.8378 149.094 16.8142C147.345 16.5965 145.155 17.1493 143.75 17.8484L141.64 19.2934L140.821 20.2067C140.408 20.7448 140.212 21.0422 139.884 21.6243C139.804 21.7649 139.756 21.8816 139.685 22.0519C139.568 22.3331 139.458 22.5679 139.357 22.8767C139.032 23.8662 138.82 24.7499 138.82 25.8936Z" fill="#FCE61B"/>
<path fill-rule="evenodd" clip-rule="evenodd" d="M251.344 14.4705V38.2936L253.075 38.5125C255.563 38.7288 255.812 38.6814 258.319 38.468C258.474 38.4549 258.728 38.4407 258.88 38.4098C259.063 38.3724 258.993 38.3933 259.073 38.2955L262.258 33.5716C262.346 33.4389 262.409 33.3339 262.509 33.1992C263.147 32.3396 263.901 31.0727 264.561 30.1852C264.705 29.9918 265.713 28.3994 265.87 28.2928V38.2936C266.221 38.2936 268.082 38.6376 269.468 38.6379C270.721 38.6381 271.625 38.5872 272.832 38.4106C273.066 38.3763 273.454 38.2836 273.732 38.293L273.733 14.4261C273.383 14.4261 271.098 14.026 269.468 14.026C269.013 14.026 266.265 14.1818 265.998 14.4205L259.195 24.4313L259.198 14.4705C258.156 14.224 256.922 14.1044 255.829 14.0721C255.308 14.0565 255.568 13.978 254.802 14.064C254.628 14.0836 254.45 14.064 254.274 14.0691C253.973 14.078 253.582 14.1328 253.262 14.1673L251.344 14.4705ZM254.231 16.9107V34.2047C254.231 36.1072 253.989 35.7605 255.164 35.7605C255.688 35.7605 256.944 35.7781 257.292 35.6693C257.503 35.6032 258.207 34.4045 258.419 34.1272C258.48 34.0476 258.537 33.952 258.597 33.8614C258.66 33.7647 258.709 33.6908 258.773 33.5931L260.98 30.3796C261.111 30.1845 261.206 30.0271 261.333 29.841C261.457 29.6588 261.573 29.5129 261.698 29.3195C261.81 29.1465 261.934 28.9477 262.054 28.7845C262.188 28.6029 262.297 28.443 262.435 28.2339L265.36 23.9609C265.496 23.7646 265.582 23.6169 265.713 23.4231C265.841 23.2325 265.943 23.1066 266.078 22.9008L268.277 19.6784L268.757 19.6708V35.7684C269.646 35.7695 269.414 35.8324 270.359 35.7631C270.508 35.752 270.698 35.7676 270.853 35.7682L270.853 16.9148C269.226 16.8481 269.627 16.8803 267.732 16.9593L266.361 18.9635C266.234 19.1314 266.142 19.2793 266.019 19.4647L263.947 22.4585C263.829 22.6142 263.726 22.7973 263.611 22.9677L258.938 29.7584C258.874 29.8548 258.817 29.9271 258.751 30.0157L256.662 33.0365L256.319 33.0459L256.323 16.907L254.853 16.8622C254.596 16.8622 254.473 16.9163 254.231 16.9107Z" fill="#FCE61B"/>
<path fill-rule="evenodd" clip-rule="evenodd" d="M89.2883 37.8047C89.2883 38.3656 89.1589 38.2753 90.007 38.3714C90.3092 38.4055 90.5443 38.4357 90.8393 38.4713C91.1067 38.5035 91.3964 38.5531 91.6868 38.5544C91.9002 38.5552 91.9469 38.5822 92.0935 38.5976L94.3057 38.6013C94.9094 38.5585 96.7087 38.3523 97.1507 38.2487C97.1518 37.8016 97.1988 37.5256 97.1935 37.0936C97.1912 36.9025 97.1836 36.7049 97.1855 36.5147C97.1908 35.9363 97.4579 33.8511 97.4567 33.7155H105.858L106.062 35.69C106.113 36.0316 106.054 36.4112 106.106 36.7568C106.153 37.0663 106.125 37.8812 106.125 38.2935C106.638 38.2935 108.381 38.5994 109.678 38.5995C111.09 38.5997 112.197 38.5299 113.546 38.3367C113.717 38.3122 113.794 38.2848 113.987 38.2929L113.84 34.7947C113.574 32.6902 113.421 31.2608 112.918 29.1379C111.942 25.0183 110.993 22.4119 109.156 18.6782C108.769 17.8928 107.818 16.2485 107.346 15.5562C107.253 15.4201 107.209 15.3471 107.119 15.2083C107.037 15.0813 106.988 15.0154 106.907 14.8876C106.781 14.6902 106.834 14.6848 106.583 14.6339C103.242 13.9558 100.968 13.9018 97.5568 14.4763C96.3184 14.685 96.6588 14.4762 96.1117 15.297C95.0553 16.8824 93.7175 19.3109 92.9687 21.1751C92.1372 23.2449 91.8457 24.1234 91.1825 26.1437C90.8009 27.3057 90.5207 28.4902 90.2209 29.7151C90.0733 30.318 89.9673 30.9164 89.8538 31.5702C89.506 33.572 89.2883 35.686 89.2883 37.8047ZM92.2159 35.7604L94.3526 35.7642C94.4132 34.423 94.705 32.7332 94.9873 31.4153C95.0216 31.2549 95.0959 31.0167 95.1078 30.8268H108.168L108.42 31.9936C108.591 32.8521 108.989 34.9316 108.963 35.72C109.74 35.7029 109.846 35.8166 111.056 35.716C111.091 34.3597 110.424 30.9978 110.108 29.7333C109.741 28.2603 109.422 27.1369 108.942 25.6985C108.789 25.2401 108.655 24.8614 108.499 24.4092C108.197 23.5358 107.62 22.182 107.25 21.3453C107.197 21.2256 107.149 21.1443 107.107 21.0477L106.253 19.3221C106.191 19.2198 106.159 19.1513 106.098 19.0318C106.036 18.9095 105.999 18.8591 105.938 18.7504L105.131 17.3752C104.999 17.198 105.004 17.2749 104.475 17.1857C104.207 17.1405 103.974 17.1155 103.69 17.0814C102.788 16.9736 102.12 16.951 101.194 16.951C100.525 16.951 99.1501 17.1239 98.456 17.2407C98.1399 17.2939 98.1536 17.3857 97.8389 17.9166C96.7606 19.7367 96.082 21.1435 95.2692 23.169C95.1802 23.391 95.1184 23.5489 95.0287 23.7711L94.5663 25.043C93.9556 26.9071 93.6565 27.8247 93.177 29.7419C92.9412 30.6842 92.7471 31.6545 92.5863 32.6171L92.2159 35.7604Z" fill="#FCE61B"/>
<path fill-rule="evenodd" clip-rule="evenodd" d="M181.064 14.8706V38.2047C184.143 38.9227 185.651 38.8631 188.546 38.3094C188.637 38.292 188.689 38.292 188.771 38.2672C188.897 38.2288 188.927 38.293 188.927 38.0715V21.8376L195.546 21.8375L195.546 38.116C195.546 38.2766 195.738 38.2702 195.897 38.2978C198.606 38.77 199.736 38.9508 202.569 38.3832C203.585 38.1795 203.398 38.4056 203.398 37.5382L203.409 14.8706C203.033 14.8706 200.755 14.5271 199.899 14.5153C199.506 14.5099 199.061 14.423 198.656 14.4261C198.381 14.4284 198.313 14.3869 198.08 14.3802C197.818 14.3729 197.65 14.3777 197.444 14.3494L188.792 14.291C188.536 14.2942 188.457 14.3395 188.173 14.3382C187.534 14.3357 186.624 14.4301 186.172 14.4257C185.679 14.4209 182.973 14.6628 182.345 14.7297L181.064 14.8706ZM183.947 17.4037L183.948 35.8156C184.254 35.7962 184.922 35.9225 185.614 35.8235C185.766 35.8018 185.881 35.8151 186.04 35.8047L186.04 18.9597H198.434L198.434 35.8126L199.278 35.8574C199.731 35.8574 200.139 35.8042 200.526 35.8126V17.3592C199.65 17.3127 198.845 17.1804 197.945 17.1815C197.814 17.1817 197.779 17.1391 197.591 17.13C197.443 17.1228 197.294 17.1368 197.145 17.137C196.965 17.1372 196.856 17.0847 196.612 17.0849L195.28 17.0402C194.548 17.0408 194.566 17.0649 193.856 17.0061L191.415 17.0035C191.214 17.0144 191.172 17.0495 190.928 17.0499C190.572 17.0504 190.215 17.0383 189.86 17.0398C189.474 17.0416 189.238 17.0986 188.883 17.0907C188.275 17.0768 188.167 17.1331 187.862 17.1365L186.885 17.1783C186.672 17.1737 186.571 17.1786 186.376 17.2075L184.928 17.3106C184.575 17.3227 184.262 17.3786 183.947 17.4037Z" fill="#FCE61B"/>
<path fill-rule="evenodd" clip-rule="evenodd" d="M80.2253 14.3817C80.2136 14.9081 79.8437 16.149 79.687 16.6877C79.3853 17.725 78.986 18.7651 78.4127 19.6796C77.9643 20.3951 77.1008 21.4725 76.4047 21.9376C75.8561 21.5709 75.3277 20.9365 74.9098 20.4091C74.5024 19.895 74.1934 19.3352 73.8977 18.7525C73.4594 17.8888 72.6674 15.3803 72.5842 14.3817C71.4528 14.2875 70.9862 14.0705 69.4748 14.0705C67.8901 14.0705 67.0687 14.1123 65.5136 14.3295C65.2131 14.3715 64.9038 14.448 64.6328 14.4706C64.6813 15.0498 64.8546 15.6904 64.9699 16.2668C65.0964 16.8997 65.2369 17.4484 65.3884 18.026C65.5318 18.5728 65.6885 19.1485 65.8899 19.6576C66.1028 20.1966 66.2584 20.7032 66.5129 21.212C66.7567 21.6996 66.9727 22.1586 67.2451 22.6128C67.5166 23.0659 67.7941 23.5204 68.1042 23.9313C68.2633 24.1421 68.3936 24.3265 68.561 24.5409C68.735 24.7641 68.8798 24.9239 69.0711 25.1409C69.122 25.1986 69.1532 25.2213 69.2041 25.276L69.5771 25.7024C69.7446 25.8639 69.9741 26.1266 70.1504 26.2411L68.8416 27.6598C67.1235 29.5907 65.9726 32.0627 65.3525 34.5692C65.1705 35.3048 64.6328 37.491 64.6328 38.2492C64.9004 38.2492 65.2236 38.3118 65.5014 38.3543C67.2758 38.6259 69.1792 38.6753 70.9782 38.5064C71.4043 38.4663 71.9979 38.4279 72.3965 38.3232C72.6279 38.2623 72.5978 37.9818 72.6522 37.7427C72.7025 37.5224 72.7318 37.354 72.7862 37.1205C72.97 36.3313 73.1655 35.5775 73.4188 34.8208L73.7299 34.02C74.0082 33.3425 74.3765 32.7467 74.7839 32.1409C75.0375 31.7636 75.6737 31.0133 76.0287 30.7602C76.1344 30.6852 76.1291 30.6768 76.2122 30.5893C76.3453 30.4491 76.2936 30.5034 76.4569 30.4196C76.573 30.6162 77.2923 31.1744 77.5192 31.4901C77.8673 31.9745 78.0647 32.1334 78.451 32.7796C78.6242 33.069 78.822 33.3947 78.9628 33.7343C79.265 34.4629 79.524 35.1015 79.7274 35.903C79.8734 36.4785 80.2199 37.6945 80.2698 38.2936C80.8186 38.3059 81.9729 38.5939 83.3792 38.5937C84.3781 38.5936 85.3803 38.5608 86.3593 38.4716C86.6562 38.4445 87.9854 38.3218 88.1324 38.2457C88.2824 37.9829 87.5676 34.9356 87.4679 34.5998C87.025 33.1093 86.6077 31.6131 85.7936 30.2766L85.5386 29.8189C85.5189 29.7859 85.5113 29.7709 85.4891 29.735L84.8345 28.7469C84.4822 28.2793 84.1351 27.7916 83.7452 27.3493C83.6544 27.2464 83.5702 27.187 83.4809 27.0803C83.2312 26.7814 82.8808 26.514 82.6596 26.1969C83.0754 25.9254 83.9533 24.8804 84.3273 24.3983L85.338 22.9667C85.7031 22.401 85.9711 21.8386 86.2917 21.2118C86.4155 20.9694 86.5097 20.7101 86.6177 20.4692C87.33 18.8811 87.6684 17.1344 88.0146 15.4223C88.066 15.1679 88.1713 14.7173 88.1767 14.4706C87.8764 14.4006 87.5186 14.3619 87.1803 14.312C86.8283 14.2603 86.4816 14.2121 86.1649 14.1724C84.4973 13.9635 82.777 14.0223 81.1211 14.2559C80.8493 14.2942 80.5298 14.3817 80.2253 14.3817ZM76.4047 25.4041L75.8858 25.0347C75.6941 24.908 75.5203 24.7899 75.3344 24.6524L73.3999 22.9424C73.3022 22.8333 73.2829 22.8198 73.1764 22.7247C72.9468 22.5195 72.3689 21.7393 72.1809 21.4522L71.814 20.8859C71.0924 19.6691 70.6777 18.5393 70.2686 17.1895C70.2084 16.991 70.1686 16.9785 69.9732 16.9479C69.8673 16.9314 69.8324 16.9202 69.6972 16.9108C69.1554 16.8733 68.5973 16.9176 68.0533 16.9099C68.0533 17.0801 68.1895 17.5304 68.2449 17.6985C68.6856 19.0362 69.1621 20.309 69.9332 21.4768C70.0103 21.5936 70.0576 21.6643 70.1291 21.7701L71.9512 23.9489L72.7289 24.6821C72.8296 24.7709 72.8735 24.8497 72.9637 24.936C73.0769 25.0445 73.1252 25.0347 73.239 25.1506C73.3876 25.3015 73.3647 25.2724 73.5232 25.3985L74.5832 26.3375C74.266 26.4934 73.9804 26.7062 73.6997 26.9193L72.2989 28.0525C71.8199 28.4148 71.2387 29.0769 70.8416 29.5714C70.067 30.5356 69.476 31.5372 68.972 32.7255C68.7685 33.2052 68.5901 33.663 68.4218 34.1763C68.3358 34.4384 68.2756 34.6641 68.1995 34.9312C68.1384 35.1456 68.0069 35.5457 68.0086 35.7685L70.1492 35.7234C70.2774 34.8532 70.7161 33.7448 71.0749 32.9607C71.6064 31.7985 72.3785 30.5284 73.3384 29.6683C73.5172 29.508 73.6215 29.3534 73.7945 29.1929C73.8994 29.0956 73.9449 29.0892 74.0454 28.9988L75.3426 27.9422C75.6853 27.677 76.0618 27.3844 76.4492 27.1897C77.2911 27.6153 79.4468 29.4448 79.9488 30.1267C80.2022 30.4711 80.4536 30.7027 80.7448 31.1517C81.0506 31.6235 81.3527 32.1019 81.5977 32.6039C81.6497 32.7105 81.6831 32.8061 81.7488 32.9464C82.0131 33.5098 82.645 35.1281 82.6606 35.7201L84.8453 35.7619L84.3972 34.2103C84.1921 33.5933 83.8231 32.529 83.4652 31.943C83.4261 31.8788 83.4117 31.8567 83.3694 31.7757L82.2799 30.0604C81.8852 29.5376 81.4654 29.0454 80.9922 28.5931C80.7924 28.402 80.7166 28.261 80.4749 28.0884L78.5459 26.5061C78.4096 26.4024 78.388 26.3743 78.2263 26.293C78.3613 26.1334 78.5621 25.9693 78.7434 25.8321L79.2679 25.3794C79.4379 25.2518 79.3857 25.2924 79.5261 25.1506C79.6445 25.0307 79.6847 25.0515 79.8007 24.9357C79.8938 24.8424 79.9303 24.7728 80.0408 24.6866C80.1594 24.5943 80.2236 24.5662 80.3357 24.4487C81.2397 23.4999 81.9129 22.9034 82.6366 21.8149C82.7686 21.6163 82.8985 21.4338 83.0252 21.2256C83.5333 20.3895 83.9923 19.465 84.3101 18.5102C84.3951 18.2546 84.4723 18.0429 84.547 17.7691C84.6041 17.5598 84.7424 17.2084 84.7568 16.9594L84.5118 16.8927C84.1618 16.8343 83.0628 16.8509 82.7711 16.9276C82.5184 16.9939 82.5038 17.3617 82.4382 17.576C82.1481 18.5239 81.7897 19.5592 81.2965 20.389L79.8747 22.4321C79.754 22.5525 79.7611 22.5887 79.6587 22.704L78.3897 23.923C78.3041 23.9955 78.3303 23.9596 78.259 24.015L76.4047 25.4041Z" fill="#FCE61B"/>
<path fill-rule="evenodd" clip-rule="evenodd" d="M228.643 14.6926V38.1602C228.643 38.3289 228.777 38.2922 228.932 38.3146C229.094 38.3377 229.212 38.3566 229.353 38.3792C229.994 38.4819 232.287 38.7457 232.761 38.681C233.045 38.6423 233.337 38.6652 233.66 38.6448C234.184 38.6116 234.806 38.5262 235.331 38.4491C235.635 38.4044 235.847 38.3666 236.138 38.3228C236.606 38.2526 236.509 38.334 236.505 37.7604L236.505 32.1597C236.76 32.2805 239.035 32.243 239.482 32.2353C241.008 32.2476 242.598 31.9944 243.741 31.6193C244.198 31.4693 245.086 31.1399 245.476 30.9112C245.735 30.7598 245.975 30.6251 246.223 30.4569L248.026 28.8438C248.345 28.4248 248.458 28.3119 248.749 27.7888C248.81 27.6776 248.807 27.7013 248.866 27.5955C249.696 26.1135 249.958 24.327 249.965 22.6028L249.811 20.8888C249.599 19.5948 249.135 18.4275 248.36 17.454C246.33 14.901 242.437 14.248 239.304 14.248H237.26C236.467 14.248 235.794 14.2936 235.039 14.2925C234.31 14.2917 233.595 14.3716 232.861 14.3797L228.643 14.6926ZM235.395 17.1287L234.018 17.173C233.775 17.173 233.665 17.2256 233.485 17.2256C233.337 17.2256 233.185 17.2143 233.039 17.2177C232.841 17.2227 232.77 17.2701 232.64 17.2701C232.202 17.2701 231.947 17.3098 231.526 17.3067V35.771L232.863 35.8128C233.182 35.8128 233.304 35.7522 233.618 35.7712V29.1821C234.224 29.1904 235.727 29.368 236.283 29.3682C236.517 29.3682 236.764 29.3519 236.995 29.3584L239.97 29.3188C240.739 29.3106 242.446 29.0252 243.207 28.7347C243.946 28.453 244.454 28.2168 245.065 27.7454C245.174 27.661 245.22 27.6153 245.336 27.5267C245.555 27.3588 245.828 26.9986 245.996 26.7658C246.078 26.6536 246.126 26.5788 246.191 26.4699C246.252 26.3691 246.308 26.282 246.369 26.1621C246.586 25.7373 246.752 25.2871 246.87 24.7491C247.245 23.0389 247.2 20.7481 246.107 19.3091C245.735 18.8196 245.266 18.4084 244.709 18.1259C243.815 17.6717 242.569 17.2898 241.393 17.2206C241.196 17.209 240.799 17.1749 240.625 17.1483C240.339 17.1048 240.072 17.1607 239.799 17.1304C238.746 17.0142 236.492 17.1287 235.395 17.1287Z" fill="#FCE61B"/>
<path fill-rule="evenodd" clip-rule="evenodd" d="M112.787 14.5596V22.8267C112.787 24.9223 113.411 26.6336 114.564 28.116C114.977 28.6472 115.046 28.6766 115.444 29.0121L115.776 29.3019C116.013 29.4984 116.195 29.6089 116.449 29.7825L116.694 29.9367C116.703 29.9418 116.714 29.9485 116.722 29.9535C118.514 31.0371 120.928 31.486 123.093 31.4889C123.663 31.4896 126.009 31.3586 126.292 31.2269L126.292 38.205C126.555 38.2269 126.921 38.3299 127.186 38.3744C127.507 38.4282 127.76 38.476 128.094 38.5319C130.158 38.8771 131.749 38.7645 133.763 38.2561C133.913 38.2183 134.048 38.1697 134.199 38.1603L134.199 14.4264C132.895 14.1224 131.015 14.0708 129.623 14.0708C128.29 14.0708 126.781 14.4156 126.292 14.4264V23.8491C126.179 23.8586 125.121 24.0988 124.567 24.1685C123.938 24.2479 123.294 24.2577 122.661 24.1483C122.388 24.1012 122.122 24.0276 121.867 23.9203C121.556 23.7898 121.176 23.4814 121.008 23.2208C120.785 22.8755 120.65 22.376 120.65 21.9821V14.4264C120.245 14.4264 118.523 14.0264 117.14 14.0264C115.419 14.0264 114.766 14.1053 113.153 14.393C112.995 14.4214 112.787 14.3839 112.787 14.5596ZM115.666 16.911C115.669 18.3286 115.592 22.6737 115.773 23.8811C115.953 25.0863 116.534 26.2032 117.457 26.9549C118.858 28.0965 119.989 28.2835 121.817 28.5503L123.182 28.613C123.726 28.613 124.259 28.5484 124.78 28.5197C125.779 28.4642 128.305 27.9448 129.175 27.7644L129.179 35.8129L130.689 35.8497C130.893 35.8497 131.32 35.9372 131.32 35.7162V17.0486C131.32 16.8148 130.31 16.9163 129.89 16.9151L129.179 16.9109V26.0266C128.844 26.1792 127.177 26.5673 126.717 26.6723C125.387 26.9757 124.496 26.9964 123.137 26.9966C121.34 26.9966 119.408 26.3733 118.451 24.9375C117.644 23.7256 117.762 22.5543 117.762 20.7821C117.762 19.4905 117.762 18.199 117.762 16.9073L116.385 16.8626C116.078 16.8624 115.962 16.9144 115.666 16.911Z" fill="#FCE61B"/>
<path fill-rule="evenodd" clip-rule="evenodd" d="M217.358 23.582C217.129 23.5631 217.016 23.3412 216.843 23.2077C216.167 22.6857 215.075 21.2597 214.554 20.4731L214.219 19.9186C214.149 19.8024 214.102 19.7341 214.037 19.6123C213.263 18.1618 212.694 16.6878 212.173 15.1221C212.086 14.861 211.988 14.6561 211.982 14.3816C211.147 14.3816 210.415 14.2038 209.539 14.2038C207.434 14.2038 206.646 14.3291 204.678 14.7186C204.487 14.7564 204.33 14.8122 204.164 14.8261C204.246 14.9969 204.352 15.8809 204.405 16.1409C204.492 16.5789 204.588 17.0171 204.688 17.4129C204.908 18.2867 205.143 19.0339 205.413 19.8431C205.536 20.211 205.704 20.6142 205.845 20.9663C205.916 21.1413 205.995 21.3356 206.074 21.4932C206.506 22.3629 206.912 23.2608 207.451 24.0711C208.07 25.0013 208.727 25.8912 209.443 26.7448C209.514 26.8296 209.568 26.8651 209.646 26.9427L210.22 27.5679C210.531 27.8799 210.852 28.243 211.194 28.5029L212.136 29.3379C212.143 29.3437 212.154 29.3508 212.162 29.3564C212.169 29.362 212.18 29.3693 212.187 29.375C212.197 29.3828 212.227 29.4059 212.237 29.414L213.593 30.4743C213.38 30.6061 213.233 30.9384 213.087 31.1317L211.259 33.3916C210.866 33.8604 209.364 35.3567 209.273 35.4936C209.871 36.3848 210.561 36.9952 211.509 37.4739C212.753 38.1013 214.658 38.5903 216.069 38.5555C217.094 38.5299 216.972 38.7113 217.55 37.9548L217.877 37.5697C217.948 37.4924 217.97 37.4533 218.035 37.3725L219.283 35.7772C219.347 35.6922 219.382 35.6454 219.435 35.5741L221.887 31.9394C222.266 31.2974 222.661 30.6468 222.994 29.981C223.385 29.1966 223.811 28.4484 224.164 27.6391L224.812 26.1538C225.682 24.0755 226.384 21.8959 226.828 19.6819C226.982 18.9158 227.13 18.141 227.267 17.3212C227.4 16.5224 227.549 15.6613 227.619 14.8261C224.482 14.0944 223.215 13.9854 220.08 14.394C219.626 14.4531 219.728 14.405 219.66 14.907C219.297 17.6022 218.744 19.7191 217.874 22.2315C217.717 22.683 217.465 23.1225 217.358 23.582ZM207.484 16.9996C207.719 17.7261 207.877 18.4098 208.165 19.1311C208.527 20.0402 209.014 21.1473 209.561 21.9593C209.762 22.2576 209.926 22.5277 210.122 22.8191L211.339 24.4475C211.541 24.7077 211.798 24.9298 211.982 25.1827L214.187 27.2436C214.456 27.4643 214.695 27.6325 214.969 27.8388C215.046 27.8966 215.109 27.9475 215.17 27.9928C215.233 28.039 215.308 28.0836 215.382 28.1379C215.795 28.4397 216.199 28.7499 216.645 29.0064C216.917 29.1623 217.22 29.4611 217.535 29.5379C217.446 29.8816 215.438 32.8018 215.062 33.2867C215.004 33.3622 214.985 33.3867 214.928 33.463L213.4 35.4126C213.561 35.4415 213.692 35.5238 213.846 35.5865C214.391 35.8085 214.91 35.8773 215.544 35.9067C215.626 35.705 215.567 35.8096 215.707 35.6633C216.058 35.2948 216.363 34.8552 216.677 34.457L219.485 30.3315L220.723 28.1007C220.837 27.8768 220.911 27.7282 221.021 27.508C222.17 25.2129 223.173 22.541 223.828 19.9196C224.071 18.9477 224.282 17.9951 224.432 16.9959C223.851 17.0062 223.035 16.799 222.435 16.9283C222.147 16.9903 222.198 17.3739 222.067 18.0297C221.599 20.3861 220.868 22.7351 219.886 24.9146L218.821 27.2232C218.697 27.4699 218.639 27.679 218.504 27.886C218.312 27.8775 217.066 26.9953 216.826 26.8228L215.273 25.6236C215.118 25.513 215.1 25.4392 214.95 25.3253C214.709 25.142 214.536 24.927 214.315 24.7151L213.711 24.075C213.397 23.7738 213.143 23.422 212.887 23.0772C212.783 22.9373 212.727 22.8648 212.626 22.7152C212.546 22.5965 212.57 22.642 212.492 22.5389C212.431 22.4571 212.423 22.4381 212.368 22.3525C212.277 22.213 212.201 22.1017 212.118 21.9797L211.198 20.4111C210.673 19.367 210.192 18.2938 209.816 17.1746L209.717 16.9545C209.319 16.9483 209.024 16.9075 208.605 16.9115C208.215 16.9154 207.828 17.0027 207.484 16.9996Z" fill="#FCE61B"/>
<path fill-rule="evenodd" clip-rule="evenodd" d="M140.906 26.1158C140.906 28.0255 141.301 29.6105 142.351 31.0273L142.982 31.8171C143.296 32.1417 143.609 32.384 143.963 32.6574C145.05 33.4961 146.787 34.0676 148.147 34.0676C149.468 34.0676 150.653 33.8995 151.699 33.3593L152.305 33.032C152.701 32.8018 152.798 32.7045 153.112 32.4611C153.455 32.1949 153.478 32.0862 153.839 31.7684C153.972 31.6519 153.95 31.6524 154.045 31.5282C154.45 30.9987 154.635 30.7785 154.958 30.1305C155.56 28.9237 155.695 28.0663 155.786 26.7826C155.823 26.2485 155.829 26.0583 155.779 25.5001C155.759 25.2806 155.702 24.8859 155.664 24.6813C155.43 23.4331 154.905 22.1839 154.102 21.2235L153.889 20.9492C153.753 20.7928 153.599 20.6871 153.442 20.5084L152.682 19.8914C152.117 19.4575 151.14 19.0656 150.496 18.8786C149.531 18.5984 148.908 18.6221 148.014 18.6046C147.908 18.6023 147.799 18.6458 147.614 18.6528C146.404 18.699 144.945 19.2967 143.95 20.0048C143.15 20.5738 142.504 21.299 141.993 22.1346C141.332 23.2153 140.906 24.6756 140.906 26.1158Z" fill="#FCE61B"/>
<path fill-rule="evenodd" clip-rule="evenodd" d="M164.096 19.9816V32.7378C164.096 32.9292 164.637 32.9252 164.976 32.968C166.644 33.1796 166.826 32.9154 167.782 32.9154L171.871 26.6061C171.967 26.4467 172.376 25.7992 172.492 25.7151V32.8265C173.738 33.1172 175.03 33.1151 176.267 32.8265V19.8484C176.033 19.8432 175.655 19.752 175.415 19.7231C174.523 19.615 173.577 19.5914 172.706 19.7965C172.471 19.852 172.492 19.9366 172.243 20.3107C172.095 20.5333 171.976 20.698 171.84 20.9294C171.595 21.3446 171.314 21.7274 171.044 22.1331C170.774 22.5384 170.532 22.9223 170.27 23.3153L168.096 26.6065C168.025 26.726 167.98 26.8362 167.871 26.9155V19.8484C167.08 19.8484 166.834 19.4962 164.947 19.7228C164.702 19.7522 164.096 19.8048 164.096 19.9816Z" fill="#FCE61B"/>
<path fill-rule="evenodd" clip-rule="evenodd" d="M107.855 29.1824L106.698 25.4058C106.46 24.8232 106.219 24.0227 105.893 23.2329C105.712 22.7966 105.496 22.2979 105.292 21.8787C105.179 21.6466 105.077 21.4466 104.968 21.2272C104.911 21.1132 104.863 21.0175 104.801 20.9L104.257 19.9365C104.128 19.7247 103.648 18.851 103.456 18.7849C103.322 18.7388 103.187 18.7406 103.014 18.7423C102.794 18.7444 102.65 18.6916 102.525 18.6934L100.792 18.6939C100.606 18.6907 100.633 18.7286 100.437 18.7423C99.7127 18.793 99.8756 18.629 99.5164 19.1497C99.4466 19.2509 99.4094 19.3076 99.3442 19.4211C99.2767 19.5387 99.2411 19.5788 99.1714 19.6908C98.1282 21.3672 97.6048 22.7127 96.9056 24.4901C96.677 25.0712 96.4381 25.893 96.2365 26.4882C96.2151 26.5508 95.3894 29.0744 95.4615 29.1474C95.554 29.2409 100.392 29.1824 100.748 29.1824C103.117 29.1824 105.486 29.1824 107.855 29.1824ZM99.3209 26.2937H103.946C103.936 26.1621 103.797 25.8115 103.741 25.654C103.427 24.7519 102.652 22.8802 102.191 22.0958L101.858 21.5376H101.414C100.956 22.1733 100.062 24.2905 99.7803 25.0172L99.3209 26.2937Z" fill="#FCE61B"/>
<path fill-rule="evenodd" clip-rule="evenodd" d="M233.617 27.4933C235.554 27.4894 237.855 27.454 239.748 27.4933L240.81 27.398C241.754 27.2959 243.122 26.8655 243.705 26.2067C243.813 26.0849 243.884 26.032 243.996 25.923C244.757 25.1818 244.901 23.9714 244.901 22.871C244.901 21.5485 244.352 20.5222 243.604 19.9457C243.48 19.8499 243.432 19.7992 243.297 19.7213C242.853 19.4646 242.757 19.3969 242.197 19.2233C241.653 19.0548 241.048 18.96 240.325 18.96H233.617L233.617 27.4933ZM236.505 24.6051L240.147 24.6047C241.269 24.6051 242.058 24.3779 242.058 23.1822C242.058 22.7561 241.943 22.3724 241.596 22.1302C241.456 22.0318 241.263 21.9629 241.049 21.9214C240.261 21.7683 237.466 21.8378 236.505 21.8378V24.6051Z" fill="#FCE61B"/>
<path fill-rule="evenodd" clip-rule="evenodd" d="M30.763 23.8707C29.3582 24.0929 28.6526 24.3296 27.5835 25.449C26.8826 26.1828 26.2571 27.5414 26.3861 29.047C26.4453 29.7357 26.663 30.3588 26.9246 30.8647C27.2265 31.4487 27.5758 31.8248 27.9831 32.2046C29.8574 33.9526 32.9779 33.7826 34.7301 31.8007C36.8899 29.3576 36.0508 25.403 32.8298 24.1552C32.3119 23.9547 31.441 23.7634 30.763 23.8707Z" fill="#FCE61B"/>
<path fill-rule="evenodd" clip-rule="evenodd" d="M143.75 26.1603C143.75 27.1252 144.003 28.3221 144.538 29.1032C144.624 29.2289 144.688 29.3403 144.767 29.453C144.838 29.555 144.825 29.5259 144.915 29.617C145.229 29.9364 145.126 29.9187 145.672 30.3264C145.896 30.4936 146.162 30.6437 146.43 30.7684C147.017 31.0416 147.712 31.183 148.503 31.183C152.15 31.183 153.688 27.4566 152.608 24.3648C152.483 24.007 152.225 23.518 152.018 23.2247C151.973 23.1624 151.96 23.1486 151.903 23.0713C151.741 22.8499 151.665 22.82 151.47 22.6143C151.159 22.2868 150.818 22.1197 150.429 21.9197C149.823 21.6088 149.02 21.4824 148.326 21.4824C148.096 21.4826 148.014 21.5188 147.794 21.5356C147.308 21.5729 146.833 21.7262 146.427 21.9031C146.085 22.0523 145.623 22.3192 145.36 22.5701C144.563 23.3294 144.135 23.9375 143.883 25.1409L143.75 26.1603Z" fill="#FCE61B"/>
<path fill-rule="evenodd" clip-rule="evenodd" d="M28.7617 52.3389C29.0559 52.8381 30.3623 53.0841 31.0937 53.0827C31.7931 53.0811 32.3898 52.9623 33.0233 52.713C33.2404 52.6277 33.3785 52.5201 33.5473 52.447C33.5452 50.7024 33.3493 48.1613 33.2475 46.2589C33.2321 45.9728 33.2361 45.2984 33.1852 45.0517C33.0992 44.6346 31.7165 44.4137 31.227 44.4056C30.6582 44.396 29.439 44.6053 29.1328 44.9108C29.0071 45.0361 28.7632 51.897 28.7617 52.3389Z" fill="#FCE61B"/>
<path fill-rule="evenodd" clip-rule="evenodd" d="M49.9348 19.9472L50.9537 18.8315C51.1494 18.635 51.2349 18.4773 51.4611 18.2717L54.5724 14.8943C54.7795 14.6521 54.9986 14.6537 54.8823 14.2736C54.4357 12.8132 52.2613 11.3581 51.1824 11.5009L47.6796 16.0873C47.3769 16.473 47.1152 16.8443 46.8103 17.2209C46.6592 17.4078 46.6492 17.432 46.9019 17.9C47.373 18.7725 48.7122 19.937 49.9348 19.9472Z" fill="#FCE61B"/>
<path fill-rule="evenodd" clip-rule="evenodd" d="M33.1699 12.3262L33.5536 4.81239C32.9112 4.55921 32.8293 4.3562 31.7826 4.22234C30.9178 4.11176 29.4208 4.2441 28.8484 4.80365C28.6791 4.96904 28.7813 5.52565 28.7954 5.84048C28.8851 7.83301 28.943 10.1493 29.0596 12.105C29.0747 12.3561 29.0997 12.3537 29.3236 12.4618C30.5695 13.0649 32.0414 12.9529 33.1699 12.3262Z" fill="#FCE61B"/>
<path fill-rule="evenodd" clip-rule="evenodd" d="M51.2162 45.7663C51.741 45.7714 52.4692 45.4692 52.8327 45.2442C53.5524 44.7985 53.4419 44.8695 54.0362 44.3155C54.3426 44.0296 54.7078 43.5302 54.8723 43.0152C54.9986 42.6197 54.8341 42.6689 54.3439 42.0971L53.5471 41.2506C53.3543 41.0735 53.2434 40.8816 53.0365 40.6949L50.4568 37.8975C50.2833 37.6958 50.0586 37.5348 49.9347 37.3115C48.8276 37.3185 47.7618 38.2534 47.3275 38.7597C47.0957 39.0301 46.9 39.3121 46.7585 39.6594C46.6677 39.8822 46.6621 39.8572 46.7847 40.0135L50.3162 44.6172C50.6155 45.0019 50.9024 45.4034 51.2162 45.7663Z" fill="#FCE61B"/>
<path fill-rule="evenodd" clip-rule="evenodd" d="M11.0705 11.4844C9.6552 11.5112 7.91297 12.8806 7.43632 14.0922C7.26636 14.5247 7.32969 14.505 7.55776 14.771C7.72753 14.9688 7.90661 15.1231 8.07229 15.3224L8.81223 16.1394C8.90633 16.2391 8.98979 16.2964 9.08085 16.4019C9.96511 17.4243 11.1958 18.6522 12.0811 19.6691C12.3007 19.9212 12.3325 20.0033 12.7793 19.8838C13.0298 19.8167 13.3106 19.7102 13.5237 19.6026C14.2824 19.2192 15.5184 18.1025 15.5397 17.4427C15.5461 17.2425 12.4201 13.2995 11.9625 12.675L11.0705 11.4844Z" fill="#FCE61B"/>
<path fill-rule="evenodd" clip-rule="evenodd" d="M11.0746 45.7774C11.1626 45.5868 15.1891 40.3585 15.419 40.0796C15.6307 39.8229 15.5314 39.6803 15.3578 39.3688C15.2298 39.1395 15.0835 38.9192 14.9432 38.7625C14.4366 38.196 13.4633 37.3794 12.3275 37.3057C11.9929 37.7813 10.2888 39.4904 9.78507 40.0872C9.40195 40.5409 8.62033 41.2968 8.22107 41.7661L7.45815 42.6055C7.3443 42.7315 7.30965 42.7485 7.36719 42.9604C7.71157 44.2295 9.51475 45.6758 11.0746 45.7774Z" fill="#FCE61B"/>
<path fill-rule="evenodd" clip-rule="evenodd" d="M20.7884 14.7029C21.9462 14.7051 23.2763 14.1523 23.88 13.4293C24.0547 13.2198 23.9452 13.0847 23.8471 12.7886C23.7037 12.3559 23.5598 11.9159 23.4163 11.4852C23.1251 10.6097 22.8409 9.75679 22.5586 8.87576C22.3995 8.37929 21.8725 6.57799 21.6768 6.2548C21.1926 6.17538 21.1415 6.13159 20.6995 6.14793C19.4509 6.1941 17.9621 6.7527 17.3151 7.66346C17.1214 7.9363 17.2461 8.04565 17.3733 8.33207L19.7496 13.7764C20.1303 14.6601 20.0222 14.7013 20.7884 14.7029Z" fill="#FCE61B"/>
<path fill-rule="evenodd" clip-rule="evenodd" d="M20.4241 42.5832C20.0199 42.6381 20.074 42.7316 19.9393 43.0444C19.8386 43.2786 19.7506 43.4796 19.6429 43.7254L17.3211 49.0477C17.1809 49.3795 17.1518 49.4024 17.3692 49.6714C18.0606 50.5262 19.5379 51.1005 20.7879 51.1163C20.9553 51.1183 21.5254 51.0828 21.6383 51.0137C21.7848 50.9238 22.3171 49.1105 22.3941 48.879L23.8142 44.567C24.0057 43.9792 24.1406 43.9733 23.4085 43.4063C22.7554 42.9006 21.5054 42.4365 20.4241 42.5832Z" fill="#FCE61B"/>
<path fill-rule="evenodd" clip-rule="evenodd" d="M40.5579 6.24913L38.3047 13.1124C38.2458 13.2979 38.2555 13.2722 38.3754 13.404C38.6724 13.7301 38.9889 13.9915 39.4696 14.2268C40.1852 14.5771 41.0502 14.7787 41.8773 14.6752C42.2059 14.6339 42.1311 14.6534 42.3403 14.1676L44.9582 8.1629C45.1088 7.80646 45.0856 7.83487 44.8521 7.55148C43.9933 6.50981 42.0682 5.93154 40.5579 6.24913Z" fill="#FCE61B"/>
<path fill-rule="evenodd" clip-rule="evenodd" d="M38.2833 43.9236C38.2721 44.2275 39.9316 49.0527 40.2744 50.1314C40.3613 50.4047 40.4378 50.8247 40.6 51.0163C42.0663 51.4532 43.8711 50.6168 44.6412 49.9372C44.7711 49.8223 44.84 49.717 44.9484 49.5752C45.0926 49.3869 45.0841 49.394 44.9823 49.1581L42.1375 42.6658C41.8052 42.3566 40.2515 42.7062 39.8707 42.8533C39.522 42.988 39.2805 43.1076 38.9919 43.3076C38.6829 43.5218 38.5479 43.7036 38.2833 43.9236Z" fill="#FCE61B"/>
</svg>
