<svg width="248" height="91" viewBox="0 0 248 91" fill="none" xmlns="http://www.w3.org/2000/svg">
<path d="M204.315 37.0225C205.006 31.4958 203.785 26.0029 200.966 21.9178C199.102 23.9649 197.187 26.4564 195.42 29.1342C193.274 32.3754 191.391 35.5058 189.397 38.8202C188.891 39.6622 188.375 40.5199 187.844 41.3991L187.505 41.9616C183.667 48.3422 180.041 54.3692 174.464 59.4826C170.941 62.7215 167.321 64.9302 163.697 66.0556C166.626 66.6349 169.291 66.917 171.825 66.917C172.127 66.917 172.432 66.9129 172.729 66.9045C177.3 66.7709 181.772 65.5568 185.662 63.393C189.449 61.3042 193 58.3853 195.932 54.9514C200.636 49.4805 203.535 43.2809 204.315 37.0225ZM161.308 66.132C161.266 66.122 161.224 66.1124 161.182 66.1028C157.768 65.306 154.543 64.5532 150.611 64.5532C147.601 64.5532 146.264 65.3408 146.264 65.6406C146.264 65.9669 147.163 66.5911 150.535 66.8607C151.611 66.9422 152.677 66.9833 153.703 66.9833C156.408 66.9833 158.963 66.6968 161.308 66.132ZM161.966 20.2606C156.771 24.2762 152.821 29.7008 150.84 35.5442C150.043 37.9145 147.855 45.9949 153.13 50.4325C154.682 51.7153 156.705 52.3935 158.982 52.3935C160.436 52.3935 161.942 52.1043 163.336 51.5556C166.559 50.3551 169.352 47.9693 171.64 44.4626C172.493 43.0975 173.943 39.6921 173.958 35.6037C173.946 32.3951 173.08 27.8047 169.027 24.1645C167.209 22.5315 164.833 21.2185 161.966 20.2606ZM35.7126 31.8207C36.1893 31.5497 36.6535 31.2739 37.0935 31.0006C39.3299 29.6194 41.3127 28.1525 42.9898 26.6382C40.9782 25.3087 39.3784 23.7183 38.2318 21.9091C37.0644 20.0675 36.4995 17.9916 36.5526 15.7353C35.9658 15.9903 35.353 16.2826 34.7278 16.6057C31.0195 18.5023 27.4584 21.0336 23.5215 24.5727C19.3746 28.2597 15.7061 32.3763 12.3122 37.1519C13.7497 37.3726 15.0645 37.46 16.3674 37.4224C24.4954 37.3044 31.5441 34.1127 35.1346 32.1433C33.3295 30.596 32.3813 29.3379 32.1349 28.9918L32.1176 29.0002L32.0601 28.8821L31.9897 28.7726L32.0024 28.7645L31.897 28.5434L31.9088 28.5283C31.9024 28.4769 31.9102 28.4175 31.9512 28.3516L32.0362 28.2171H32.194C32.2501 28.2171 32.2967 28.2244 32.3398 28.2519L32.3744 28.2289L32.4512 28.3781L32.5581 28.5982C32.6478 28.7287 33.6059 30.0912 35.7126 31.8207ZM39.4611 21.2941C40.5454 22.9992 42.0434 24.5036 43.9142 25.7677C46.089 23.6263 47.4557 21.5622 47.8685 19.7942C48.2307 18.2977 48.0913 17.2107 47.4037 16.1577C46.6807 15.0524 45.2414 14.3349 43.5532 14.2388C43.3477 14.2268 43.1369 14.2208 42.9277 14.2208C41.3425 14.2208 39.6772 14.5476 37.8397 15.2195C37.764 17.4392 38.3091 19.4822 39.4611 21.2941ZM203.217 47.4022C201.876 50.701 200.036 53.7509 197.745 56.4681C194.637 60.1147 190.733 63.0579 186.455 64.9815C182.632 66.6786 178.175 67.5779 172.826 67.7307C169.422 67.7307 165.954 67.2721 162.511 66.3686C159.704 67.1719 156.673 67.5792 153.503 67.5792C152.529 67.5792 151.523 67.5412 150.512 67.4656C147.291 67.1906 145.66 66.5774 145.66 65.6406V65.6328C145.716 64.5554 148.237 63.9916 150.699 63.9916C154.489 63.9916 157.57 64.6835 160.834 65.4163C161.393 65.5421 161.971 65.6716 162.549 65.7971C166.31 64.7705 169.921 62.2506 173.281 58.3056C177.132 53.8013 180.405 48.5286 183.571 43.4297C184.255 42.3273 184.962 41.1872 185.652 40.0948L185.927 39.6553C188.579 35.4124 190.87 31.7479 193.814 27.9466C195.7 25.5406 197.983 23.0647 200.25 20.9603C196.233 15.9651 189.567 13.1032 181.936 13.1032C180.772 13.1032 179.593 13.1733 178.436 13.311C173.478 13.9 168.456 15.8148 163.914 18.8483C163.652 19.0222 163.393 19.2148 163.142 19.4011C163.097 19.435 163.051 19.4689 163.006 19.5027C165.791 20.5627 168.12 22.0222 169.932 23.8432C173.753 27.6834 174.542 32.3589 174.53 35.6047C174.544 39.6861 173.214 43.0801 172.068 44.7511L172.046 44.7835C172.042 44.7913 172.037 44.7996 172.032 44.8074C172.016 44.8329 172.001 44.8586 171.985 44.8806L171.936 44.9497C169.734 48.3459 166.845 50.8621 163.58 52.2278C161.819 52.9871 159.946 53.3884 158.165 53.3884C156.02 53.3884 154.074 52.8306 152.382 51.7299C146.844 48.2137 146.504 40.4353 148.532 34.6962C150.442 29.2015 154.593 23.8949 160.235 19.7265C156.997 18.8707 153.217 18.4373 148.993 18.4373C133.076 18.4373 122.569 23.2853 111.446 28.4175C98.5567 34.3657 85.231 40.5144 61.9271 40.5144C55.6698 40.5144 49.9774 39.5914 45.0073 37.7708C41.3968 36.4482 38.2305 34.6843 35.5943 32.5278C31.9874 34.537 24.7669 37.8618 16.3298 37.9835C16.1293 37.9891 15.9236 37.9922 15.7208 37.9922C14.5198 37.9922 13.2837 37.8921 11.9452 37.6875C8.07926 43.2353 5.36179 48.9991 3.86748 54.82C3.16822 57.619 2.52032 60.8588 3.6856 63.8661C4.3212 65.5019 5.53079 66.8401 7.00399 67.5371C8.03041 68.0323 9.26335 68.2726 10.775 68.2726C13.2992 68.2726 16.3092 67.4689 19.4806 65.9481C23.5198 63.9865 27.6339 60.8489 31.3773 56.8726L31.6168 56.5029C32.9534 54.4383 34.3354 52.3034 35.4493 50.5949L35.5019 50.5149L35.5961 50.529C35.7825 50.5583 35.9808 50.5725 36.186 50.5725C37.2087 50.5725 38.2615 50.2232 38.8684 49.6828L39.0768 49.8928C38.7693 50.2351 32.2908 60.2213 28.9084 65.4543L28.8585 65.5311L28.7676 65.5206C28.594 65.5014 28.4134 65.4918 28.2312 65.4918C27.1454 65.4918 26.0947 65.8272 25.4893 66.3674L25.2787 66.1595C25.5711 65.8171 27.6883 62.5665 30.006 58.9902C26.7291 62.1449 23.1871 64.706 19.6981 66.436C16.5182 68.0053 13.4332 68.8346 10.775 68.8346C9.21167 68.8346 7.93302 68.6062 6.7523 68.1169C4.88653 67.3696 3.21899 65.8881 2.4015 64.2506C1.04012 61.5247 0.709277 58.2113 1.41848 54.4032C2.42523 49.1382 4.83249 43.8315 9.21616 37.217C6.0316 36.3113 3.68741 35.0083 2.24608 33.3424C0.697358 31.5365 -0.0771075 29.2692 0.00605803 26.7855C0.0832373 24.4894 0.906715 22.1444 2.32561 20.1818C4.66023 16.9681 8.76564 14.4931 13.0402 13.7238C13.8562 13.5751 14.7026 13.5001 15.5553 13.5001C18.2079 13.5001 20.7377 14.2176 22.4947 15.4698C22.6036 15.5422 22.6562 15.6565 22.6254 15.7591C22.5994 15.8451 22.519 15.901 22.4217 15.901C22.37 15.901 22.3138 15.8854 22.254 15.8556L22.2335 15.8433C20.7072 14.7343 18.6723 14.1486 16.3495 14.1486C15.4498 14.1486 14.5175 14.2373 13.5784 14.4126C9.98806 15.106 6.48132 17.5412 4.19918 20.9261C1.35825 25.2716 1.08309 29.6179 3.4461 32.849C4.77407 34.6865 6.81809 35.9941 9.52279 36.7382C12.8958 31.905 17.0057 27.4404 21.7409 23.4656C25.5839 20.2194 30.1951 17.3233 34.0743 15.7189C34.763 15.4364 35.6679 15.0739 36.6128 14.7495C36.744 13.4241 37.0808 12.014 37.6127 10.5572C38.5682 7.93809 40.2371 5.71062 42.5722 3.93719C44.9004 2.16794 47.7596 0.970649 51.0695 0.377489C51.0928 0.373368 53.3247 0 55.1516 0C68.3282 0 71.8766 5.66304 72.8184 9.04797C72.8399 9.09502 72.8564 9.14122 72.8672 9.18479C73.0424 9.90091 73.1469 10.6123 73.1789 11.2996L73.1803 11.3256C73.1836 11.3971 73.1863 11.4699 73.1876 11.5422L73.1886 11.5838C73.2041 12.49 73.0908 13.3742 72.8527 14.2113C72.4086 15.7728 71.5882 17.1229 70.4157 18.2235C69.2449 19.3238 67.7949 20.1063 66.1046 20.549C65.3981 20.7306 64.6597 20.8226 63.9093 20.8226C63.4007 20.8226 62.8743 20.7805 62.3461 20.6973C61.0437 20.4904 59.7528 20.0968 58.5094 19.5269L58.2969 19.4299L58.7141 19.0766L58.8 19.116C59.883 19.614 61.0217 19.9251 62.1843 20.0392C62.5184 20.0721 62.857 20.0889 63.1914 20.0889C64.0199 20.0889 64.8625 19.9856 65.6947 19.7819C67.316 19.3834 68.714 18.6336 69.8495 17.554C70.9864 16.4758 71.7866 15.1719 72.2276 13.678C72.4446 12.9399 72.563 12.1824 72.5789 11.425V11.4149C72.5789 7.43641 70.1237 4.48143 65.2812 2.63236C60.6827 0.876865 55.7041 0.826012 55.1516 0.826012C53.5261 0.826012 51.3341 1.09698 51.3121 1.09971C48.2181 1.60904 45.5611 2.68268 43.4202 4.29044C41.2798 5.89835 39.7417 7.95276 38.8488 10.3972C38.3488 11.7665 38.0303 13.0918 37.9001 14.3407C39.6188 13.8455 41.2053 13.6049 42.7417 13.6049C43.0474 13.6049 43.3559 13.6145 43.6593 13.6333C45.075 13.7197 46.9271 14.4424 47.8717 15.862C48.6494 17.0534 48.8235 18.3389 48.4209 19.9087C47.9735 21.7485 46.5775 23.878 44.3803 26.0729C45.7553 26.9453 47.3471 27.7151 49.1142 28.3616C52.9975 29.7845 57.4976 30.5791 62.4905 30.7245C63.0146 30.7397 63.5452 30.7475 64.0684 30.7475C68.5339 30.7475 73.0501 30.1873 77.491 29.083C82.449 27.85 86.8569 25.9561 90.5922 23.4547L90.6694 23.4034L91.4133 23.8405L91.2187 23.9718C87.3541 26.5882 82.7826 28.5758 77.6317 29.8797C72.9728 31.0578 68.2328 31.655 63.5425 31.655C63.0571 31.655 62.565 31.649 62.0792 31.6363C56.8985 31.5013 52.2279 30.6838 48.196 29.2075C46.4404 28.564 44.8505 27.8029 43.4686 26.9443C41.7272 28.5416 39.6801 30.0651 37.3809 31.4737C36.9971 31.7145 36.5936 31.9571 36.18 32.1956C40.5885 35.6472 48.5986 39.6892 61.9271 39.6892C79.8648 39.6892 93.3263 33.9241 106.344 28.3484C118.996 22.9302 132.078 17.3279 148.993 17.3279C153.721 17.3279 157.879 17.8685 161.349 18.9344C162.021 18.4707 162.636 18.0716 163.226 17.7151C167.937 14.8574 173.17 13.0951 178.361 12.6185C179.391 12.5216 180.437 12.4726 181.472 12.4726C185.267 12.4726 188.947 13.134 192.113 14.3847C195.665 15.7884 198.535 17.8859 200.645 20.6203C202.536 18.7951 205.274 16.8258 208.005 15.3284C210.134 14.1719 212.552 13.4812 214.473 13.4812C214.658 13.4812 214.837 13.4881 215.007 13.5015C216.398 13.6058 218.895 14.0501 220.006 15.8556C220.052 15.9101 220.071 15.9833 220.06 16.0552C220.048 16.1325 220 16.1998 219.928 16.2428C219.884 16.2781 219.829 16.2982 219.771 16.2982C219.673 16.2982 219.586 16.2419 219.537 16.1481C218.861 14.9975 217.143 14.2016 214.939 14.0177C214.824 14.0094 214.701 14.0048 214.573 14.0048C212.784 14.0048 210.102 14.8185 208.196 15.9399C205.952 17.235 203.339 19.3649 201.348 21.5169C202.891 23.6807 204.036 26.1636 204.755 28.8986C205.453 31.5617 205.716 34.3337 205.536 37.1387C205.361 40.5932 204.581 44.0472 203.217 47.4022ZM38.4042 55.6498C38.2017 55.6036 37.9641 55.5797 37.7004 55.5797C37.4709 55.5797 37.2298 55.5985 37.0031 55.6338C36.5351 55.7056 36.2162 55.8822 36.1554 55.9687C36.1988 56.0035 36.3885 56.0681 36.7773 56.0681C36.9076 56.0681 37.0414 56.0598 37.136 56.0466L37.1443 56.0452C37.5706 56.0095 38.0473 55.821 38.4042 55.6498ZM137.022 56.2951C133.911 60.2333 130.385 64.6977 127.659 65.6991C127.406 65.8016 127.141 65.8551 126.874 65.8551C125.939 65.8551 124.992 65.1623 124.992 63.8383C124.992 62.6753 125.408 61.4905 125.943 60.3866C124.88 61.6511 123.797 62.7792 122.813 63.6414C121.143 65.0428 119.935 65.8533 118.694 65.8533C118.605 65.8533 118.515 65.8488 118.427 65.8396C117.398 65.7366 116.707 64.9321 116.707 63.8383C116.707 62.4593 117.271 61.0699 118.002 59.722C116.781 61.1778 115.402 62.7197 114.107 63.8543C113.104 64.7627 112.223 65.3494 111.416 65.6474C111.155 65.754 110.882 65.809 110.609 65.809C109.685 65.809 108.749 65.1298 108.749 63.8314C108.749 61.982 109.764 60.1143 110.833 58.3527C109.784 59.2374 108.859 59.63 108.088 59.5203C107.866 59.4982 107.548 59.4273 107.252 59.2255C105.122 62.4497 102.008 65.7298 100.094 65.8492C100.071 65.8506 100.045 65.8516 100.016 65.8516C99.854 65.8516 99.5286 65.825 99.3335 65.7554C98.5828 65.5787 98.0247 65.0543 97.8022 64.3156C97.6751 63.8927 97.6436 63.0524 97.6422 63.0172C97.6409 61.8863 97.9781 60.6388 98.6695 59.2232C97.2877 60.8969 95.7805 62.6081 94.3589 63.8543C93.3563 64.7627 92.4754 65.3494 91.6684 65.6474C91.407 65.754 91.1342 65.809 90.8614 65.809C89.9369 65.809 89.0015 65.1298 89.0015 63.8314C89.0015 61.9261 90.0786 60.0008 91.1821 58.1926C91.5006 57.6828 91.8466 57.1449 92.2432 56.5469C91.3092 57.344 90.3221 57.9656 89.3401 58.3706C88.5924 58.6914 87.7612 58.8759 87.0621 58.8759C86.6649 58.8759 86.3045 58.8187 85.9901 58.7055L84.9454 60.2507L81.5039 65.534L81.413 65.5233C81.2463 65.5041 81.0708 65.4941 80.8922 65.4941C79.8142 65.4941 78.732 65.8378 78.1352 66.37L77.9227 66.1641C78.5574 65.3998 79.6075 63.8932 80.6467 62.3788C81.0585 61.7691 81.467 61.1563 81.8678 60.5499C80.1423 62.5733 78.7577 63.9431 77.5919 64.7897C76.8246 65.3325 76.0071 65.8336 75.2134 65.8336C74.6253 65.8336 74.133 65.5961 73.7899 65.1485C73.2631 64.4598 73.2127 63.4611 73.396 62.7774C73.8049 61.0149 74.856 59.5097 75.8723 58.0543C75.965 57.9216 76.0578 57.7889 76.1497 57.6557C76.545 57.0694 76.9577 56.4768 77.3565 55.9038C78.1553 54.7569 78.982 53.5707 79.7145 52.3669C80.1253 51.6613 80.2679 51.1806 80.1358 50.9409C80.0678 50.816 79.9069 50.7482 79.6592 50.7387C79.6419 50.7381 79.6258 50.7377 79.6099 50.7377C78.6928 50.7377 76.8968 51.8919 75.1412 53.61C74.0783 54.674 71.3836 57.4878 69.344 60.6026C68.2433 62.3221 67.2159 63.8438 66.1289 65.4547L66.0786 65.5293L65.9862 65.5233C65.8199 65.5041 65.6444 65.4941 65.4654 65.4941C64.3878 65.4941 63.3053 65.8378 62.7084 66.37L62.4936 66.1669C63.4766 64.9257 65.0952 62.5247 66.1869 60.7947C66.8147 59.7953 67.5066 58.7789 68.176 57.7957C69.3422 56.0826 70.5482 54.3116 71.4689 52.5523C71.6422 52.2398 71.8899 51.464 71.7518 51.0841C71.7185 50.9916 71.6677 50.9349 71.5909 50.9052C71.4982 50.8672 71.3955 50.8484 71.2834 50.8484C69.3012 50.8484 64.5637 56.4598 60.791 61.7115C59.8963 62.9482 59.0957 64.1037 58.1945 65.4579L58.1443 65.5334L58.0542 65.5233C57.8874 65.5041 57.7133 65.4941 57.5361 65.4941C56.4672 65.4941 55.4263 65.83 54.8203 66.37L54.6064 66.1659C55.7283 64.7723 58.2233 61.0603 59.0051 59.8657C59.3428 59.3673 59.6751 58.8699 59.9891 58.3976C58.9632 59.2501 58.0565 59.6287 57.2984 59.5203C56.909 59.4813 56.55 59.2827 56.3233 59.0767C55.7301 59.9079 54.9825 60.8213 54.298 61.5495C53.1729 62.7709 51.8285 63.9065 50.6107 64.6629C49.3846 65.4492 48.3817 65.8354 47.4548 65.8771C45.9363 65.8771 44.9201 64.7357 44.9201 63.0369C44.9201 61.8117 45.1645 60.5756 45.6479 59.3499C43.445 62.0423 41.7559 63.7824 40.3723 64.7875C39.6056 65.3294 38.7821 65.8305 37.9504 65.8305C37.301 65.8305 36.6457 65.5146 36.2395 65.0067C35.8597 64.5307 35.7272 63.9284 35.8665 63.3106C36.2371 61.6397 37.2065 60.236 38.1442 58.879C38.332 58.6076 38.5262 58.3257 38.708 58.053C38.9027 57.7509 39.4995 56.8291 39.3428 56.274C39.2999 56.1234 39.2048 56.0067 39.0526 55.9193C38.4795 56.2177 37.8325 56.4291 37.222 56.5161C37.153 56.5253 36.9744 56.5445 36.7549 56.5445C35.9206 56.5445 35.6912 56.2736 35.6458 56.0457L35.6446 56.0374C35.6276 55.9221 35.6646 55.8017 35.7501 55.6883C35.9544 55.4173 36.441 55.1889 36.961 55.1194C37.2065 55.0782 37.4532 55.0571 37.6895 55.0571C38.1743 55.0571 38.6244 55.1468 38.9978 55.318C39.9108 54.7363 40.7438 53.8868 41.4558 53.1335L41.5591 53.0297C42.399 52.1862 44.3657 50.2118 45.8618 50.2118C46.0633 50.2118 46.2521 50.2475 46.4235 50.3175C46.7337 50.4644 46.928 50.6983 46.9911 50.9981C47.082 51.432 46.8905 51.9743 46.4788 52.4498L46.4714 52.4576C46.0601 52.8704 45.5397 53.1271 45.1137 53.1271C44.9096 53.1271 44.7326 53.0676 44.6016 52.9555C44.4402 52.8398 44.3493 52.6594 44.3384 52.4339C44.3219 52.0997 44.4886 51.6865 44.7661 51.3345C43.7886 51.5688 43.0825 52.2796 42.3395 53.027C42.1788 53.1894 42.0123 53.3569 41.8424 53.5193C41.7766 53.5857 41.7071 53.6558 41.6359 53.7277C41.0243 54.344 40.2736 55.1006 39.4885 55.6278C40.5249 56.4379 41.0303 57.6732 40.7827 58.8283C40.5322 60.0003 39.7869 61.0571 39.0658 62.079C38.6294 62.6983 38.2168 63.2831 37.9518 63.8475C37.6561 64.4406 37.5657 64.8519 37.6808 65.0739C37.736 65.1811 37.8457 65.2452 38.0162 65.2707C38.0518 65.2767 38.0883 65.2794 38.1277 65.2794C38.5701 65.2794 39.3308 64.9234 40.0648 64.3719C42.239 62.7604 44.8753 59.5389 46.9298 56.9106C48.3679 54.6804 50.1327 52.7889 52.0337 51.4403C53.1249 50.6759 54.9464 49.7835 56.4932 49.7835C57.2308 49.7835 57.8107 49.9898 58.2173 50.3967C58.5807 50.762 58.7895 51.3953 58.7895 52.1353C58.7895 52.3408 58.6743 52.4328 58.5606 52.4328C58.4404 52.4328 58.3165 52.3216 58.3165 52.1353C58.3165 51.6682 58.2366 51.0575 57.8541 50.8022C57.6343 50.6534 57.3716 50.5784 57.0717 50.5784C55.6474 50.5784 53.6591 52.2284 52.6702 53.3372C51.0841 55.0323 49.7077 57.1217 49.0277 58.2159C48.3345 59.3014 47.1012 61.7252 46.6648 63.2108C46.4842 63.8415 46.4043 64.6662 46.7192 65.0853C46.8667 65.2812 47.0887 65.3705 47.3986 65.36C48.1765 65.3596 49.3152 64.907 50.4507 64.1495C51.8125 63.2236 53.0043 62.1924 53.9918 61.0845C54.8317 60.1371 55.4408 59.3852 55.9536 58.6598C55.504 57.8475 55.3613 56.4694 56.2665 54.9285C56.9927 53.7167 57.7988 53.1742 58.2758 53.1742C58.3782 53.1742 58.4678 53.1981 58.5432 53.2452C58.9865 53.528 58.8896 54.3683 58.2475 55.8145C57.8893 56.6535 57.345 57.4662 56.8652 58.1839C56.8186 58.2529 56.7725 58.3221 56.7271 58.3903C56.788 58.6282 57.0453 58.9688 57.5502 59.0049C57.5748 59.0066 57.6014 59.0077 57.6279 59.0077C58.5638 59.0072 59.8683 58.0268 61.5066 56.0937C62.288 54.9033 62.9945 53.8301 63.7216 52.7578L65.182 50.5176L65.2761 50.5322C65.4626 50.561 65.6599 50.5757 65.8629 50.5757C66.8531 50.5757 67.9088 50.2247 68.5517 49.6828L69.5277 48.8604L68.766 49.8846C67.0007 52.2594 65.7071 54.2026 64.5687 55.919C67.2306 52.7294 69.775 50.2531 71.6453 50.2531C71.7254 50.2531 71.8044 50.2571 71.8812 50.2663C72.3949 50.3326 72.8088 50.583 73.0811 50.9903C73.535 51.6695 73.5075 52.6169 73.3298 53.2769C73.0487 54.2745 72.673 55.129 72.2216 55.9678C73.0867 54.9344 73.9361 54.0141 74.7582 53.2196C75.4784 52.5207 77.9634 50.2342 79.7041 50.178C79.7273 50.1771 79.7493 50.1771 79.7717 50.1771C80.3565 50.1771 80.8423 50.4005 81.1754 50.8241C81.7019 51.4928 81.7178 52.4425 81.5712 53.0525C81.1288 54.825 79.9521 56.4726 78.8143 58.0658C78.5689 58.409 78.3372 58.7334 78.1119 59.0602L77.8108 59.4923C76.8886 60.8145 75.8435 62.3129 75.2116 63.4611C74.9703 63.8846 74.6696 64.6923 74.8871 65.0685C74.9666 65.2057 75.1165 65.2721 75.3459 65.2721C75.8011 65.2721 76.5079 64.9444 77.2858 64.3738C78.9513 63.1394 81.0173 60.9037 83.9762 57.134C82.997 55.9994 83.1336 54.9583 83.7181 54.4173C83.9296 54.2246 84.1988 54.1235 84.4967 54.1235C84.9268 54.1235 85.3623 54.3404 85.688 54.7115C86.1724 53.9734 86.5755 53.3629 86.9479 52.8031L88.4536 50.5176L88.5478 50.5322C88.7336 50.561 88.9311 50.5757 89.1335 50.5757C90.1238 50.5757 91.1793 50.225 91.8228 49.6828L92.0316 49.8915C90.6868 51.4988 87.404 56.578 87.3711 56.6292L86.8862 57.3797L86.5467 57.8827C86.8031 58.1052 87.1453 58.2178 87.5643 58.2178C88.2703 58.2178 88.9064 57.9774 89.2222 57.8338C91.1524 56.951 92.3748 55.9487 94.0637 53.8635L94.177 53.6983C94.975 52.5403 95.7281 51.4466 96.2508 50.6004L96.302 50.5176L96.3993 50.5322C96.5854 50.561 96.7813 50.5757 96.9815 50.5757C97.969 50.5757 98.9661 50.2348 99.5834 49.6851L99.7978 49.8883C99.0799 50.799 97.8991 52.4365 97.0304 53.8035C96.4413 54.7198 95.8008 55.6608 95.1814 56.5706C94.019 58.279 92.8167 60.0452 91.7898 61.8735L91.7808 61.8895C90.46 64.1581 90.583 64.8648 90.6972 65.0639C90.7639 65.1811 90.8915 65.2378 91.0861 65.2378C91.1904 65.2378 91.3128 65.2209 91.4509 65.1879C92.071 65.0323 93.0356 64.4011 94.0299 63.5C95.9543 61.7779 98.1028 59.1051 100.181 56.5212L100.613 55.9843C100.85 55.6351 101.095 55.2828 101.332 54.9413C101.445 54.7793 101.557 54.6182 101.669 54.4562L102.121 53.7853C102.929 52.588 103.692 51.4576 104.221 50.6004L104.273 50.5176L104.37 50.5322C104.556 50.561 104.752 50.5757 104.952 50.5757C105.94 50.5757 106.937 50.2348 107.554 49.6851L107.769 49.8883C107.051 50.799 105.87 52.437 105.001 53.8035C104.859 54.0237 103.49 56.0768 102.944 56.8791C102.486 57.5655 101.946 58.3829 101.42 59.2315C100.085 61.3944 99.3413 63.0209 99.2092 64.0647C99.19 64.2991 99.2056 64.9738 99.5109 65.2057C99.6214 65.2926 99.764 65.3408 99.9363 65.3494L99.9802 65.349C101.736 65.349 104.835 62.0351 106.893 58.8822C106.858 58.841 106.822 58.7957 106.791 58.7418C106.316 57.924 106.137 56.4927 107.056 54.9285C107.783 53.7161 108.589 53.1738 109.065 53.1738C109.168 53.1738 109.258 53.1976 109.333 53.2457C109.513 53.3592 109.6 53.5633 109.6 53.8695C109.6 54.036 109.581 54.2095 109.542 54.3848C109.362 55.437 108.679 56.9513 107.618 58.6488C107.708 58.7906 107.908 58.9737 108.34 59.0049C108.365 59.0066 108.391 59.0077 108.418 59.0077C109.35 59.0077 110.648 58.0351 112.277 56.1161C112.833 55.2855 113.386 54.4818 113.921 53.7047C114.72 52.5445 115.474 51.4484 115.998 50.6004L116.05 50.5176L116.147 50.5322C116.333 50.561 116.529 50.5757 116.729 50.5757C117.717 50.5757 118.714 50.2348 119.331 49.6851L119.545 49.8883C118.827 50.7995 117.646 52.437 116.778 53.8035C116.189 54.7189 115.55 55.659 114.931 56.5683C113.768 58.2772 112.565 60.0443 111.537 61.8735L111.529 61.8887C110.208 64.1578 110.331 64.8648 110.444 65.0639C110.511 65.1811 110.638 65.2378 110.834 65.2378C110.938 65.2378 111.06 65.2209 111.198 65.1879C111.818 65.0323 112.783 64.4011 113.777 63.5C115.701 61.7784 117.849 59.107 119.926 56.5239L120.36 55.9838C120.737 55.4269 121.111 54.8763 121.475 54.3427C122.436 52.9321 123.343 51.5999 123.956 50.6081L124.008 50.5245L124.105 50.5395C124.291 50.5679 124.487 50.5826 124.687 50.5826C125.675 50.5826 126.672 50.2415 127.289 49.6924L127.503 49.8951C126.786 50.8064 125.604 52.4438 124.736 53.811C124.147 54.7262 123.508 55.6662 122.889 56.5751C121.726 58.2846 120.523 60.052 119.496 61.8808L119.492 61.8878C119.09 62.5201 118.083 64.463 118.391 65.1261C118.443 65.2405 118.535 65.3028 118.678 65.3234C118.72 65.327 118.761 65.3288 118.804 65.3288C119.681 65.3288 120.919 64.6269 122.486 63.242C124.656 61.3143 127.192 58.0851 128.629 55.901C129.037 55.2978 129.486 54.6457 129.962 53.956C130.66 52.9422 131.452 51.794 132.244 50.6036L132.297 50.5249L132.39 50.5395C132.577 50.5679 132.772 50.5826 132.972 50.5826C133.96 50.5826 134.957 50.2415 135.574 49.6924L135.789 49.8951C135.073 50.8032 133.893 52.4393 133.021 53.811C132.433 54.7249 131.794 55.664 131.176 56.572C130.012 58.2822 128.809 60.0506 127.782 61.8808C126.865 63.452 126.447 64.6895 126.689 65.1119C126.757 65.2305 126.885 65.2881 127.08 65.2881C127.182 65.2881 127.301 65.2721 127.434 65.241C129.902 64.3829 133.375 60.0338 136.44 56.1958L136.611 55.9816C136.662 55.9088 136.738 55.8672 136.821 55.8672C136.915 55.8672 137.002 55.9202 137.048 56.0058C137.094 56.0933 137.088 56.1976 137.03 56.285L137.022 56.2951ZM208.171 51.4783C210.18 49.2937 212.397 47.1144 214.552 44.9949C216.827 42.7588 219.179 40.4467 221.285 38.1323C223.329 35.8957 225.164 33.6871 226.739 31.5677C229.217 28.1896 230.458 25.197 229.979 23.7585C229.819 23.2936 229.501 23.0575 229.035 23.0575C228.522 23.0575 227.858 23.3388 227.213 23.8299C225.959 24.8061 224.764 26.2826 223.76 27.5974C219.728 33.0303 216.008 38.9896 212.409 44.752C211.02 46.9766 209.594 49.2622 208.171 51.4783ZM247.65 56.2845C244.999 59.7229 242.233 63.1321 239.951 64.7897C239.236 65.2955 238.398 65.8336 237.485 65.8336C236.939 65.8336 236.516 65.6406 236.227 65.2597C235.744 64.6204 235.79 63.6177 235.976 62.9527C236.541 60.9711 238.101 58.8277 239.608 56.7555C240.005 56.2104 240.415 55.6476 240.8 55.0955C240.833 55.0461 240.882 54.976 240.94 54.8906C241.436 54.1725 242.946 51.9862 242.564 51.0993C242.479 50.902 242.296 50.7834 242.007 50.7381C240.171 50.6269 235.449 54.88 231.569 60.1206L211.557 90.4715L211.465 90.4595C211.37 90.4476 211.27 90.4416 211.169 90.4416C210.556 90.4416 209.92 90.6558 209.508 91L209.3 90.7896C209.648 90.3831 210.165 89.6069 210.665 88.8554C210.914 88.481 211.172 88.0939 211.406 87.7561L232.718 55.4169C232.428 55.8036 232.195 56.1065 232.048 56.2892C232.038 56.3015 232.025 56.3166 232.01 56.3312C230.26 58.4589 228.772 59.5386 227.586 59.5386C227.497 59.5386 227.41 59.5321 227.326 59.5203C226.936 59.4813 226.577 59.2827 226.35 59.0767C225.757 59.9074 225.01 60.821 224.325 61.5495C223.199 62.7715 221.855 63.9069 220.638 64.6629C219.411 65.4492 218.408 65.8354 217.482 65.8771C215.963 65.8771 214.947 64.7357 214.947 63.0369C214.947 61.2611 215.459 59.4699 216.47 57.7047C215.859 58.0959 215.229 58.3248 214.62 58.3742C214.569 58.377 214.523 58.3784 214.477 58.3784C213.714 58.3784 213.106 58.0306 212.773 57.4145C211.501 59.1665 210.037 60.8951 208.631 62.3029C206.946 63.9476 204.772 65.8336 202.885 65.8336C202.028 65.8336 201.403 65.5311 201.027 64.9352C199.64 62.7349 202.202 57.2895 202.311 57.0585C204.341 52.7071 206.117 49.9895 208.576 46.2279C208.792 45.8984 209.013 45.5606 209.239 45.2128C213.642 38.4783 217.663 32.4637 222.296 27.0578C223.521 25.661 225.012 24.0995 226.786 23.0971C227.312 22.8006 228.1 22.4479 228.869 22.4479C229.67 22.4479 230.227 22.8377 230.481 23.5755C230.748 24.337 230.962 26.673 227.154 31.8765C225.519 34.1338 223.626 36.428 221.678 38.5108C219.474 40.9181 217.074 43.2773 214.755 45.5588C211.948 48.3185 209.046 51.172 206.534 54.0736C205.529 55.9257 204.281 58.2274 203.373 60.3156C203.356 60.3606 203.327 60.4301 203.29 60.517C202.291 62.9005 201.991 64.4185 202.395 65.0286C202.524 65.2218 202.727 65.3156 203.018 65.3156C204.22 65.3156 205.993 64.1719 208.29 61.9161C209.372 60.8324 210.988 59.0717 212.554 56.8269C212.317 55.7372 212.415 54.5417 212.838 53.3647C213.4 51.9564 214.131 50.9532 215.012 50.3775C215.214 50.243 215.428 50.1716 215.632 50.1716C215.858 50.1716 216.043 50.2618 216.141 50.4191C216.351 50.7126 216.194 51.3441 216.116 51.6041C215.689 52.9738 214.463 55.0497 213.429 56.5143C213.398 56.8827 213.514 57.2515 213.743 57.507C213.962 57.7518 214.256 57.8749 214.601 57.8571C215.539 57.7784 216.566 57.1619 217.49 56.1207C218.82 54.2365 220.399 52.6187 222.061 51.4403C223.151 50.6759 224.973 49.7835 226.52 49.7835C227.258 49.7835 227.838 49.9898 228.244 50.3967C228.607 50.762 228.816 51.3959 228.816 52.1353C228.816 52.3408 228.701 52.4328 228.587 52.4328C228.468 52.4328 228.343 52.3216 228.343 52.1353C228.343 51.6682 228.263 51.0575 227.88 50.8022C227.661 50.6534 227.398 50.5784 227.098 50.5784C225.673 50.5784 223.686 52.2284 222.698 53.3372C221.111 55.0314 219.734 57.1212 219.055 58.2159C218.361 59.3014 217.128 61.7257 216.692 63.2108C216.511 63.8415 216.431 64.6662 216.746 65.085C216.894 65.2812 217.115 65.3705 217.425 65.36C218.203 65.3596 219.342 64.907 220.477 64.1495C221.839 63.2236 223.031 62.1924 224.018 61.0845C224.589 60.4411 225.324 59.5884 225.98 58.6598C225.531 57.8475 225.388 56.4699 226.293 54.9285C227.019 53.7167 227.826 53.1742 228.302 53.1742C228.405 53.1742 228.495 53.1981 228.57 53.2452C229.013 53.5276 228.916 54.3679 228.275 55.8145C227.915 56.6557 227.37 57.4704 226.888 58.1894C226.843 58.2571 226.798 58.3234 226.754 58.3903C226.814 58.6351 227.068 58.9688 227.577 59.0049C227.602 59.0066 227.628 59.0077 227.654 59.0077C228.607 59.0077 229.949 57.9843 231.639 55.9678L231.656 55.95C232.721 54.6434 238.126 47.0874 239.125 45.6082L239.175 45.5332L239.264 45.5437C239.382 45.5579 239.504 45.5647 239.626 45.5647C240.299 45.5647 240.927 45.3565 241.306 45.0087L241.523 45.2086C240.908 46.0009 239.583 47.9043 238.93 48.9061L234.257 56.0136C236.962 52.9578 240.045 50.2219 241.935 50.2219C242.464 50.2219 242.916 50.4155 243.241 50.7816C243.651 51.2425 243.844 51.9693 243.757 52.7262L243.756 52.7372C243.565 53.7286 243.081 54.7702 242.234 56.0149C241.708 56.8246 241.054 57.7317 240.359 58.6918C238.803 60.8461 237.193 63.0735 236.924 64.3903C236.849 64.718 236.875 64.9801 236.997 65.1325C237.093 65.2543 237.257 65.3156 237.485 65.3156C238.069 65.3156 238.835 64.9815 239.643 64.3747C241.956 62.6603 244.917 58.9838 247.239 55.9724C247.306 55.8819 247.396 55.8315 247.489 55.8315C247.58 55.8315 247.661 55.8813 247.701 55.961C247.749 56.0575 247.73 56.1788 247.65 56.2845ZM129.721 46.0275L129.724 46.0366C129.801 46.2929 130.023 46.4403 130.333 46.4403C130.567 46.4403 130.817 46.3537 130.943 46.2274C133.039 43.9848 136.091 42.2554 138.069 41.4545C138.199 41.4087 138.281 41.2962 138.263 41.1849C138.248 41.0911 138.166 41.0257 138.065 41.0257C138.036 41.0257 138.004 41.0311 137.974 41.0413C136.018 41.6462 133.147 42.6266 130.679 44.1721C129.545 43.0453 128.586 42.2792 127.395 41.5473C127.362 41.5222 127.321 41.5084 127.276 41.5084C127.176 41.5084 127.08 41.5721 127.042 41.6632C127.023 41.7081 126.993 41.8265 127.117 41.9502L127.134 41.9648C128.415 42.9053 129.334 44.3483 129.721 46.0275ZM17.7963 86.0143V86.5658H46.1941L48.4835 87.9315V84.6298L46.163 86.0143H17.7963ZM79.3224 82.1036L79.1319 82.2948C79.1159 82.3113 79.1068 82.3324 79.1068 82.3553V82.6467C79.1068 82.6692 79.1159 82.6911 79.1319 82.7072L79.3224 82.8977C79.3384 82.9136 79.3599 82.9223 79.3823 82.9223H80.1761C80.2231 82.9223 80.261 82.9603 80.261 83.0074V86.3828C80.261 86.4046 80.2698 86.4257 80.2848 86.4413L80.4644 86.6308C80.4803 86.6477 80.5028 86.6578 80.5261 86.6578H80.8158C80.8387 86.6578 80.8602 86.6486 80.8761 86.6326L81.0666 86.4417C81.0827 86.4257 81.0914 86.4042 81.0914 86.3813V83.0074C81.0914 82.9603 81.1297 82.9223 81.1763 82.9223H81.971C81.9935 82.9223 82.0153 82.9136 82.0314 82.8977L82.2214 82.7072C82.2375 82.6911 82.2465 82.6697 82.2465 82.6467V82.3566C82.2465 82.3328 82.237 82.3109 82.2201 82.2944L82.0309 82.1145C82.015 82.0999 81.9944 82.0912 81.9724 82.0912L79.3828 82.0793C79.3599 82.0788 79.3384 82.0875 79.3224 82.1036ZM171.868 85.8454L171.694 86.0281C171.663 86.061 171.645 86.1054 171.645 86.1516V86.4385C171.645 86.4865 171.664 86.5314 171.697 86.5653L171.868 86.7369C171.902 86.7713 171.948 86.79 171.995 86.79H173.028C173.128 86.79 173.208 86.8705 173.207 86.9703L173.196 88.8925C173.196 88.9818 173.16 89.0663 173.098 89.1295L172.814 89.4143C172.751 89.4773 172.665 89.5132 172.575 89.5132H171.11C171.021 89.5132 170.935 89.4773 170.872 89.4143L170.589 89.13C170.525 89.0669 170.49 88.9812 170.49 88.8911V83.7008C170.49 83.6111 170.525 83.5256 170.588 83.4623L170.872 83.1777C170.935 83.1146 171.021 83.0789 171.11 83.0789H172.575C172.665 83.0789 172.751 83.1146 172.814 83.1781L173.097 83.4623C173.16 83.5256 173.195 83.6111 173.195 83.7008V84.5108C173.195 84.5585 173.215 84.6038 173.249 84.6381L173.421 84.8101C173.454 84.844 173.499 84.8628 173.547 84.8628H173.844C173.892 84.8628 173.937 84.8436 173.971 84.8101L174.142 84.6381C174.176 84.6038 174.195 84.5585 174.195 84.5108V83.3264C174.195 83.2069 174.146 83.0921 174.062 83.0079L173.254 82.2084C173.171 82.1251 173.058 82.0788 172.94 82.0788H170.746C170.628 82.0788 170.515 82.1251 170.431 82.2084L169.624 83.0079C169.539 83.0921 169.491 83.2069 169.491 83.3264V89.255C169.491 89.3739 169.538 89.488 169.622 89.5722L170.431 90.3817C170.515 90.4659 170.628 90.5126 170.747 90.5126H172.939C173.058 90.5126 173.171 90.4659 173.255 90.3817L174.064 89.5713C174.147 89.4875 174.195 89.3745 174.195 89.2559L174.206 86.1521C174.207 86.1057 174.189 86.061 174.157 86.0275L173.983 85.8454C173.95 85.8101 173.903 85.79 173.854 85.79H171.997C171.949 85.79 171.902 85.8101 171.868 85.8454ZM164.188 83.4504L163.904 83.1662C163.841 83.103 163.755 83.0674 163.666 83.0674H162.201C162.112 83.0674 162.026 83.103 161.962 83.1667L161.679 83.4504C161.616 83.5131 161.58 83.5992 161.58 83.6889V85.1684C161.58 85.2582 161.616 85.3437 161.679 85.4069L161.962 85.6912C162.026 85.7543 162.112 85.79 162.201 85.79H163.666C163.755 85.79 163.841 85.7543 163.904 85.6912L164.188 85.4069C164.251 85.3437 164.287 85.2582 164.287 85.1684V83.6889C164.287 83.5992 164.251 83.5131 164.188 83.4504ZM164.346 82.1982L165.154 83.0079C165.238 83.0921 165.285 83.2065 165.285 83.3246V85.5323C165.285 85.6509 165.238 85.7648 165.154 85.8495L164.846 86.1584C164.776 86.228 164.776 86.34 164.844 86.4106L165.158 86.7318C165.239 86.8151 165.285 86.9277 165.285 87.0449V90.162C165.285 90.2092 165.267 90.255 165.233 90.2884L165.062 90.4605C165.028 90.4939 164.982 90.5126 164.935 90.5126H164.638C164.59 90.5126 164.545 90.4939 164.511 90.4605L164.34 90.2884C164.306 90.255 164.287 90.2091 164.287 90.1616V87.4124C164.287 87.3232 164.251 87.2371 164.188 87.174L163.904 86.8888C163.841 86.8257 163.755 86.79 163.666 86.79H162.201C162.112 86.79 162.026 86.8257 161.962 86.8888L161.679 87.174C161.616 87.2371 161.58 87.3232 161.58 87.412V90.1616C161.58 90.2091 161.561 90.255 161.528 90.2884L161.355 90.4605C161.322 90.4939 161.276 90.5126 161.229 90.5126H160.932C160.885 90.5126 160.839 90.4939 160.806 90.4605L160.634 90.2884C160.601 90.255 160.582 90.2092 160.582 90.162V82.4275C160.582 82.3819 160.6 82.3369 160.632 82.304L160.805 82.1222C160.839 82.0871 160.886 82.067 160.934 82.067H164.029C164.148 82.067 164.262 82.1145 164.346 82.1982ZM155.601 82.1434L155.43 82.3154C155.395 82.3493 155.377 82.3951 155.377 82.4427V88.8911C155.377 88.9812 155.341 89.0669 155.278 89.13L154.994 89.4143C154.931 89.4773 154.846 89.5132 154.756 89.5132H153.291C153.202 89.5132 153.116 89.4773 153.053 89.4143L152.769 89.13C152.706 89.0669 152.67 88.9812 152.67 88.8911V82.4427C152.67 82.3945 152.651 82.3498 152.618 82.3154L152.446 82.1438C152.413 82.1099 152.367 82.0912 152.32 82.0912H152.022C151.975 82.0912 151.929 82.1099 151.896 82.1438L151.724 82.3154C151.691 82.3498 151.672 82.3951 151.672 82.4427V89.266C151.672 89.3859 151.719 89.5007 151.805 89.5849L152.611 90.3835C152.696 90.4664 152.808 90.5126 152.926 90.5126H155.121C155.239 90.5126 155.352 90.4664 155.436 90.3835L156.242 89.5849C156.327 89.5007 156.376 89.3859 156.376 89.266V82.445C156.376 82.396 156.355 82.3493 156.32 82.315L156.139 82.141C156.106 82.109 156.061 82.0912 156.015 82.0912H155.728C155.68 82.0912 155.635 82.1099 155.601 82.1434ZM146.368 83.4504L146.085 83.1662C146.022 83.103 145.936 83.0674 145.847 83.0674H144.381C144.291 83.0674 144.206 83.103 144.143 83.1662L143.859 83.4504C143.796 83.5131 143.76 83.5992 143.76 83.6889V85.1684C143.76 85.2582 143.796 85.3437 143.859 85.4069L144.143 85.6912C144.206 85.7543 144.291 85.79 144.381 85.79H145.847C145.936 85.79 146.022 85.7543 146.085 85.6912L146.369 85.4069C146.432 85.3437 146.467 85.2582 146.467 85.1684V83.6889C146.467 83.5992 146.432 83.5131 146.368 83.4504ZM146.369 87.174L146.085 86.8888C146.022 86.8257 145.936 86.79 145.846 86.79H144.381C144.292 86.79 144.206 86.8257 144.143 86.8888L143.859 87.174C143.796 87.2371 143.76 87.3232 143.76 87.4124V88.8911C143.76 88.9812 143.796 89.0669 143.859 89.13L144.143 89.4143C144.206 89.4773 144.291 89.5132 144.381 89.5132H145.847C145.936 89.5132 146.022 89.4773 146.085 89.4143L146.369 89.13C146.432 89.0669 146.467 88.9812 146.467 88.8911V87.4124C146.467 87.3232 146.432 87.2371 146.369 87.174ZM146.526 82.1982L147.335 83.0079C147.418 83.0921 147.465 83.2065 147.465 83.325V85.5351C147.465 85.6522 147.42 85.7648 147.337 85.8486L147.025 86.1699C146.956 86.2403 146.956 86.3525 147.026 86.4221L147.334 86.7309C147.418 86.8147 147.465 86.9292 147.465 87.0481V89.255C147.465 89.3739 147.418 89.488 147.335 89.5722L146.526 90.3817C146.442 90.4659 146.328 90.5126 146.21 90.5126H143.112C143.065 90.5126 143.019 90.4939 142.986 90.4605L142.814 90.2884C142.781 90.255 142.762 90.2092 142.762 90.162V82.4184C142.762 82.3704 142.781 82.325 142.814 82.2917L142.986 82.1195C143.019 82.0857 143.065 82.067 143.112 82.067H146.21C146.328 82.067 146.442 82.1145 146.526 82.1982ZM134.792 82.2102L133.984 83.0197C133.899 83.104 133.853 83.2179 133.853 83.3369V85.5447C133.853 85.6636 133.899 85.7777 133.984 85.8613L134.792 86.671C134.876 86.7548 134.99 86.8019 135.109 86.8019H136.937C137.026 86.8019 137.112 86.8376 137.175 86.9008L137.459 87.1854C137.522 87.2491 137.558 87.3346 137.558 87.4238V88.8911C137.558 88.9812 137.522 89.0669 137.459 89.13L137.175 89.4143C137.112 89.4773 137.026 89.5132 136.937 89.5132H135.472C135.382 89.5132 135.297 89.4773 135.233 89.4143L134.95 89.13C134.887 89.0669 134.851 88.9812 134.851 88.8911V88.563C134.851 88.5154 134.832 88.4701 134.799 88.4357L134.627 88.2637C134.593 88.2302 134.547 88.2115 134.5 88.2115H134.203C134.156 88.2115 134.11 88.2302 134.077 88.2637L133.905 88.4357C133.872 88.4701 133.853 88.5154 133.853 88.563V89.255C133.853 89.3739 133.899 89.488 133.984 89.5722L134.792 90.3817C134.876 90.4659 134.99 90.5126 135.109 90.5126H137.3C137.418 90.5126 137.532 90.4659 137.616 90.3817L138.425 89.5722C138.509 89.488 138.556 89.3739 138.556 89.255V87.0496C138.556 86.9296 138.508 86.8147 138.423 86.7309L137.616 85.9319C137.532 85.849 137.419 85.8023 137.302 85.8023H135.472C135.382 85.8023 135.297 85.7666 135.233 85.7035L134.95 85.4189C134.887 85.3556 134.851 85.2697 134.851 85.1804V83.7008C134.851 83.6111 134.887 83.5256 134.95 83.4623L135.233 83.1777C135.297 83.1146 135.382 83.0789 135.472 83.0789H136.937C137.026 83.0789 137.112 83.1146 137.175 83.1777L137.459 83.4623C137.522 83.5256 137.558 83.6111 137.558 83.7012V84.0304C137.558 84.077 137.575 84.1214 137.608 84.1548L137.782 84.3369C137.816 84.3722 137.862 84.3919 137.911 84.3919H138.194C138.241 84.3919 138.287 84.3731 138.32 84.3398L138.503 84.1552C138.537 84.1218 138.556 84.0761 138.556 84.0285V83.3369C138.556 83.2179 138.509 83.104 138.425 83.0197L137.616 82.2102C137.532 82.126 137.418 82.0788 137.3 82.0788H135.109C134.99 82.0788 134.876 82.126 134.792 82.2102ZM128.549 83.4504L128.266 83.1662C128.202 83.103 128.117 83.0674 128.028 83.0674H126.562C126.472 83.0674 126.387 83.103 126.323 83.1667L126.04 83.4504C125.977 83.5131 125.941 83.5992 125.941 83.6889V85.1684C125.941 85.2582 125.977 85.3437 126.04 85.4069L126.323 85.6912C126.387 85.7543 126.472 85.79 126.562 85.79H128.028C128.117 85.79 128.202 85.7543 128.266 85.6912L128.549 85.4069C128.613 85.3437 128.648 85.2582 128.648 85.1684V83.6889C128.648 83.5992 128.613 83.5131 128.549 83.4504ZM128.707 82.1982L129.515 83.0079C129.599 83.0921 129.646 83.2065 129.646 83.3246V85.5323C129.646 85.6509 129.599 85.7648 129.515 85.8495L129.207 86.1584C129.137 86.228 129.137 86.34 129.206 86.4106L129.519 86.7318C129.6 86.8151 129.646 86.9277 129.646 87.0449V90.162C129.646 90.2092 129.628 90.255 129.594 90.2884L129.423 90.4605C129.389 90.4939 129.344 90.5126 129.296 90.5126H128.999C128.951 90.5126 128.906 90.4939 128.872 90.4605L128.701 90.2884C128.667 90.255 128.648 90.2092 128.648 90.162V87.4124C128.648 87.3232 128.613 87.2371 128.55 87.174L128.266 86.8888C128.202 86.8257 128.117 86.79 128.027 86.79H126.562C126.472 86.79 126.387 86.8257 126.323 86.8888L126.04 87.174C125.977 87.2371 125.941 87.3232 125.941 87.412V90.1616C125.941 90.2091 125.923 90.255 125.889 90.2884L125.717 90.4605C125.684 90.4939 125.638 90.5126 125.591 90.5126H125.293C125.246 90.5126 125.2 90.4939 125.167 90.4605L124.995 90.2884C124.962 90.255 124.943 90.2092 124.943 90.162V82.4275C124.943 82.3819 124.961 82.3369 124.992 82.304L125.166 82.1219C125.2 82.0871 125.247 82.067 125.295 82.067H128.391C128.509 82.067 128.623 82.1145 128.707 82.1982ZM116.257 82.1195L116.086 82.2917C116.052 82.325 116.033 82.3704 116.033 82.4184V90.1616C116.033 90.2091 116.052 90.255 116.086 90.2884L116.257 90.4605C116.291 90.4939 116.336 90.5126 116.384 90.5126H120.386C120.434 90.5126 120.48 90.4939 120.513 90.4605L120.684 90.2884C120.718 90.255 120.737 90.2092 120.737 90.162V89.8637C120.737 89.8165 120.718 89.7708 120.684 89.7369L120.513 89.5657C120.48 89.5318 120.434 89.5132 120.386 89.5132H117.652C117.563 89.5132 117.477 89.4773 117.414 89.4143L117.131 89.13C117.067 89.0669 117.032 88.9812 117.032 88.8911V87.4124C117.032 87.3232 117.067 87.2371 117.13 87.174L117.414 86.8888C117.477 86.8257 117.563 86.79 117.653 86.79H118.656C118.703 86.79 118.747 86.7722 118.78 86.7402L118.962 86.5658C118.997 86.5319 119.017 86.4852 119.017 86.4362V86.1437C119.017 86.0949 118.997 86.0486 118.962 86.0143L118.78 85.84C118.747 85.8079 118.703 85.79 118.656 85.79H117.652C117.563 85.79 117.477 85.7543 117.414 85.6912L117.131 85.4069C117.067 85.3437 117.032 85.2582 117.032 85.1684V83.6889C117.032 83.5992 117.068 83.5131 117.131 83.4504L117.414 83.1662C117.477 83.103 117.563 83.0674 117.652 83.0674H120.386C120.434 83.0674 120.48 83.0487 120.513 83.0148L120.685 82.8426C120.718 82.8084 120.737 82.7635 120.737 82.7153V82.4184C120.737 82.3704 120.718 82.325 120.684 82.2917L120.513 82.12C120.48 82.0857 120.434 82.067 120.386 82.067H116.384C116.336 82.067 116.291 82.0857 116.257 82.1195ZM107.347 82.1315L107.176 82.3031C107.142 82.3369 107.123 82.3828 107.123 82.4298V82.7282C107.123 82.7755 107.142 82.8211 107.176 82.855L107.347 83.0266C107.381 83.0601 107.426 83.0789 107.474 83.0789H108.797C108.896 83.0789 108.976 83.1593 108.976 83.2582V90.1616C108.976 90.2091 108.995 90.255 109.028 90.2884L109.2 90.4605C109.234 90.4939 109.279 90.5126 109.326 90.5126H109.614C109.661 90.5126 109.705 90.4948 109.739 90.4628L109.92 90.2888C109.954 90.255 109.975 90.2082 109.975 90.1597V83.2582C109.975 83.1593 110.054 83.0789 110.154 83.0789H111.466C111.513 83.0789 111.557 83.061 111.59 83.0295L111.772 82.855C111.807 82.8216 111.827 82.7746 111.827 82.726V82.4322C111.827 82.3836 111.807 82.3364 111.772 82.3031L111.59 82.1287C111.557 82.0967 111.513 82.0788 111.466 82.0788H107.474C107.426 82.0788 107.381 82.0976 107.347 82.1315ZM98.4383 82.1195L98.2664 82.2917C98.2326 82.325 98.214 82.3704 98.214 82.4184V90.162C98.214 90.2092 98.2326 90.255 98.2664 90.2884L98.4383 90.4605C98.4716 90.4939 98.5174 90.5126 98.5649 90.5126H102.567C102.615 90.5126 102.66 90.4939 102.694 90.4605L102.865 90.2884C102.899 90.255 102.917 90.2092 102.917 90.162V89.8637C102.917 89.8165 102.899 89.7708 102.865 89.7369L102.694 89.5653C102.66 89.5318 102.615 89.5132 102.567 89.5132H99.8331C99.7439 89.5132 99.6584 89.4773 99.5949 89.4143L99.3115 89.13C99.2486 89.0669 99.2128 88.9812 99.2128 88.8911V87.396C99.2128 87.3168 99.2439 87.2413 99.2997 87.1854L99.6068 86.8774C99.6626 86.8216 99.738 86.79 99.817 86.79H100.837C100.883 86.79 100.928 86.7722 100.961 86.7402L101.143 86.5658C101.177 86.5319 101.198 86.4852 101.198 86.4362V86.1437C101.198 86.0949 101.177 86.0486 101.143 86.0143L100.961 85.84C100.928 85.8079 100.883 85.79 100.837 85.79H99.8334C99.7439 85.79 99.6584 85.7543 99.5949 85.6912L99.3115 85.4069C99.2486 85.3437 99.2128 85.2582 99.2128 85.1684V83.6889C99.2128 83.5992 99.2486 83.5131 99.3115 83.4504L99.5949 83.1662C99.6584 83.103 99.7439 83.0674 99.8331 83.0674H102.567C102.615 83.0674 102.66 83.0487 102.694 83.0148L102.865 82.8426C102.899 82.8084 102.917 82.7635 102.917 82.7153V82.4184C102.917 82.3704 102.899 82.325 102.865 82.2917L102.694 82.12C102.66 82.0857 102.615 82.067 102.567 82.067H98.5649C98.5174 82.067 98.4716 82.0857 98.4383 82.1195ZM92.9109 83.4504L92.627 83.1662C92.564 83.103 92.4786 83.0674 92.3889 83.0674H90.923C90.8339 83.0674 90.7484 83.103 90.685 83.1662L90.4011 83.4504C90.338 83.5131 90.3024 83.5992 90.3024 83.6889V85.1684C90.3024 85.2582 90.338 85.3437 90.4011 85.4069L90.685 85.6912C90.7484 85.7543 90.8339 85.79 90.923 85.79H92.3889C92.4786 85.79 92.564 85.7543 92.627 85.6912L92.9109 85.4069C92.9739 85.3437 93.0096 85.2582 93.0096 85.1684V83.6889C93.0096 83.5992 92.9739 83.5131 92.9109 83.4504ZM93.0689 82.1982L93.8769 83.0079C93.9605 83.0921 94.0076 83.206 94.0076 83.3246V85.5323C94.0076 85.6509 93.9605 85.7648 93.8769 85.8495L93.0689 86.6587C92.9848 86.7429 92.8711 86.79 92.7523 86.79H90.7498C90.5025 86.79 90.3024 86.9904 90.3024 87.238V90.162C90.3024 90.2092 90.2838 90.255 90.2499 90.2884L90.0786 90.4605C90.0452 90.4939 89.9994 90.5126 89.952 90.5126H89.6549C89.6075 90.5126 89.5617 90.4939 89.5283 90.4605L89.3565 90.2884C89.3228 90.255 89.3039 90.2091 89.3039 90.1616V82.4275C89.3039 82.3819 89.3219 82.3369 89.3538 82.304L89.528 82.1219C89.5617 82.0866 89.6084 82.067 89.6572 82.067H92.7523C92.8711 82.067 92.9848 82.1145 93.0689 82.1982ZM80.4608 89.4655L80.2222 89.7049C80.2063 89.7208 80.1976 89.7424 80.1976 89.7652V90.189C80.1976 90.2119 80.2066 90.2334 80.2222 90.2495L80.4608 90.4883C80.4767 90.5039 80.4982 90.5126 80.521 90.5126H80.8967C80.9186 90.5126 80.9397 90.5044 80.9552 90.4897L81.2056 90.2495C81.2225 90.2334 81.232 90.2115 81.232 90.1876V89.7652C81.232 89.7424 81.223 89.7208 81.2069 89.7049L80.9679 89.4655C80.952 89.4495 80.9305 89.4407 80.9077 89.4407H80.521C80.4982 89.4407 80.4767 89.4495 80.4608 89.4655ZM75.0516 82.2102L75.86 83.0197C75.9441 83.104 75.9911 83.2179 75.9911 83.3369V84.0285C75.9911 84.0761 75.9725 84.1218 75.9386 84.1552L75.7554 84.3398C75.7215 84.3731 75.6758 84.3919 75.6283 84.3919H75.3459C75.297 84.3919 75.2504 84.3722 75.2161 84.3369L75.042 84.1548C75.0105 84.1214 74.9927 84.077 74.9927 84.0307V83.7012C74.9927 83.6111 74.957 83.5256 74.8939 83.4623L74.6101 83.1777C74.5467 83.1146 74.4608 83.0789 74.3716 83.0789H72.9066C72.817 83.0789 72.7316 83.1146 72.6686 83.1777L72.3848 83.4623C72.3213 83.5256 72.286 83.6111 72.286 83.7008V85.1804C72.286 85.2697 72.3213 85.3556 72.3848 85.4189L72.668 85.7035C72.7316 85.7666 72.817 85.8023 72.9066 85.8023H74.7368C74.8542 85.8023 74.9675 85.849 75.0512 85.9319L75.8582 86.7309C75.9432 86.8147 75.9911 86.9296 75.9911 87.0496V89.255C75.9911 89.3739 75.9441 89.488 75.86 89.5722L75.0516 90.3817C74.9675 90.4659 74.8538 90.5126 74.735 90.5126H72.5433C72.4245 90.5126 72.3108 90.4659 72.2271 90.3817L71.4187 89.5722C71.3346 89.488 71.2876 89.3739 71.2876 89.255V88.563C71.2876 88.5154 71.3064 88.4701 71.3396 88.4357L71.5116 88.2637C71.5453 88.2302 71.5909 88.2115 71.6385 88.2115H71.9351C71.9821 88.2115 72.0279 88.2302 72.0612 88.2637L72.2334 88.4357C72.2674 88.4701 72.286 88.5154 72.286 88.563V88.8911C72.286 88.9812 72.3216 89.0669 72.3848 89.13L72.6686 89.4143C72.7316 89.4773 72.817 89.5132 72.9066 89.5132H74.3716C74.4608 89.5132 74.5467 89.4773 74.6097 89.4143L74.8936 89.13C74.957 89.0669 74.9927 88.9812 74.9927 88.8911V87.4238C74.9927 87.3346 74.957 87.2491 74.8939 87.1854L74.6101 86.9008C74.5467 86.8376 74.4608 86.8019 74.3716 86.8019H72.5433C72.4245 86.8019 72.3108 86.7548 72.2271 86.6706L71.4187 85.8613C71.3346 85.7777 71.2876 85.6636 71.2876 85.5447V83.3369C71.2876 83.2179 71.3346 83.104 71.4187 83.0197L72.2271 82.2102C72.3108 82.126 72.4245 82.0788 72.5433 82.0788H74.735C74.8538 82.0788 74.9675 82.126 75.0516 82.2102Z" fill="white"/>
</svg>
