<svg width="279" height="49" viewBox="0 0 279 49" fill="none" xmlns="http://www.w3.org/2000/svg">
<path d="M0.332031 14.6045V15.5004L0.537147 15.5247C0.550275 15.5267 1.86959 15.6826 2.34677 15.7827C3.69003 16.0642 4.34508 16.7561 4.34902 18.0196C4.36477 22.753 4.36477 27.6423 4.34902 32.551C4.34574 33.6924 3.83246 34.272 2.73468 34.6015C2.16396 34.7721 0.56471 34.9225 0.548301 34.9238L0.337608 34.9435L0.340236 35.8394H14.636V34.9435L14.4335 34.9179C14.4151 34.9153 12.5694 34.6855 11.935 34.4958C10.9469 34.1988 10.3771 33.6297 10.3292 32.5963C10.3099 32.1838 10.2708 31.3515 10.2708 31.0331C10.2646 27.3246 10.2708 16.2727 10.2708 16.2727C10.2708 16.2727 12.2905 16.3074 13.3679 16.4945C16.1585 16.9783 17.7968 18.3386 18.3685 20.7032C18.4965 21.2329 18.6192 21.7573 18.7137 22.3503L18.7449 22.5443L19.6612 22.5505V14.6045H0.332031Z" fill="#00A3FF"/>
<path d="M111.704 14.6114L111.706 15.5004C111.706 15.5004 112.334 15.5595 112.574 15.592C113.849 15.765 114.947 16.1863 114.976 17.6244C114.989 18.2168 114.854 18.9086 114.586 19.6251C113.724 21.9345 111.082 28.6036 110.194 30.8369C109.396 29.023 104.64 17.8486 104.214 16.7101C104.087 16.3705 103.986 15.824 104.76 15.6379C105.276 15.5142 106.503 15.5004 106.503 15.5004L106.495 14.6114H95.5312V15.5004C97.0153 15.5592 97.4961 15.9057 97.9217 16.6146C98.3169 17.274 98.562 17.8328 98.8134 18.4203C100.157 21.5577 101.493 24.6982 102.829 27.8386C104.01 30.6131 105.19 33.3875 106.376 36.1604L106.414 36.2493C107.337 38.4078 107.337 38.4078 106.132 40.4432C105.51 41.4931 104.707 42.6703 103.461 43.4396C101.867 44.4231 99.9385 44.0309 98.4354 43.578C98.1915 43.5052 97.8715 43.3769 97.8696 43.3762L97.7383 43.3237L97.632 43.4159C96.8236 44.1156 96.3448 45.2321 96.4128 46.2606C96.4679 47.1097 96.8834 47.831 97.5821 48.2911C98.1951 48.6948 98.9089 48.8953 99.6667 48.8953C100.555 48.8953 101.502 48.6199 102.418 48.0735C103.615 47.3571 104.703 46.1852 105.745 44.4901C107.501 41.6322 108.833 38.2811 110.119 35.0406C110.327 34.5171 110.533 34.0006 110.737 33.4929L111.784 30.8884C113.289 27.1438 114.846 23.2719 116.427 19.4859C117.4 17.1558 118.659 16.0245 120.719 15.5792C120.848 15.5513 121.313 15.5004 121.313 15.5004V14.6045L111.704 14.6114Z" fill="#00A3FF"/>
<path d="M127.594 17.1707C128.337 16.109 129.514 15.4316 130.744 15.3588C131.828 15.2922 132.848 15.7217 133.597 16.5622C134.371 17.4293 136.125 20.4099 136.142 20.4397L136.222 20.5759L136.378 20.5516C136.401 20.5477 136.947 20.4594 137.419 20.2802C138.702 19.7942 139.388 19.0203 139.516 17.9134C139.643 16.8149 139.208 15.9472 138.184 15.261C136.692 14.2593 135.026 13.9758 133.742 13.8412C129.927 13.4389 126.588 14.3689 123.805 16.5999C121.25 18.6498 119.865 21.4778 119.689 25.0051C119.526 28.2689 120.527 31.2023 122.508 33.2656C124.382 35.2166 127.019 36.2878 129.946 36.2878C130.046 36.2872 130.149 36.2888 130.253 36.2888C133.169 36.2888 136.325 34.9984 138.734 32.8117L138.883 32.6778L138.285 31.7815L138.11 31.8517C138.093 31.8586 136.378 32.5895 134.831 32.7868C131.051 33.2311 128.094 31.4166 126.717 27.8019C126.058 26.077 125.877 24.1709 126.128 21.6202C126.313 19.7496 126.779 18.3357 127.594 17.1707Z" fill="#00A3FF"/>
<path d="M69.2303 21.9703C68.6239 18.9628 67.0115 16.7259 64.4395 15.3222C62.3279 14.1703 59.9456 13.6659 56.9427 13.7552C50.6255 13.9301 45.7014 19.0816 45.7326 25.4832L45.7467 25.771C45.7598 26.0533 45.7759 26.41 45.8146 26.7644C46.2383 30.6872 48.172 33.4696 51.5608 35.0354C53.375 35.8732 55.3645 36.295 57.4921 36.295C58.0333 36.295 58.5827 36.2677 59.1412 36.2135C63.4434 35.7928 66.5563 33.6228 68.3931 29.7621C69.5158 27.4021 69.7975 24.7805 69.2303 21.9703ZM62.4897 31.1201C61.9056 33.1722 60.6404 34.3498 58.7304 34.6192C56.266 34.972 54.5046 34.1535 53.4948 32.1966C53.0409 31.3167 52.6934 30.2731 52.4893 29.1782C52.3048 28.1973 52.0436 25.9742 52.0449 24.1301V24.1294C52.1115 22.6516 52.2648 20.7166 52.8617 18.8548C53.6034 16.5405 55.2434 15.2556 57.3622 15.2556C57.7461 15.2556 58.1468 15.298 58.5594 15.3839C60.8586 15.8634 61.8304 17.5792 62.241 18.9342C62.6627 20.3277 62.9485 21.9093 63.0913 23.6352C63.323 26.4353 63.1261 28.8835 62.4897 31.1201Z" fill="#00A3FF"/>
<path d="M42.4653 15.9057C43.5998 15.5418 45.1328 15.4998 45.1328 15.4998V14.6055H23.2057V15.4998L23.4449 15.5017C24.1184 15.5057 26.0537 15.4397 26.7376 16.2064C27.3969 16.9458 27.2689 18.2565 27.2634 18.6917C27.2315 21.2092 27.1675 22.9982 26.798 26.0483C26.5584 28.021 26.1649 30.72 23.4617 31.3689C22.0006 31.7197 20.1348 30.4772 20.1348 30.4772C20.1348 30.4772 18.149 31.9875 19.1217 34.3215C19.7909 35.9277 21.7029 36.2933 22.4929 36.2933C22.5844 36.2933 22.6767 36.2903 22.7689 36.2848C25.1144 36.1377 26.8154 34.6533 27.6871 31.6974C29.0169 27.1865 28.9296 20.0898 28.8879 16.8499C28.8853 16.6524 28.8879 16.271 28.8879 16.271C28.8879 16.271 29.135 16.271 29.3122 16.271C29.6946 16.271 35.2488 16.271 35.2488 16.271C35.2488 16.271 35.2521 29.6685 35.2488 31.4493C35.2481 31.9261 35.1966 32.444 35.1192 32.9875C34.9971 33.8516 34.5242 34.4164 33.7145 34.6651C33.3735 34.7698 32.364 34.8857 32.003 34.9212L31.7917 34.9428L31.8038 35.8388H45.1328V34.9392L44.9208 34.9212C44.906 34.9202 43.4249 34.7918 42.9329 34.6501C41.7239 34.3012 41.2631 33.7269 41.1742 32.4565C41.1089 31.5356 41.0495 30.549 41.0557 29.577C41.0816 25.728 41.0557 22.4222 41.0557 18.437C41.0557 17.1305 41.4699 16.2247 42.4653 15.9057Z" fill="#00A3FF"/>
<path d="M91.0121 15.3578C88.2419 13.8721 85.1687 13.4182 81.6188 13.9699C79.6802 14.2718 77.9644 15.1513 76.5201 16.5835C75.1181 17.9754 74.1949 19.6734 73.7692 21.6425C73.781 21.3416 73.7925 21.0403 73.7997 20.739C73.8575 18.4644 74.1565 16.45 74.7151 14.5816C75.5756 11.7047 77.1013 9.71263 79.3796 8.49277C81.5453 7.33427 83.9502 7.05665 86.2265 6.92898C87.7772 6.84136 89.5986 6.65198 91.3495 5.90798C93.205 5.11968 94.7038 3.33731 95.8072 0.615989L95.3953 0L95.3038 0.0620156C93.9402 0.986515 92.5218 1.14996 91.0679 1.24579C90.5343 1.28156 90 1.3101 89.466 1.33931C88.5455 1.38887 87.594 1.44038 86.659 1.52571C84.1005 1.75872 81.898 2.42855 79.9256 3.57261C76.9713 5.28771 74.9044 7.96113 73.6071 11.7461C72.6501 14.5409 72.213 17.6439 72.231 21.5129C72.2464 24.7715 72.7213 27.3635 73.7252 29.6693C74.9812 32.5554 76.9832 34.5146 79.6746 35.4939C81.1393 36.0262 82.6618 36.2937 84.2226 36.2931C84.9925 36.2931 85.7726 36.2281 86.5589 36.0981C89.6642 35.5848 92.1375 34.0614 93.9097 31.5688C95.7613 28.9644 96.4177 25.8958 95.8607 22.4485C95.335 19.1867 93.7036 16.8011 91.0121 15.3578ZM88.8628 31.6338C88.4634 32.7969 87.6846 33.6866 86.6092 34.2071C85.3962 34.7956 83.8783 34.8674 82.5469 34.3998C81.0172 33.8619 79.9867 32.6702 79.396 30.7559C78.7271 28.5879 78.5095 26.1462 78.7304 23.2926C78.8499 21.7593 79.0714 20.3331 79.3901 19.0528C79.8282 17.2951 80.7284 16.1831 82.1409 15.6525C82.8025 15.4044 83.4576 15.2839 84.0883 15.2839C85.9026 15.2839 87.5094 16.2826 88.4486 18.1021C89.3764 19.8989 89.5845 21.9057 89.6711 23.8076C89.6869 24.1479 89.6823 24.4895 89.678 24.8308C89.6761 24.991 89.6741 25.1515 89.6741 25.3113V25.3153C89.7026 27.0717 89.6367 29.3772 88.8628 31.6338Z" fill="#00A3FF"/>
<path d="M256.925 34.9349C256.74 34.9225 256.224 34.8831 256.062 34.8565C254.433 34.5861 254.034 34.1644 254.033 32.5165C254.029 27.9065 254.033 18.1827 254.033 18.1827C254.033 16.567 254.298 15.7531 255.926 15.5864C256.051 15.574 257.056 15.5004 257.056 15.5004V14.6045H248.152C248.152 14.6045 247.895 15.1457 247.798 15.3737C246.166 19.2024 242.486 27.6203 241.555 29.7414L240.798 28.3003C239.098 25.0628 235.56 18.3264 233.968 15.2392C233.867 15.0439 233.624 14.6045 233.624 14.6045H224.892V15.5004C226.46 15.6297 227.795 16.016 228.209 17.5477C228.379 18.1778 228.397 18.8184 228.401 19.4334C228.421 22.8941 228.421 26.4625 228.402 30.3413C228.4 30.8914 228.332 31.4578 228.267 32.0049L228.222 32.3843C228.042 33.9773 227.286 34.7508 225.846 34.9067C225.704 34.9215 225.033 34.9395 225.032 34.9395L224.807 34.9451V35.8473L227.706 35.8424C228.645 35.8394 229.584 35.8361 230.523 35.8361C230.954 35.8355 231.388 35.8384 231.821 35.8424C232.428 35.8473 233.038 35.8512 233.642 35.8456L234.248 35.8388V34.9435L234.012 34.9389C234.002 34.9389 232.987 34.9179 232.625 34.866C231.493 34.7252 230.785 34.0961 230.522 32.9133C230.319 32.0019 230.212 31.0971 230.203 30.2232C230.173 27.4372 230.18 22.0018 230.184 19.8246L238.632 35.9051H240.659L240.72 35.7665C240.783 35.6244 246.375 22.9594 248.154 18.9027L248.153 21.2525L248.154 24.3765C248.156 27.1812 248.158 29.9649 248.148 32.7942C248.143 34.3521 247.85 34.6478 246.308 34.9011C246.19 34.9201 245.798 34.9349 245.797 34.9349L245.574 34.9435V35.8394H257.141V34.9503L256.925 34.9349Z" fill="#00A3FF"/>
<path d="M150.549 14.6045V15.5004L150.754 15.5247C150.767 15.5267 152.086 15.6826 152.564 15.7827C153.907 16.0642 154.562 16.7561 154.566 18.0196C154.582 22.753 154.582 27.6423 154.566 32.551C154.563 33.6924 154.049 34.272 152.951 34.6015C152.381 34.7721 150.782 34.9225 150.765 34.9238L150.554 34.9435L150.557 35.8394H164.853V34.9435L164.651 34.9179C164.632 34.9153 162.786 34.6855 162.152 34.4958C161.164 34.1988 160.594 33.6297 160.546 32.5963C160.527 32.1838 160.488 31.3515 160.488 31.0331C160.481 27.3246 160.488 16.2727 160.488 16.2727C160.488 16.2727 162.508 16.3074 163.585 16.4945C166.375 16.9783 168.014 18.3386 168.585 20.7032C168.714 21.2329 168.836 21.7573 168.93 22.3503L168.962 22.5443L169.878 22.5505V14.6045H150.549Z" fill="#00A3FF"/>
<path d="M186.971 14.6104L186.974 15.4995C186.974 15.4995 187.601 15.5585 187.841 15.591C189.117 15.764 190.215 16.1854 190.244 17.6235C190.256 18.2158 190.121 18.9077 189.854 19.6241C188.992 21.9335 186.35 28.6026 185.462 30.8359C184.664 29.022 179.907 17.8476 179.482 16.7092C179.355 16.3695 179.254 15.823 180.028 15.6369C180.544 15.5132 181.771 15.4995 181.771 15.4995L181.763 14.6104H170.799V15.4995C172.283 15.5582 172.764 15.9048 173.189 16.6137C173.584 17.273 173.83 17.8319 174.081 18.4193C175.424 21.5568 176.761 24.6972 178.096 27.8376C179.278 30.6121 180.458 33.3866 181.643 36.1594L181.682 36.2483C182.604 38.4068 182.604 38.4068 181.4 40.4422C180.778 41.4921 179.975 42.6693 178.728 43.4386C177.135 44.4222 175.206 44.03 173.703 43.5771C173.459 43.5042 173.139 43.3759 173.137 43.3752L173.006 43.3227L172.9 43.4149C172.091 44.1146 171.612 45.2311 171.68 46.2597C171.735 47.1087 172.151 47.83 172.85 48.2901C173.463 48.6938 174.177 48.8943 174.934 48.8943C175.822 48.8943 176.77 48.619 177.685 48.0725C178.883 47.3561 179.971 46.1842 181.013 44.4891C182.769 41.6313 184.1 38.2801 185.387 35.0396C185.595 34.5162 185.801 33.9996 186.005 33.4919L187.052 30.8874C188.557 27.1428 190.113 23.2709 191.694 19.4849C192.667 17.1548 193.927 16.0235 195.987 15.5782C196.116 15.5503 196.581 15.4995 196.581 15.4995V14.6035L186.971 14.6104Z" fill="#00A3FF"/>
<path d="M278.078 19.8851C276.418 15.7956 272.38 13.4979 267.275 13.7355C265.817 13.8038 264.348 13.9922 262.927 14.194C262.142 14.3059 261.356 14.4178 260.56 14.5081L259.947 14.6046L259.561 21.124H260.457L260.692 20.4391C261.448 18.3347 262.839 16.7782 264.776 15.8103C266.901 14.7467 269.512 15.2957 270.721 17.0591C272.146 19.1378 272.432 21.5385 272.569 23.8387C272.569 23.8387 272.57 23.8834 272.57 23.9559H263.484V25.4327H272.579C272.579 26.077 272.491 28.3237 272.212 29.5518C271.97 30.6148 271.652 31.6679 271.039 32.7821C270.483 33.7923 269.321 34.5668 268.021 34.724C266.76 34.8759 265.608 34.4457 264.786 33.51C264.091 32.7198 263.555 31.7769 262.974 30.7152L262.298 29.4796L262.131 29.5134C262.099 29.5196 261.345 29.6735 260.77 29.9233C260.558 30.0162 260.338 30.1432 260.078 30.3237C259.319 30.8517 258.886 31.6459 258.891 32.5035C258.895 33.3276 259.312 34.0834 260.037 34.5763C260.803 35.0965 261.558 35.4726 262.282 35.6925C263.66 36.1112 265.063 36.321 266.477 36.321C267.543 36.321 268.616 36.2015 269.69 35.9632C274.223 34.9563 276.49 32.2363 277.594 30.1323C279.234 27.0057 279.415 23.1752 278.078 19.8851Z" fill="#00A3FF"/>
<path d="M223.03 18.1704C221.408 14.6906 217.827 12.8491 213.673 13.3552C211.539 13.6181 209.557 14.6118 207.435 16.4838C207.408 16.5081 207.381 16.5311 207.354 16.5547C207.354 16.5547 207.338 15.0503 207.354 14.3424C207.359 14.1064 207.36 13.8632 207.19 13.7057C207.02 13.5492 206.77 13.5524 206.545 13.5774C205.803 13.6588 197.616 14.604 197.616 14.604L197.615 15.4999C197.615 15.4999 197.924 15.5222 198.154 15.555C200.157 15.8386 201.143 16.8307 201.329 18.9183C201.329 18.9183 201.363 19.9425 201.363 20.594C201.363 23.8617 201.363 37.2215 201.363 43.9769C201.363 46.0566 200.693 46.5243 198.874 46.8328C198.256 46.9381 196.613 47.0362 196.613 47.0362V47.9322H212.655V47.0362C212.655 47.0362 210.356 46.9381 209.738 46.8328C207.918 46.5243 207.266 46.056 207.266 43.9736C207.266 41.8956 207.266 35.2619 207.266 35.2619C210.228 36.1247 213.664 35.9593 216.616 34.6948C219.825 33.321 222.242 30.8643 223.422 27.7764C224.592 24.7154 224.449 21.2136 223.03 18.1704ZM217.068 30.0943C215.946 33.4572 212.798 35.0233 209.418 33.9009C208.847 33.7112 207.873 33.1386 207.249 32.5245C207.248 32.386 207.249 17.7857 207.249 17.7857C207.249 17.7857 207.366 17.6732 207.614 17.5356C209.267 16.751 210.939 16.4707 212.574 16.6866C214.684 16.9646 216.179 18.2248 217.016 20.4306C218.173 23.4794 218.191 26.7304 217.068 30.0943Z" fill="#00A3FF"/>
</svg>
