<svg width="229" height="78" viewBox="0 0 229 78" fill="none" xmlns="http://www.w3.org/2000/svg">
<path d="M201.279 49.3123C197.393 49.3123 195.449 47.529 195.449 43.9626V25.6503V7.33799C195.449 3.77154 197.393 1.98828 201.279 1.98828C205.074 1.98828 206.972 3.77154 206.972 7.33799V19.0661C206.972 19.7062 207.143 20.1063 207.486 20.2663C207.829 20.4263 208.229 20.3007 208.686 19.889C210.241 18.3345 211.795 17.3286 213.35 16.8714C214.493 16.5056 215.751 16.3226 217.122 16.3226C220.552 16.3226 223.226 17.4315 225.147 19.649C227.067 21.8667 228.027 25.1701 228.027 29.5597V43.9626C228.027 47.529 226.13 49.3123 222.335 49.3123C218.494 49.3123 216.573 47.529 216.573 43.9626V32.5089C216.573 30.0398 216.219 28.2336 215.51 27.0906C214.802 25.9474 213.647 25.3759 212.047 25.3759C208.663 25.3759 206.972 27.9135 206.972 32.9889V43.9626C206.972 47.529 205.074 49.3123 201.279 49.3123Z" fill="#E50C37"/>
<path d="M176.041 49.3129C171.743 49.3129 168.199 48.6613 165.41 47.3582C162.621 46.0551 161.227 44.2376 161.227 41.9057C161.227 40.8998 161.569 40.0652 162.255 39.4023C162.941 38.7394 163.833 38.4078 164.93 38.4078C166.028 38.4078 167.353 38.7965 168.908 39.5737C171.469 40.9455 173.869 41.6314 176.11 41.6314C178.807 41.6314 180.156 40.9683 180.156 39.6423C180.156 39.2308 180.019 38.865 179.745 38.545C179.47 38.2249 179.002 37.9391 178.339 37.6876C177.676 37.4362 177.093 37.2533 176.59 37.139C176.087 37.0247 175.287 36.8532 174.189 36.6246C172.68 36.3045 171.503 36.0416 170.657 35.8358C169.811 35.63 168.702 35.2644 167.331 34.7385C165.959 34.2127 164.907 33.6182 164.176 32.9553C163.444 32.2922 162.781 31.3893 162.187 30.2461C161.592 29.103 161.295 27.7998 161.295 26.3368C161.341 23.319 162.633 20.8957 165.17 19.0667C167.708 17.2378 171.08 16.3232 175.287 16.3232C179.402 16.3232 182.82 17.032 185.54 18.4495C188.261 19.8669 189.621 21.6043 189.621 23.6619C189.621 24.805 189.266 25.6509 188.558 26.1996C187.849 26.7483 187.038 27.0226 186.123 27.0226C185.026 27.0226 183.517 26.634 181.596 25.8567C179.219 24.6678 177.115 24.0734 175.287 24.0734C172.635 24.0734 171.309 24.7822 171.309 26.1996C171.309 26.9769 171.777 27.5599 172.715 27.9485C173.652 28.3371 175.126 28.7144 177.138 29.0802C178.647 29.3545 179.847 29.5946 180.739 29.8003C181.631 30.0061 182.762 30.3833 184.134 30.932C185.506 31.4806 186.58 32.1094 187.358 32.8181C188.135 33.5268 188.821 34.487 189.415 35.6987C190.01 36.9104 190.307 38.3164 190.307 39.9167C190.261 42.9802 188.958 45.312 186.397 46.9123C183.837 48.5127 180.385 49.3129 176.041 49.3129Z" fill="#E50C37"/>
<path d="M150.115 49.3129C146.228 49.3129 144.285 47.5296 144.285 43.9633V32.8523V21.7415C144.285 18.1294 146.228 16.3232 150.115 16.3232C153.91 16.3232 155.808 18.1294 155.808 21.7415V32.8523V43.9633C155.808 47.5296 153.91 49.3129 150.115 49.3129Z" fill="#E50C37"/>
<path d="M155.121 10.8365C153.841 11.9796 152.172 12.5511 150.115 12.5511C148.057 12.5511 146.388 11.9796 145.108 10.8365C143.828 9.69345 143.188 8.18448 143.188 6.30985C143.188 4.38949 143.828 2.85769 145.108 1.71462C146.388 0.571585 148.057 0 150.115 0C152.172 0 153.841 0.571585 155.121 1.71462C156.402 2.85769 157.042 4.38949 157.042 6.30985C157.042 8.18448 156.402 9.69345 155.121 10.8365Z" fill="#E50C37"/>
<path d="M111.913 49.3123C108.621 49.3123 106.975 47.529 106.975 43.9626V25.6503V7.33799C106.975 3.77154 108.918 1.98828 112.804 1.98828C116.599 1.98828 118.497 3.77154 118.497 7.33799V17.9687C118.497 18.7917 118.657 19.2833 118.977 19.4433C119.297 19.6033 119.731 19.4089 120.28 18.8603C122.155 17.1685 124.372 16.3226 126.933 16.3226C130.225 16.3226 133.106 17.7401 135.575 20.5749C138.044 23.4098 139.278 27.5021 139.278 32.8517C139.278 38.3386 137.929 42.4537 135.232 45.1972C132.534 47.9406 129.516 49.3123 126.179 49.3123C122.978 49.3123 120.486 48.352 118.703 46.4317C118.474 46.1573 118.245 45.9858 118.017 45.9173C117.788 45.8486 117.571 45.8715 117.365 45.9858C117.16 46.1001 117.011 46.3174 116.92 46.6374C116.005 48.4207 114.336 49.3123 111.913 49.3123ZM118.497 38.5444C119.64 39.9618 121.08 40.6705 122.818 40.6705C124.555 40.6705 125.95 39.9618 127.001 38.5444C128.053 37.1269 128.579 35.2294 128.579 32.8517C128.579 30.4741 128.053 28.5766 127.001 27.1591C125.95 25.7417 124.555 25.033 122.818 25.033C121.08 25.033 119.64 25.7531 118.497 27.1934C117.354 28.6338 116.782 30.5656 116.782 32.9889C116.782 35.2751 117.354 37.1269 118.497 38.5444Z" fill="#E50C37"/>
<path d="M83.4508 49.3129C79.5644 49.3129 77.6211 47.5296 77.6211 43.9633V32.8523V21.7415C77.6211 18.1294 79.3358 16.3232 82.765 16.3232C85.6456 16.3232 87.3374 17.4436 87.8404 19.684C88.2061 21.1014 88.9834 21.1929 90.1723 19.9583C92.4127 17.7179 94.8589 16.5977 97.5109 16.5977C99.3855 16.5977 100.814 17.192 101.798 18.3809C102.78 19.5697 103.272 21.0099 103.272 22.7017C103.272 24.485 102.803 26.0052 101.866 27.2627C100.929 28.5201 99.5228 29.1487 97.648 29.1487C96.3221 29.1487 95.1333 28.7029 94.0816 27.8114C93.03 26.9198 92.2298 26.474 91.6811 26.474C89.9893 26.474 89.1434 28.5086 89.1434 32.578V43.9633C89.1434 47.5296 87.2459 49.3129 83.4508 49.3129Z" fill="#E50C37"/>
<path d="M69.6648 45.7465C66.6013 48.1698 62.6463 49.3814 57.7996 49.3814C52.9528 49.3814 48.9406 47.8269 45.7629 44.7177C42.585 41.6084 40.9961 37.6763 40.9961 32.921C40.9961 28.12 42.6307 24.1534 45.9 21.0214C49.1692 17.8894 53.2729 16.3232 58.2111 16.3232C62.3262 16.3232 65.7783 17.5006 68.5675 19.8555C71.3567 22.2102 72.7512 25.2394 72.7512 28.943C72.7512 30.9549 72.2025 32.4066 71.1052 33.2982C70.0078 34.1898 68.156 34.6356 65.5498 34.6356H53.9588C52.4956 34.6356 51.7641 35.2986 51.7641 36.6246C51.8554 37.722 52.427 38.6822 53.4787 39.5051C54.5303 40.3282 55.8563 40.7397 57.4566 40.7397C60.1086 40.7397 62.5548 40.0539 64.7952 38.6822C66.487 37.7219 67.8359 37.2418 68.8418 37.2418C69.8477 37.2418 70.7051 37.6191 71.4138 38.3735C72.1225 39.128 72.4769 40.0996 72.4769 41.2884C72.4769 42.9344 71.5395 44.4204 69.6648 45.7465ZM56.2906 30.1089H59.7886C61.1603 30.1089 62.0633 29.9946 62.4976 29.766C62.9321 29.5375 63.1492 29.0802 63.1492 28.3943C63.1492 27.3427 62.7377 26.4968 61.9147 25.8567C61.0916 25.2166 59.9486 24.8965 58.4854 24.8965C56.6564 24.8508 55.1362 25.228 53.9245 26.0282C52.7128 26.8283 52.107 27.6857 52.107 28.6001C52.107 29.1487 52.4042 29.5375 52.9986 29.766C53.593 29.9946 54.6903 30.1089 56.2906 30.1089Z" fill="#E50C37"/>
<path d="M19.4604 49.5875C14.2936 49.5875 9.86985 48.6388 6.18907 46.7413C2.50831 44.8437 0.667969 42.2946 0.667969 39.0939C0.667969 37.5393 1.1023 36.3391 1.97104 35.4932C2.83981 34.6473 3.89148 34.2244 5.12602 34.2244C5.44612 34.2244 5.7433 34.2473 6.0176 34.2929C6.29192 34.3386 6.58919 34.4187 6.90918 34.5331C7.2293 34.6473 7.49225 34.7502 7.69793 34.8417C7.90374 34.9331 8.16669 35.0817 8.48668 35.2875C8.80678 35.4932 9.04681 35.6533 9.2069 35.7676C9.36691 35.8819 9.62975 36.0648 9.99554 36.3162C10.3613 36.5677 10.6128 36.7392 10.7501 36.8307C13.1734 39.1168 16.3283 40.2599 20.2148 40.2599C22.1809 40.2599 23.7469 39.917 24.9129 39.2311C26.0788 38.5453 26.6619 37.5851 26.6619 36.3506C26.6619 35.619 26.4446 34.9788 26.0103 34.4301C25.5759 33.8815 24.8558 33.3785 23.8499 32.9213C22.8439 32.464 21.9294 32.1097 21.1064 31.8582C20.2834 31.6067 19.0717 31.2752 17.4714 30.8636C15.9167 30.4065 14.8195 30.0864 14.1793 29.9036C13.5392 29.7206 12.4761 29.3776 10.9901 28.8747C9.50406 28.3718 8.40669 27.9145 7.69793 27.503C6.9893 27.0915 6.10908 26.5086 5.05741 25.754C4.00579 24.9996 3.22852 24.2338 2.72547 23.4564C2.22253 22.6792 1.76536 21.7304 1.35379 20.6102C0.942291 19.49 0.736504 18.2668 0.736504 16.9408C0.736504 12.8257 2.32546 9.55651 5.50317 7.13313C8.68101 4.70975 12.899 3.49805 18.1573 3.49805C23.2783 3.49805 27.5535 4.53828 30.9828 6.6187C34.412 8.69915 36.1266 11.1797 36.1266 14.0602C36.1266 15.4777 35.7151 16.575 34.8921 17.3524C34.0691 18.1297 32.9946 18.5183 31.6686 18.5183C30.937 18.5183 30.2054 18.3811 29.4738 18.1068C28.7422 17.8325 28.1479 17.5581 27.6906 17.2838C27.2334 17.0094 26.5476 16.5293 25.633 15.8435C23.164 13.6488 20.3978 12.5514 17.3342 12.5514C15.4596 12.5514 13.9736 12.9057 12.8762 13.6145C11.7788 14.3232 11.2301 15.2719 11.2301 16.4608C11.2301 17.1923 11.4359 17.821 11.8474 18.3468C12.2589 18.8727 12.9562 19.3528 13.9393 19.7872C14.9223 20.2216 15.791 20.5644 16.5455 20.8159C17.2999 21.0674 18.5002 21.3989 20.1463 21.8104C21.5636 22.1762 22.6725 22.4734 23.4726 22.702C24.2728 22.9306 25.3587 23.285 26.7304 23.7651C28.1021 24.2452 29.1995 24.7253 30.0225 25.2054C30.8455 25.6855 31.7714 26.3141 32.8003 27.0915C33.829 27.8688 34.6177 28.6919 35.1664 29.5606C35.7151 30.4293 36.1952 31.4809 36.6067 32.7155C37.0182 33.95 37.224 35.2989 37.224 36.762C37.224 40.9229 35.6008 44.1007 32.3545 46.2954C29.108 48.4901 24.8101 49.5875 19.4604 49.5875Z" fill="#E50C37"/>
<path d="M172.109 77.5063V68.6375C172.109 68.0426 172.036 67.5499 171.89 67.1594C171.744 66.769 171.544 66.4529 171.289 66.2112C171.034 65.9695 170.72 65.8022 170.346 65.7092C169.973 65.6162 169.567 65.5697 169.13 65.5697C168.729 65.5697 168.337 65.6255 167.955 65.7371C167.572 65.8486 167.212 66.002 166.875 66.1972C166.538 66.3925 166.228 66.6156 165.946 66.8666C165.663 67.1176 165.422 67.3825 165.222 67.6614V77.5063H163.172V58.9043H165.222V65.9881C165.459 65.7092 165.741 65.4349 166.069 65.1654C166.397 64.8958 166.766 64.6494 167.176 64.4263C167.586 64.2032 168.028 64.0265 168.501 63.8964C168.975 63.7662 169.458 63.7012 169.95 63.7012C171.335 63.7012 172.382 64.0498 173.093 64.747C173.803 65.4443 174.159 66.5273 174.159 67.9961V77.5063H172.109Z" fill="#E50C37"/>
<path d="M154.644 77.8409C153.551 77.8409 152.558 77.669 151.665 77.325C150.772 76.981 149.989 76.4465 149.314 75.7213L150.38 74.2153C150.818 74.736 151.423 75.1868 152.198 75.568C152.972 75.9491 153.815 76.1397 154.726 76.1397C155.746 76.1397 156.521 75.9212 157.049 75.4843C157.577 75.0473 157.841 74.4942 157.841 73.8249C157.841 73.2857 157.641 72.872 157.24 72.5838C156.839 72.2957 156.334 72.0586 155.723 71.8727C155.113 71.6867 154.457 71.5147 153.756 71.3567C153.054 71.1987 152.398 70.9756 151.788 70.6874C151.177 70.3992 150.672 70.018 150.271 69.5439C149.87 69.0698 149.67 68.4144 149.67 67.5778C149.67 67.0572 149.779 66.5598 149.998 66.0857C150.216 65.6116 150.535 65.1979 150.954 64.8447C151.373 64.4914 151.888 64.2125 152.498 64.008C153.109 63.8035 153.806 63.7012 154.589 63.7012C155.719 63.7012 156.684 63.8918 157.486 64.2729C158.288 64.6541 158.953 65.1142 159.481 65.6534L158.525 67.1036C158.124 66.6202 157.582 66.2158 156.899 65.8905C156.215 65.5651 155.446 65.4024 154.589 65.4024C153.678 65.4024 152.963 65.6069 152.444 66.016C151.924 66.425 151.665 66.927 151.665 67.522C151.665 68.0054 151.865 68.3772 152.266 68.6375C152.667 68.8978 153.173 69.1163 153.783 69.2929C154.393 69.4695 155.049 69.6369 155.751 69.7949C156.452 69.953 157.108 70.1807 157.718 70.4782C158.329 70.7757 158.834 71.1801 159.235 71.6914C159.636 72.2027 159.837 72.8952 159.837 73.7691C159.837 74.3269 159.727 74.8568 159.509 75.3588C159.29 75.8608 158.962 76.2931 158.525 76.6557C158.087 77.0182 157.545 77.3064 156.899 77.5202C156.252 77.734 155.5 77.8409 154.644 77.8409Z" fill="#E50C37"/>
<path d="M144.287 77.5066V64.0361H146.337V77.5066H144.287Z" fill="#E50C37"/>
<path d="M145.298 62.1117C144.934 62.1117 144.615 61.9769 144.342 61.7073C144.068 61.4377 143.932 61.1077 143.932 60.7172C143.932 60.3268 144.068 59.9921 144.342 59.7132C144.615 59.4343 144.934 59.2949 145.298 59.2949C145.681 59.2949 146.009 59.4343 146.282 59.7132C146.555 59.9921 146.692 60.3268 146.692 60.7172C146.692 61.1077 146.555 61.4377 146.282 61.7073C146.009 61.9769 145.681 62.1117 145.298 62.1117Z" fill="#E50C37"/>
<path d="M137.126 77.5068V65.905H134.939V64.0364H137.126V63.0045C137.126 61.6101 137.477 60.5317 138.178 59.7694C138.88 59.0071 139.804 58.626 140.952 58.626C141.335 58.626 141.699 58.6631 142.045 58.7375C142.391 58.8119 142.692 58.9327 142.947 59.1001L142.428 60.6898C142.282 60.5968 142.114 60.5178 141.922 60.4527C141.731 60.3876 141.508 60.3551 141.253 60.3551C140.579 60.3551 140.064 60.5828 139.709 61.0383C139.353 61.4939 139.176 62.1493 139.176 63.0045V64.0364H141.854V65.905H139.176V77.5068H137.126Z" fill="#E50C37"/>
<path d="M109.312 77.9997C108.328 77.9997 107.595 77.7254 107.112 77.177C106.629 76.6331 106.388 75.8569 106.388 74.8575V66.0632H104.201V64.1946H106.388L106.515 58.7842H108.565L108.437 64.1946H111.116V66.0632H108.437V74.4067C108.437 74.9087 108.547 75.3177 108.765 75.6431C108.984 75.9685 109.321 76.1311 109.777 76.1311C110.068 76.1311 110.337 76.0753 110.583 75.9638C110.829 75.8523 111.025 75.7221 111.17 75.5733L111.772 77.1351C111.517 77.3954 111.193 77.6046 110.801 77.7626C110.41 77.9207 109.913 77.9997 109.312 77.9997Z" fill="#E50C37"/>
<path d="M99.8295 77.6654V76.1315C98.7181 77.3772 97.2605 78.0001 95.4567 78.0001C94.8918 78.0001 94.3362 77.9071 93.7896 77.7212C93.243 77.5352 92.751 77.2517 92.3138 76.8706C91.8764 76.4894 91.5212 76.02 91.2479 75.4622C90.9745 74.9044 90.8379 74.263 90.8379 73.5379C90.8379 72.7942 90.9745 72.1434 91.2479 71.5856C91.5212 71.0278 91.8764 70.563 92.3138 70.1912C92.751 69.8193 93.243 69.5451 93.7896 69.3684C94.3362 69.1918 94.8918 69.1035 95.4567 69.1035C96.3677 69.1035 97.1921 69.2522 97.93 69.5497C98.668 69.8472 99.3012 70.312 99.8295 70.9442V68.5178C99.8295 67.6068 99.5152 66.9049 98.8866 66.4122C98.258 65.9195 97.4609 65.6731 96.4953 65.6731C94.9465 65.6731 93.5983 66.296 92.4503 67.5417L91.4938 66.0915C92.8968 64.6041 94.655 63.8604 96.7685 63.8604C97.4609 63.8604 98.1169 63.944 98.7363 64.1114C99.3558 64.2787 99.8979 64.5436 100.362 64.9062C100.827 65.2687 101.196 65.7382 101.469 66.3146C101.743 66.8909 101.879 67.5882 101.879 68.4062V77.6654H99.8295ZM96.1946 76.4941C96.9234 76.4941 97.6112 76.3546 98.258 76.0757C98.9048 75.7969 99.4287 75.3785 99.8295 74.8207V72.2829C99.4287 71.7251 98.9048 71.3067 98.258 71.0278C97.6112 70.749 96.9234 70.6095 96.1946 70.6095C95.229 70.6095 94.4455 70.8838 93.8442 71.4322C93.243 71.9807 92.9423 72.6919 92.9423 73.5657C92.9423 74.421 93.243 75.1229 93.8442 75.6713C94.4455 76.2199 95.229 76.4941 96.1946 76.4941Z" fill="#E50C37"/>
<path d="M82.1451 78.0001C81.1613 78.0001 80.2594 77.8281 79.4394 77.4841C78.6195 77.1402 77.9135 76.6567 77.3213 76.0339C76.7292 75.4111 76.2646 74.6673 75.9275 73.8028C75.5905 72.9382 75.4219 71.9761 75.4219 70.9163C75.4219 69.9494 75.5859 69.0337 75.9138 68.1692C76.2418 67.3047 76.6973 66.5563 77.2712 65.9241C77.8452 65.292 78.5284 64.79 79.3256 64.4182C80.1181 64.0463 80.9927 63.8604 81.9401 63.8604C82.9468 63.8604 83.8396 64.0463 84.6231 64.4182C85.4111 64.79 86.0761 65.3013 86.6228 65.952C87.1739 66.6028 87.5884 67.3697 87.8708 68.2529C88.1532 69.136 88.2944 70.0796 88.2944 71.0836V71.6135H77.581C77.6174 72.2456 77.7541 72.8453 77.9909 73.4124C78.2278 73.9794 78.5512 74.4721 78.9612 74.8905C79.3711 75.3088 79.8585 75.6435 80.4233 75.8944C80.9881 76.1455 81.6258 76.271 82.3364 76.271C83.1017 76.271 83.8396 76.1222 84.5502 75.8247C85.2607 75.5273 85.8802 75.1089 86.4086 74.5697L87.3925 75.9363C86.7366 76.6057 85.9714 77.1169 85.0968 77.4702C84.2222 77.8235 83.2383 78.0001 82.1451 78.0001ZM86.2446 70.0796C86.2446 69.5776 86.1581 69.0617 85.985 68.5317C85.8119 68.0019 85.5477 67.5185 85.1924 67.0815C84.8371 66.6446 84.3862 66.2867 83.8396 66.0078C83.293 65.7289 82.6462 65.5894 81.8992 65.5894C81.1886 65.5894 80.5691 65.7289 80.0407 66.0078C79.5123 66.2867 79.0705 66.64 78.7152 67.0676C78.3599 67.4952 78.0866 67.974 77.8953 68.5039C77.704 69.0337 77.5992 69.559 77.581 70.0796H86.2446Z" fill="#E50C37"/>
<path d="M70.039 77.6654V68.5178C70.039 67.6626 69.8476 66.9839 69.465 66.4819C69.0824 65.9799 68.4629 65.7289 67.6065 65.7289C66.9142 65.7289 66.2446 65.9381 65.5978 66.3564C64.951 66.7748 64.4545 67.2535 64.1083 67.7927V77.6654H62.0585V68.5178C62.0585 67.6626 61.8718 66.9839 61.4983 66.4819C61.1248 65.9799 60.5007 65.7289 59.6261 65.7289C58.952 65.7289 58.2961 65.9427 57.6584 66.3704C57.0207 66.798 56.5196 67.2814 56.1552 67.8206V77.6654H54.1055V64.195H56.1552V66.1472C56.2828 65.9241 56.4877 65.6824 56.7701 65.4221C57.0525 65.1618 57.3851 64.9155 57.7677 64.6831C58.1503 64.4506 58.5648 64.2554 59.0112 64.0974C59.4576 63.9394 59.9268 63.8604 60.4187 63.8604C61.4391 63.8604 62.2362 64.1021 62.8101 64.5854C63.384 65.0689 63.7712 65.6638 63.9716 66.3704C64.1538 66.0729 64.3998 65.7707 64.7095 65.464C65.0193 65.1572 65.3655 64.8876 65.7481 64.6552C66.1307 64.4228 66.5498 64.2322 67.0053 64.0834C67.4608 63.9347 67.9254 63.8604 68.3991 63.8604C69.6016 63.8604 70.5172 64.1997 71.1458 64.8783C71.7744 65.5569 72.0887 66.5749 72.0887 67.9322V77.6654H70.039Z" fill="#E50C37"/>
<path d="M123.935 71.6674C125.365 71.6674 126.525 70.5402 126.525 69.1496C126.525 67.7591 125.365 66.6318 123.935 66.6318C122.504 66.6318 121.344 67.7591 121.344 69.1496C121.344 70.5402 122.504 71.6674 123.935 71.6674Z" fill="#E50C37"/>
</svg>
