<svg width="274" height="59" viewBox="0 0 274 59" fill="none" xmlns="http://www.w3.org/2000/svg">
<path fill-rule="evenodd" clip-rule="evenodd" d="M0 13.2236H9.14V30.4338L25.0862 13.2236H37.532L20.7107 31.5034L37.8238 58.9233H27.0308L14.2934 38.5042L9.14 44.0466V58.9233H0V13.2236Z" fill="white"/>
<path fill-rule="evenodd" clip-rule="evenodd" d="M87.7037 36.0735C87.7037 48.6166 77.4943 58.9233 64.8539 58.9233C52.2136 58.9233 42.1016 48.6166 42.1016 36.0735C42.1016 23.5306 52.2136 13.2237 64.8539 13.2237C77.4943 13.2237 87.7037 23.5306 87.7037 36.0735ZM64.8539 22.3637C57.2697 22.3637 51.1441 28.5867 51.1441 36.0735C51.1441 43.6576 57.2697 49.7833 64.8539 49.7833C72.4382 49.7833 78.5637 43.6576 78.5637 36.0735C78.5637 28.5867 72.4382 22.461 64.8539 22.3637ZM56.9781 11.2791L74.48 5.83416L72.7297 0L55.2278 5.34786L56.9781 11.2791Z" fill="white"/>
<path d="M110.883 56.5959V50.0104H113.354C113.857 50.0104 114.26 50.0762 114.565 50.2094C114.869 50.343 115.107 50.5484 115.278 50.8259C115.451 51.1017 115.537 51.3916 115.537 51.695C115.537 51.9757 115.461 52.2407 115.309 52.489C115.157 52.7374 114.927 52.9383 114.619 53.0914C115.018 53.208 115.324 53.4073 115.537 53.6893C115.752 53.9699 115.859 54.3025 115.859 54.6857C115.859 54.9956 115.793 55.2821 115.663 55.5473C115.532 55.8124 115.372 56.0163 115.18 56.1604C114.988 56.303 114.748 56.4117 114.46 56.4857C114.17 56.559 113.816 56.5959 113.396 56.5959H110.883ZM111.757 52.7789H113.181C113.568 52.7789 113.845 52.7528 114.012 52.7022C114.234 52.6363 114.401 52.5257 114.513 52.3726C114.625 52.2195 114.682 52.0278 114.682 51.7962C114.682 51.577 114.63 51.3838 114.524 51.2183C114.42 51.0511 114.269 50.9361 114.075 50.8748C113.88 50.8137 113.546 50.7828 113.074 50.7828H111.757V52.7789ZM111.757 55.8233H113.397C113.679 55.8233 113.877 55.8124 113.992 55.7909C114.191 55.7558 114.36 55.6961 114.495 55.6117C114.63 55.5274 114.74 55.4045 114.828 55.2437C114.915 55.0829 114.958 54.8972 114.958 54.6874C114.958 54.4404 114.895 54.2275 114.768 54.045C114.642 53.8627 114.467 53.7355 114.243 53.6618C114.021 53.5882 113.699 53.5514 113.281 53.5514H111.757V55.8233ZM124.301 54.2856L125.175 54.5065C124.992 55.2224 124.664 55.7665 124.191 56.1422C123.717 56.5176 123.137 56.7061 122.452 56.7061C121.744 56.7061 121.167 56.5622 120.723 56.2723C120.278 55.9841 119.941 55.5658 119.71 55.0185C119.478 54.4698 119.362 53.8825 119.362 53.2539C119.362 52.5688 119.492 51.971 119.754 51.4604C120.016 50.9499 120.389 50.5623 120.872 50.2969C121.354 50.0316 121.887 49.9 122.466 49.9C123.125 49.9 123.678 50.0668 124.126 50.4026C124.575 50.7384 124.888 51.2091 125.064 51.8162L124.209 52.0184C124.057 51.5402 123.835 51.1906 123.545 50.9728C123.255 50.7538 122.891 50.6449 122.451 50.6449C121.946 50.6449 121.523 50.7661 121.184 51.0084C120.846 51.2505 120.606 51.577 120.47 51.9847C120.332 52.3941 120.263 52.8156 120.263 53.2494C120.263 53.8091 120.344 54.2978 120.507 54.7151C120.669 55.1334 120.922 55.4444 121.266 55.6515C121.609 55.8585 121.98 55.9612 122.38 55.9612C122.868 55.9612 123.278 55.8203 123.616 55.5396C123.953 55.2576 124.181 54.8407 124.301 54.2856ZM125.328 56.5959L127.855 50.0104H128.813L131.494 56.5959H130.502L129.74 54.5999H126.967L126.253 56.5959H125.328ZM127.223 53.8917H129.467L128.78 52.0662C128.573 51.511 128.417 51.0527 128.308 50.691C128.218 51.1201 128.097 51.5419 127.945 51.9587L127.223 53.8917ZM132.222 56.5959V50.0104H133.096V52.7236H136.499V50.0104H137.372V56.5959H136.499V53.4961H133.096V56.5959H132.222ZM138.846 50.0104H139.719V52.8984C140.116 52.8984 140.397 52.8201 140.558 52.6655C140.72 52.5107 140.926 52.1395 141.177 51.5509C141.36 51.1171 141.51 50.812 141.629 50.6342C141.748 50.4549 141.916 50.3046 142.135 50.1835C142.353 50.0625 142.595 50.0012 142.859 50.0012C143.195 50.0012 143.371 50.004 143.389 50.0104V50.7645C143.359 50.7645 143.3 50.763 143.215 50.7598C143.118 50.7566 143.06 50.7551 143.038 50.7551C142.761 50.7551 142.554 50.8227 142.419 50.9578C142.281 51.0926 142.125 51.3807 141.947 51.8207C141.726 52.3786 141.539 52.7312 141.386 52.877C141.234 53.0211 141.05 53.1373 140.839 53.225C141.263 53.3412 141.683 53.7355 142.097 54.4037L143.454 56.5959H142.371L141.266 54.8114C140.964 54.3164 140.711 53.9762 140.509 53.792C140.305 53.6067 140.043 53.5147 139.719 53.5147V56.5959H138.846V50.0104ZM145.859 56.5959V50.7828H143.688V50.0104H148.903V50.7828H146.733V56.5959H145.859ZM149.38 54.6182V53.8091H151.882V54.6182H149.38ZM152.875 50.0104H158.044V56.5959H157.171V50.7828H153.749V56.5959H152.875V50.0104ZM159.496 56.5959V50.0104H164.251V50.7828H160.37V52.8062H164.003V53.579H160.37V55.8233H164.408V56.5959H159.496ZM167.286 56.5959V50.7828H165.116V50.0104H170.331V50.7828H168.16V56.5959H167.286ZM171.249 56.5959V50.0104H176.004V50.7828H172.123V52.8062H175.756V53.579H172.123V55.8233H176.161V56.5959H171.249ZM177.365 56.5959V50.0104H179.852C180.289 50.0104 180.623 50.0316 180.855 50.0732C181.178 50.1268 181.449 50.2295 181.669 50.3797C181.887 50.5315 182.064 50.7429 182.197 51.0144C182.331 51.2858 182.397 51.5846 182.397 51.9111C182.397 52.4691 182.219 52.943 181.862 53.329C181.506 53.7169 180.861 53.9101 179.929 53.9101H178.239V56.5959H177.365ZM178.239 53.1373H179.941C180.505 53.1373 180.904 53.0333 181.141 52.8232C181.377 52.6134 181.495 52.319 181.495 51.9373C181.495 51.6628 181.426 51.4267 181.287 51.2305C181.147 51.0345 180.963 50.9041 180.737 50.8413C180.589 50.8029 180.318 50.7828 179.924 50.7828H178.239V53.1373ZM183.537 50.0104H187.814V50.7828H184.411V52.8156H185.983C186.565 52.8156 187.026 52.8707 187.369 52.9829C187.713 53.0931 187.987 53.3017 188.194 53.6095C188.401 53.9161 188.504 54.2734 188.504 54.681C188.504 55.0138 188.43 55.3251 188.282 55.6132C188.133 55.9029 187.912 56.1391 187.618 56.3216C187.325 56.5039 186.824 56.5959 186.117 56.5959H183.537V50.0104ZM184.411 55.8508H186.154C186.624 55.8508 186.977 55.7558 187.213 55.5643C187.448 55.3726 187.566 55.086 187.566 54.704C187.566 54.4314 187.498 54.2045 187.363 54.022C187.228 53.8396 187.041 53.7186 186.802 53.6588C186.562 53.599 186.152 53.57 185.574 53.57H184.411V55.8508ZM188.659 50.0104H189.536L191.692 54.0587L193.567 50.0104H194.426L191.959 55.1335C191.651 55.774 191.398 56.1943 191.2 56.392C191.003 56.5895 190.72 56.6879 190.353 56.6879C190.129 56.6879 189.854 56.6358 189.528 56.5314V55.7866C189.761 55.9213 190.008 55.9888 190.268 55.9888C190.48 55.9888 190.662 55.9198 190.817 55.7834C190.97 55.6468 191.141 55.3359 191.326 54.8498L188.659 50.0104ZM195.169 56.5959V50.0104H197.656C198.092 50.0104 198.427 50.0316 198.658 50.0732C198.981 50.1268 199.253 50.2295 199.472 50.3797C199.691 50.5315 199.868 50.7429 200.001 51.0144C200.134 51.2858 200.2 51.5846 200.2 51.9111C200.2 52.4691 200.022 52.943 199.665 53.329C199.309 53.7169 198.664 53.9101 197.732 53.9101H196.043V56.5959H195.169ZM196.043 53.1373H197.744C198.308 53.1373 198.707 53.0333 198.945 52.8232C199.181 52.6134 199.299 52.319 199.299 51.9373C199.299 51.6628 199.23 51.4267 199.091 51.2305C198.951 51.0345 198.767 50.9041 198.54 50.8413C198.393 50.8029 198.122 50.7828 197.728 50.7828H196.043V53.1373ZM201.322 50.0104H205.581V50.7828H202.196V56.5959H201.322V50.0104ZM206.303 56.5959V50.0104H211.058V50.7828H207.176V52.8062H210.81V53.579H207.176V55.8233H211.214V56.5959H206.303ZM111.084 38.0283H112.033V44.2863L116.24 38.0283H117.275V45.9308H116.326V39.6894L112.13 45.9308H111.084V38.0283ZM121.196 45.9308L124.227 38.0283H125.377L128.594 45.9308H127.404L126.49 43.5359H123.162L122.305 45.9308H121.196ZM123.469 42.6859H126.162L125.338 40.4951C125.09 39.8291 124.902 39.2791 124.771 38.8449C124.663 39.3601 124.518 39.8658 124.336 40.3662L123.469 42.6859ZM130.251 38.0283H135.185V45.9308H134.137V38.9555H131.3V43.0261C131.3 43.854 131.261 44.4593 131.184 44.8437C131.107 45.2301 130.943 45.528 130.695 45.7431C130.446 45.9566 130.13 46.0632 129.749 46.0632C129.517 46.0632 129.24 46.0155 128.916 45.9199L129.104 44.9927C129.275 45.0809 129.422 45.1251 129.543 45.1251C129.779 45.1251 129.957 45.0369 130.075 44.8585C130.193 44.6798 130.251 44.2607 130.251 43.5983V38.0283ZM136.932 45.9308V38.0283H142.639V38.9555H137.981V41.3836H142.341V42.3106H137.981V45.0038H142.826V45.9308H136.932ZM144.294 38.0283H145.343V41.4938C145.819 41.4938 146.156 41.3999 146.349 41.2144C146.544 41.0284 146.791 40.5835 147.092 39.8769C147.311 39.3564 147.491 38.9905 147.635 38.7768C147.776 38.5618 147.979 38.3814 148.242 38.2361C148.503 38.0907 148.794 38.0172 149.11 38.0172C149.513 38.0172 149.725 38.0207 149.747 38.0283V38.9333C149.71 38.9333 149.64 38.9314 149.537 38.9278C149.421 38.9243 149.351 38.9224 149.325 38.9224C148.992 38.9224 148.744 39.0031 148.582 39.1651C148.417 39.327 148.229 39.6728 148.016 40.2007C147.751 40.8702 147.526 41.2933 147.342 41.468C147.16 41.6411 146.939 41.7809 146.686 41.8857C147.195 42.0254 147.699 42.4982 148.196 43.3003L149.824 45.9308H148.525L147.199 43.7894C146.837 43.1954 146.533 42.7869 146.29 42.5663C146.046 42.3437 145.731 42.2333 145.343 42.2333V45.9308H144.294V38.0283ZM156.207 43.1585L157.255 43.4233C157.037 44.2825 156.643 44.9357 156.074 45.3864C155.506 45.8369 154.811 46.0632 153.989 46.0632C153.139 46.0632 152.447 45.8904 151.914 45.5425C151.38 45.197 150.975 44.6947 150.698 44.038C150.42 43.3793 150.28 42.6748 150.28 41.9206C150.28 41.0984 150.436 40.3811 150.751 39.7684C151.065 39.1561 151.512 38.6906 152.092 38.3723C152.672 38.0538 153.31 37.8958 154.005 37.8958C154.796 37.8958 155.46 38.0964 155.997 38.4991C156.536 38.9021 156.912 39.4668 157.123 40.1952L156.097 40.4379C155.914 39.8641 155.648 39.4446 155.3 39.1833C154.952 38.9203 154.515 38.79 153.986 38.79C153.381 38.79 152.874 38.9352 152.467 39.2258C152.06 39.5163 151.774 39.9081 151.61 40.3974C151.445 40.8886 151.362 41.3945 151.362 41.9152C151.362 42.5866 151.459 43.1733 151.654 43.6737C151.849 44.1758 152.153 44.5493 152.565 44.7978C152.977 45.0459 153.422 45.1693 153.902 45.1693C154.487 45.1693 154.98 45 155.385 44.6635C155.789 44.325 156.063 43.8244 156.207 43.1585ZM157.44 45.9308L160.471 38.0283H161.621L164.838 45.9308H163.648L162.733 43.5359H159.406L158.549 45.9308H157.44ZM159.713 42.6859H162.406L161.582 40.4951C161.334 39.8291 161.146 39.2791 161.015 38.8449C160.907 39.3601 160.762 39.8658 160.579 40.3662L159.713 42.6859ZM165.712 45.9308V38.0283H166.76V41.2842H170.844V38.0283H171.892V45.9308H170.844V42.2113H166.76V45.9308H165.712ZM174.355 38.0283H179.167V45.0038H179.874V47.774H178.947V45.9308H173.715V47.774H172.788V45.0038H173.395C174.035 44.0434 174.355 42.1029 174.355 39.1833V38.0283ZM178.119 38.9555H175.36V39.3602C175.36 40.0333 175.299 40.955 175.178 42.1229C175.058 43.2909 174.819 44.2513 174.466 45.0038H178.119V38.9555ZM181.112 45.9308V38.0283H184.096C184.62 38.0283 185.021 38.0539 185.299 38.1037C185.687 38.168 186.012 38.2914 186.275 38.4717C186.538 38.6536 186.75 38.9075 186.91 39.2332C187.07 39.5588 187.149 39.9176 187.149 40.3092C187.149 40.9789 186.936 41.5472 186.507 42.011C186.081 42.4762 185.306 42.7081 184.187 42.7081H182.16V45.9308H181.112ZM182.16 41.7809H184.202C184.879 41.7809 185.358 41.6558 185.643 41.4037C185.926 41.1518 186.067 40.7985 186.067 40.3404C186.067 40.011 185.985 39.7279 185.818 39.4926C185.65 39.2571 185.429 39.1007 185.157 39.0253C184.98 38.9792 184.655 38.9555 184.182 38.9555H182.16V41.7809ZM186.87 45.9308L189.901 38.0283H191.051L194.268 45.9308H193.078L192.164 43.5359H188.836L187.979 45.9308H186.87ZM189.143 42.6859H191.836L191.012 40.4951C190.764 39.8291 190.576 39.2791 190.445 38.8449C190.337 39.3601 190.192 39.8658 190.01 40.3662L189.143 42.6859ZM198.175 38.0283H204.378V45.9308H203.33V38.9555H199.224V45.9308H198.175V38.0283ZM206.098 45.9308V38.0283H209.082C209.606 38.0283 210.007 38.0539 210.285 38.1037C210.673 38.168 210.998 38.2914 211.261 38.4717C211.524 38.6536 211.736 38.9075 211.896 39.2332C212.056 39.5588 212.135 39.9176 212.135 40.3092C212.135 40.9789 211.922 41.5472 211.493 42.011C211.067 42.4762 210.292 42.7081 209.174 42.7081H207.147V45.9308H206.098ZM207.147 41.7809H209.188C209.865 41.7809 210.344 41.6558 210.629 41.4037C210.912 41.1518 211.054 40.7985 211.054 40.3404C211.054 40.011 210.971 39.7279 210.804 39.4926C210.636 39.2571 210.415 39.1007 210.143 39.0253C209.966 38.9792 209.641 38.9555 209.168 38.9555H207.147V41.7809ZM212.897 42.0843C212.897 40.7744 213.25 39.7481 213.955 39.0069C214.659 38.2657 215.568 37.8958 216.683 37.8958C217.413 37.8958 218.07 38.0706 218.657 38.4181C219.241 38.7659 219.689 39.2514 219.996 39.875C220.303 40.4968 220.457 41.2032 220.457 41.9923C220.457 42.7926 220.295 43.5101 219.972 44.141C219.648 44.7737 219.19 45.2521 218.598 45.5756C218.003 45.9013 217.363 46.0632 216.677 46.0632C215.932 46.0632 215.268 45.883 214.681 45.5243C214.096 45.1655 213.651 44.6762 213.35 44.0543C213.048 43.4346 212.897 42.7779 212.897 42.0843ZM213.979 42.1029C213.979 43.0537 214.234 43.8026 214.746 44.3487C215.257 44.8952 215.899 45.1693 216.672 45.1693C217.459 45.1693 218.105 44.8933 218.614 44.3414C219.122 43.7894 219.376 43.0061 219.376 41.9904C219.376 41.3486 219.267 40.7876 219.05 40.3092C218.833 39.831 218.515 39.4595 218.097 39.1963C217.678 38.9333 217.209 38.8009 216.688 38.8009C215.949 38.8009 215.312 39.0548 214.779 39.5624C214.245 40.0701 213.979 40.9163 213.979 42.1029ZM221.824 38.0283H222.873V41.4938C223.349 41.4938 223.686 41.3999 223.879 41.2144C224.074 41.0284 224.32 40.5835 224.622 39.8769C224.841 39.3564 225.021 38.9905 225.165 38.7768C225.306 38.5618 225.509 38.3814 225.772 38.2361C226.033 38.0907 226.323 38.0172 226.64 38.0172C227.043 38.0172 227.254 38.0207 227.277 38.0283V38.9333C227.24 38.9333 227.17 38.9314 227.067 38.9278C226.951 38.9243 226.881 38.9224 226.855 38.9224C226.522 38.9224 226.274 39.0031 226.112 39.1651C225.946 39.327 225.759 39.6728 225.546 40.2007C225.281 40.8702 225.056 41.2933 224.872 41.468C224.69 41.6411 224.469 41.7809 224.215 41.8857C224.725 42.0254 225.229 42.4982 225.726 43.3003L227.354 45.9308H226.055L224.729 43.7894C224.366 43.1954 224.063 42.7869 223.82 42.5663C223.575 42.3437 223.261 42.2333 222.873 42.2333V45.9308H221.824V38.0283ZM227.788 42.0843C227.788 40.7744 228.141 39.7481 228.845 39.0069C229.55 38.2657 230.459 37.8958 231.573 37.8958C232.304 37.8958 232.96 38.0706 233.547 38.4181C234.132 38.7659 234.579 39.2514 234.886 39.875C235.194 40.4968 235.348 41.2032 235.348 41.9923C235.348 42.7926 235.186 43.5101 234.862 44.141C234.539 44.7737 234.081 45.2521 233.488 45.5756C232.894 45.9013 232.254 46.0632 231.568 46.0632C230.823 46.0632 230.159 45.883 229.572 45.5243C228.987 45.1655 228.542 44.6762 228.24 44.0543C227.939 43.4346 227.788 42.7779 227.788 42.0843ZM228.87 42.1029C228.87 43.0537 229.125 43.8026 229.637 44.3487C230.148 44.8952 230.79 45.1693 231.562 45.1693C232.35 45.1693 232.995 44.8933 233.505 44.3414C234.013 43.7894 234.266 43.0061 234.266 41.9904C234.266 41.3486 234.158 40.7876 233.941 40.3092C233.724 39.831 233.405 39.4595 232.988 39.1963C232.569 38.9333 232.1 38.8009 231.579 38.8009C230.84 38.8009 230.203 39.0548 229.67 39.5624C229.136 40.0701 228.87 40.9163 228.87 42.1029ZM239.552 38.9664V37.962H240.534V38.9664C241.54 39.0196 242.335 39.3233 242.916 39.8769C243.499 40.4306 243.79 41.1168 243.79 41.9374C243.79 42.7412 243.508 43.4234 242.944 43.9864C242.379 44.5474 241.577 44.8585 240.534 44.9153V45.9308H239.552V44.9153C238.617 44.8785 237.839 44.5936 237.217 44.0583C236.595 43.5246 236.284 42.8165 236.284 41.9374C236.284 41.0561 236.595 40.3499 237.215 39.8201C237.835 39.2902 238.613 39.0069 239.552 38.9664ZM240.534 39.8604V44.0212C241.209 43.9881 241.739 43.7913 242.127 43.4311C242.515 43.0704 242.708 42.5738 242.708 41.941C242.708 41.3192 242.518 40.8281 242.138 40.4637C241.757 40.1014 241.224 39.9008 240.534 39.8604ZM239.552 39.8715C238.9 39.9008 238.374 40.0921 237.971 40.4492C237.568 40.8059 237.366 41.3025 237.366 41.941C237.366 42.5719 237.565 43.0669 237.962 43.4271C238.359 43.7877 238.889 43.9809 239.552 44.0103V39.8715ZM245.129 38.0283H246.178V41.3945H248.059C248.939 41.3945 249.575 41.4976 249.97 41.7017C250.364 41.9079 250.647 42.1874 250.82 42.5388C250.991 42.8919 251.078 43.2561 251.078 43.6297C251.078 44.2421 250.87 44.7791 250.453 45.2391C250.037 45.7009 249.262 45.9308 248.127 45.9308H245.129V38.0283ZM246.178 45.0369H248.087C248.861 45.0369 249.365 44.8988 249.601 44.6249C249.834 44.3506 249.952 44.0176 249.952 43.6297C249.952 43.315 249.867 43.0464 249.696 42.8257C249.527 42.605 249.299 42.4613 249.016 42.397C248.733 42.3326 248.252 42.2995 247.575 42.2995H246.178V45.0369ZM252.351 45.9308V38.0283H258.057V38.9555H253.399V41.3836H257.759V42.3106H253.399V45.0038H258.245V45.9308H252.351ZM259.646 45.9308V38.0283H262.612C263.215 38.0283 263.699 38.1073 264.065 38.2674C264.429 38.4275 264.714 38.6739 264.92 39.0069C265.128 39.338 265.231 39.6858 265.231 40.05C265.231 40.3865 265.139 40.7046 264.957 41.0026C264.775 41.3006 264.499 41.5418 264.129 41.7256C264.607 41.8653 264.975 42.1046 265.231 42.4431C265.489 42.7798 265.617 43.1788 265.617 43.6388C265.617 44.0103 265.538 44.3542 265.382 44.6725C265.226 44.991 265.033 45.2355 264.803 45.4084C264.573 45.5794 264.284 45.7099 263.938 45.7984C263.59 45.8868 263.165 45.9308 262.661 45.9308H259.646ZM260.695 41.3505H262.404C262.867 41.3505 263.201 41.3192 263.401 41.2585C263.668 41.1795 263.868 41.047 264.002 40.8629C264.137 40.6791 264.205 40.4492 264.205 40.1711C264.205 39.9081 264.142 39.6764 264.015 39.4777C263.89 39.2772 263.71 39.1393 263.476 39.0657C263.243 38.9922 262.842 38.9555 262.275 38.9555H260.695V41.3505ZM260.695 45.0038H262.663C263.002 45.0038 263.239 44.991 263.377 44.965C263.616 44.9229 263.818 44.8508 263.98 44.7498C264.142 44.6486 264.275 44.5015 264.379 44.3083C264.484 44.1151 264.536 43.8927 264.536 43.6406C264.536 43.3445 264.461 43.0887 264.308 42.8699C264.157 42.6509 263.947 42.4982 263.679 42.41C263.412 42.3217 263.026 42.2775 262.523 42.2775H260.695V45.0038ZM265.82 45.9308L268.851 38.0283H270.001L273.218 45.9308H272.028L271.114 43.5359H267.786L266.929 45.9308H265.82ZM268.093 42.6859H270.786L269.962 40.4951C269.714 39.8291 269.526 39.2791 269.396 38.8449C269.287 39.3601 269.142 39.8658 268.96 40.3662L268.093 42.6859ZM111.062 21.2703V13.3678H114.045C114.569 13.3678 114.971 13.3934 115.248 13.4432C115.637 13.5076 115.962 13.6308 116.225 13.811C116.488 13.9931 116.7 14.2469 116.86 14.5725C117.02 14.8981 117.099 15.2569 117.099 15.6486C117.099 16.3185 116.885 16.8868 116.457 17.3503C116.03 17.8157 115.256 18.0475 114.137 18.0475H112.11V21.2703H111.062ZM112.11 17.1204H114.152C114.829 17.1204 115.307 16.9951 115.592 16.743C115.876 16.4911 116.017 16.1381 116.017 15.6798C116.017 15.3506 115.934 15.0675 115.767 14.8319C115.6 14.5966 115.379 14.4401 115.107 14.3648C114.93 14.3187 114.605 14.2948 114.132 14.2948H112.11V17.1204ZM118.445 21.2703V13.3678H124.151V14.2948H119.494V16.7231H123.853V17.6502H119.494V20.3431H124.339V21.2703H118.445ZM131.414 18.498L132.463 18.7629C132.244 19.622 131.85 20.275 131.281 20.7259C130.713 21.1765 130.018 21.4028 129.196 21.4028C128.346 21.4028 127.654 21.2299 127.12 20.8821C126.587 20.5363 126.183 20.0342 125.904 19.3775C125.627 18.7189 125.487 18.0144 125.487 17.2602C125.487 16.4377 125.643 15.7206 125.958 15.1079C126.272 14.4954 126.72 14.03 127.299 13.7117C127.878 13.3934 128.517 13.2354 129.212 13.2354C130.003 13.2354 130.667 13.4359 131.204 13.8387C131.743 14.2414 132.119 14.8062 132.33 15.5348L131.304 15.7774C131.122 15.2035 130.855 14.784 130.507 14.5229C130.16 14.2597 129.721 14.1293 129.194 14.1293C128.588 14.1293 128.081 14.2745 127.674 14.5654C127.268 14.8558 126.981 15.2477 126.817 15.737C126.651 16.2282 126.569 16.734 126.569 17.2545C126.569 17.9259 126.666 18.5129 126.861 19.0133C127.056 19.5154 127.36 19.8888 127.772 20.1371C128.184 20.3854 128.629 20.5086 129.109 20.5086C129.694 20.5086 130.187 20.3395 130.592 20.003C130.997 19.6645 131.27 19.164 131.414 18.498ZM135.398 21.2703V14.2948H132.794V13.3678H139.051V14.2948H136.447V21.2703H135.398ZM139.314 17.4239C139.314 16.114 139.668 15.0876 140.372 14.3462C141.077 13.605 141.986 13.2354 143.1 13.2354C143.83 13.2354 144.487 13.4101 145.074 13.7576C145.659 14.1054 146.106 14.5908 146.413 15.2146C146.72 15.8363 146.875 16.5427 146.875 17.3318C146.875 18.1319 146.713 18.8494 146.389 19.4804C146.065 20.1132 145.607 20.5916 145.015 20.9152C144.421 21.2408 143.781 21.4028 143.095 21.4028C142.35 21.4028 141.686 21.2225 141.099 20.8638C140.514 20.5051 140.069 20.0156 139.767 19.3938C139.465 18.7742 139.314 18.1175 139.314 17.4239ZM140.396 17.4423C140.396 18.3932 140.652 19.142 141.163 19.6883C141.675 20.2347 142.317 20.5086 143.089 20.5086C143.877 20.5086 144.522 20.2329 145.032 19.6809C145.54 19.129 145.793 18.3454 145.793 17.33C145.793 16.6881 145.685 16.127 145.468 15.6486C145.251 15.1704 144.932 14.7988 144.515 14.5358C144.095 14.2728 143.626 14.1404 143.106 14.1404C142.366 14.1404 141.73 14.3942 141.196 14.9019C140.663 15.4095 140.396 16.2558 140.396 17.4423ZM148.22 21.2703V13.3678H151.203C151.727 13.3678 152.129 13.3934 152.406 13.4432C152.795 13.5076 153.12 13.6308 153.383 13.811C153.646 13.9931 153.858 14.2469 154.018 14.5725C154.178 14.8981 154.257 15.2569 154.257 15.6486C154.257 16.3185 154.043 16.8868 153.615 17.3503C153.188 17.8157 152.414 18.0475 151.295 18.0475H149.268V21.2703H148.22ZM149.268 17.1204H151.31C151.987 17.1204 152.465 16.9951 152.75 16.743C153.034 16.4911 153.175 16.1381 153.175 15.6798C153.175 15.3506 153.093 15.0675 152.925 14.8319C152.758 14.5966 152.537 14.4401 152.265 14.3648C152.088 14.3187 151.763 14.2948 151.29 14.2948H149.268V17.1204ZM153.977 21.2703L157.009 13.3678H158.159L161.376 21.2703H160.186L159.271 18.8752H155.944L155.087 21.2703H153.977ZM156.251 18.0253H158.944L158.12 15.8344C157.872 15.1687 157.684 14.6184 157.553 14.1844C157.445 14.6995 157.299 15.2054 157.117 15.7058L156.251 18.0253ZM162.25 21.2703V13.3678H163.298V16.6238H167.382V13.3678H168.43V21.2703H167.382V17.5508H163.298V21.2703H162.25ZM170.231 13.3678H171.28V16.734H173.162C174.396 16.734 175.207 16.962 175.597 17.4203C175.985 17.8765 176.18 18.3951 176.18 18.9745C176.18 19.587 175.972 20.1222 175.555 20.5822C175.139 21.0403 174.366 21.2703 173.235 21.2703H170.231V13.3678ZM171.28 20.3762H173.185C173.84 20.3762 174.317 20.266 174.611 20.0451C174.907 19.8243 175.054 19.4713 175.054 18.9856C175.054 18.6562 174.964 18.3786 174.786 18.156C174.607 17.9333 174.375 17.7916 174.092 17.7311C173.811 17.6703 173.338 17.6389 172.676 17.6389H171.28V20.3762ZM177.129 13.3678H178.178V21.2703H177.129V13.3678ZM110.195 33.6005L113.227 25.6981H114.376L117.594 33.6005H116.404L115.489 31.2055H112.162L111.304 33.6005H110.195ZM112.469 30.3556H115.162L114.338 28.1648C114.089 27.4988 113.902 26.9488 113.771 26.5146C113.663 27.0298 113.517 27.5357 113.335 28.0359L112.469 30.3556ZM119.251 25.6981H124.184V33.6005H123.136V26.6252H120.3V30.6959C120.3 31.5236 120.261 32.129 120.184 32.5133C120.106 32.8997 119.943 33.1977 119.694 33.4127C119.446 33.6263 119.13 33.7329 118.749 33.7329C118.517 33.7329 118.239 33.6853 117.916 33.5896L118.103 32.6625C118.274 32.7506 118.421 32.795 118.543 32.795C118.778 32.795 118.957 32.7065 119.074 32.5282C119.192 32.3497 119.251 31.9303 119.251 31.2682V25.6981ZM125.932 33.6005V25.6981H131.638V26.6252H126.981V29.0532H131.34V29.9805H126.981V32.6734H131.826V33.6005H125.932ZM133.294 25.6981H134.343V29.1637C134.819 29.1637 135.155 29.0698 135.349 28.8841C135.544 28.6983 135.79 28.2532 136.092 27.5466C136.311 27.0262 136.491 26.6602 136.634 26.4467C136.776 26.2314 136.978 26.051 137.242 25.9058C137.503 25.7604 137.793 25.6868 138.11 25.6868C138.513 25.6868 138.724 25.6906 138.746 25.6981V26.603C138.71 26.603 138.64 26.6013 138.537 26.5975C138.421 26.5939 138.351 26.5921 138.325 26.5921C137.992 26.5921 137.744 26.673 137.582 26.8347C137.416 26.9967 137.229 27.3425 137.015 27.8703C136.751 28.5399 136.526 28.9631 136.342 29.1377C136.16 29.311 135.939 29.4506 135.685 29.5555C136.195 29.6951 136.699 30.1679 137.196 30.9702L138.823 33.6005H137.525L136.199 31.4593C135.836 30.865 135.533 30.4568 135.29 30.2359C135.045 30.0136 134.731 29.903 134.343 29.903V33.6005H133.294V25.6981ZM145.207 30.8283L146.255 31.0932C146.036 31.9522 145.643 32.6053 145.074 33.0561C144.506 33.5066 143.81 33.7329 142.988 33.7329C142.138 33.7329 141.447 33.56 140.913 33.2124C140.38 32.8666 139.975 32.3645 139.697 31.7076C139.42 31.0492 139.28 30.3447 139.28 29.5903C139.28 28.7681 139.436 28.0508 139.751 27.438C140.065 26.8257 140.512 26.3603 141.092 26.042C141.671 25.7237 142.309 25.5657 143.005 25.5657C143.796 25.5657 144.46 25.766 144.997 26.169C145.536 26.5718 145.911 27.1365 146.123 27.8649L145.096 28.1077C144.914 27.5338 144.647 27.1143 144.3 26.853C143.952 26.59 143.514 26.4596 142.986 26.4596C142.381 26.4596 141.873 26.6049 141.467 26.8955C141.06 27.186 140.773 27.5778 140.61 28.0673C140.444 28.5585 140.361 29.0642 140.361 29.5849C140.361 30.2563 140.459 30.8432 140.654 31.3434C140.849 31.8457 141.152 32.2189 141.565 32.4674C141.977 32.7156 142.421 32.839 142.902 32.839C143.487 32.839 143.98 32.6697 144.384 32.3331C144.789 31.9947 145.063 31.4941 145.207 30.8283ZM147.57 33.6005V25.6981H153.276V26.6252H148.619V29.0532H152.978V29.9805H148.619V32.6734H153.464V33.6005H147.57ZM161.157 33.6005V25.6981H157.654C156.95 25.6981 156.416 25.7698 156.05 25.9113C155.684 26.0529 155.392 26.3033 155.173 26.6621C154.954 27.0204 154.844 27.4177 154.844 27.8521C154.844 28.4129 155.026 28.886 155.388 29.2701C155.75 29.6549 156.31 29.8975 157.068 30.0023C156.79 30.1347 156.58 30.2672 156.437 30.396C156.131 30.6758 155.843 31.027 155.572 31.4482L154.205 33.6005H155.512L156.556 31.9559C156.86 31.4796 157.112 31.1171 157.309 30.865C157.507 30.6131 157.684 30.4386 157.84 30.3374C157.995 30.238 158.155 30.1679 158.317 30.1274C158.434 30.1035 158.628 30.0907 158.898 30.0907H160.108V33.6005H161.157ZM160.108 29.1857H157.864C157.386 29.1857 157.014 29.136 156.746 29.0367C156.477 28.939 156.273 28.781 156.135 28.5621C155.995 28.345 155.925 28.1094 155.925 27.854C155.925 27.4804 156.06 27.1715 156.33 26.9305C156.601 26.6893 157.027 26.5699 157.61 26.5699H160.108V29.1857ZM165.969 25.6981H167.018V29.1637C167.494 29.1637 167.831 29.0698 168.024 28.8841C168.219 28.6983 168.465 28.2532 168.767 27.5466C168.986 27.0262 169.166 26.6602 169.31 26.4467C169.451 26.2314 169.653 26.051 169.917 25.9058C170.178 25.7604 170.469 25.6868 170.785 25.6868C171.188 25.6868 171.399 25.6906 171.421 25.6981V26.603C171.385 26.603 171.315 26.6013 171.211 26.5975C171.096 26.5939 171.026 26.5921 171 26.5921C170.667 26.5921 170.419 26.673 170.257 26.8347C170.091 26.9967 169.904 27.3425 169.691 27.8703C169.426 28.5399 169.201 28.9631 169.017 29.1377C168.835 29.311 168.614 29.4506 168.36 29.5555C168.87 29.6951 169.374 30.1679 169.871 30.9702L171.499 33.6005H170.2L168.874 31.4593C168.511 30.865 168.208 30.4568 167.965 30.2359C167.72 30.0136 167.406 29.903 167.018 29.903V33.6005H165.969V25.6981ZM172.376 33.6005V25.6981H175.36C175.884 25.6981 176.285 25.7237 176.563 25.7734C176.951 25.8379 177.276 25.9611 177.539 26.1413C177.803 26.3232 178.014 26.5772 178.174 26.9028C178.334 27.2285 178.413 27.5872 178.413 27.9789C178.413 28.6486 178.2 29.2171 177.771 29.6806C177.345 30.146 176.57 30.3778 175.452 30.3778H173.425V33.6005H172.376ZM173.425 29.4505H175.467C176.143 29.4505 176.622 29.3255 176.907 29.0734C177.19 28.8215 177.332 28.4682 177.332 28.0101C177.332 27.6809 177.249 27.3978 177.082 27.1623C176.914 26.9269 176.693 26.7704 176.421 26.6952C176.244 26.6489 175.919 26.6252 175.446 26.6252H173.425V29.4505ZM179.793 25.6981H180.842V29.0641H182.723C183.958 29.0641 184.769 29.2923 185.159 29.7504C185.547 30.2068 185.742 30.7253 185.742 31.3049C185.742 31.9174 185.534 32.4526 185.117 32.9125C184.701 33.3706 183.928 33.6005 182.797 33.6005H179.793V25.6981ZM180.842 32.7065H182.747C183.402 32.7065 183.879 32.5963 184.173 32.3754C184.469 32.1546 184.616 31.8015 184.616 31.3158C184.616 30.9866 184.526 30.7089 184.348 30.4861C184.169 30.2636 183.937 30.1219 183.654 30.0612C183.373 30.0004 182.9 29.9692 182.238 29.9692H180.842V32.7065ZM186.691 25.6981H187.74V33.6005H186.691V25.6981ZM190.094 25.6981H195.028V33.6005H193.979V26.6252H191.143V30.6959C191.143 31.5236 191.104 32.129 191.027 32.5133C190.95 32.8997 190.786 33.1977 190.538 33.4127C190.289 33.6263 189.973 33.7329 189.592 33.7329C189.36 33.7329 189.083 33.6853 188.759 33.5896L188.947 32.6625C189.118 32.7506 189.265 32.795 189.386 32.795C189.622 32.795 189.8 32.7065 189.918 32.5282C190.036 32.3497 190.094 31.9303 190.094 31.2682V25.6981ZM196.434 29.7542C196.434 28.4443 196.787 27.4177 197.491 26.6765C198.196 25.9353 199.105 25.5657 200.219 25.5657C200.949 25.5657 201.606 25.7403 202.193 26.0879C202.778 26.4357 203.225 26.9211 203.532 27.5447C203.839 28.1666 203.994 28.8728 203.994 29.662C203.994 30.4623 203.832 31.1797 203.508 31.8107C203.185 32.4435 202.726 32.9219 202.134 33.2455C201.54 33.5711 200.9 33.7329 200.214 33.7329C199.469 33.7329 198.805 33.5529 198.218 33.1941C197.633 32.8354 197.188 32.3459 196.886 31.7242C196.584 31.1043 196.434 30.4476 196.434 29.7542ZM197.515 29.7726C197.515 30.7236 197.771 31.4723 198.282 32.0184C198.793 32.5649 199.436 32.839 200.208 32.839C200.996 32.839 201.641 32.5632 202.15 32.0112C202.658 31.4593 202.912 30.6758 202.912 29.6603C202.912 29.0184 202.804 28.4573 202.587 27.9789C202.37 27.5007 202.051 27.1291 201.634 26.8662C201.214 26.603 200.745 26.4705 200.225 26.4705C199.485 26.4705 198.849 26.7245 198.315 27.2322C197.782 27.7398 197.515 28.5861 197.515 29.7726Z" fill="white"/>
<path d="M205.295 33.6006V25.6982H208.26C208.864 25.6982 209.348 25.7773 209.714 25.9373C210.078 26.0974 210.363 26.3437 210.569 26.6767C210.777 27.0077 210.88 27.3556 210.88 27.7198C210.88 28.0563 210.788 28.3744 210.606 28.6724C210.424 28.9706 210.148 29.2118 209.778 29.3956C210.256 29.5351 210.624 29.7746 210.88 30.113C211.137 30.4496 211.266 30.8488 211.266 31.3087C211.266 31.6803 211.187 32.0242 211.031 32.3425C210.874 32.6608 210.681 32.9053 210.451 33.0782C210.221 33.2492 209.932 33.3798 209.587 33.4682C209.239 33.5566 208.814 33.6006 208.31 33.6006H205.295ZM206.344 29.0203H208.053C208.516 29.0203 208.849 28.989 209.05 28.9283C209.316 28.8493 209.517 28.7168 209.651 28.5328C209.785 28.3488 209.853 28.119 209.853 27.8411C209.853 27.5779 209.791 27.3462 209.664 27.1475C209.539 26.947 209.359 26.8091 209.125 26.7355C208.891 26.6622 208.49 26.6253 207.924 26.6253H206.344V29.0203ZM206.344 32.6735H208.312C208.65 32.6735 208.888 32.6608 209.026 32.635C209.265 32.5927 209.467 32.5208 209.629 32.4196C209.791 32.3184 209.923 32.1715 210.028 31.9783C210.133 31.7851 210.185 31.5625 210.185 31.3104C210.185 31.0143 210.109 30.7585 209.956 30.5397C209.805 30.3207 209.596 30.168 209.327 30.0799C209.061 29.9915 208.674 29.9475 208.172 29.9475H206.344V32.6735ZM211.468 33.6006L214.5 25.6982H215.65L218.867 33.6006H217.677L216.763 31.2056H213.435L212.578 33.6006H211.468ZM213.742 30.3557H216.435L215.611 28.1649C215.363 27.4989 215.175 26.9489 215.044 26.5147C214.936 27.03 214.791 27.5358 214.608 28.036L213.742 30.3557Z" fill="white"/>
</svg>
