<svg width="250" height="64" viewBox="0 0 250 64" fill="none" xmlns="http://www.w3.org/2000/svg">
<path fill-rule="evenodd" clip-rule="evenodd" d="M33.6715 38.3596C33.6715 33.2449 30.2618 29.4094 25.5734 28.1307L12.7867 24.7208C11.508 24.2947 11.0817 23.4421 11.0817 22.1634C11.0817 20.8848 11.9341 20.0324 13.2128 20.0324H27.7044L32.3928 11.508H13.2128C7.67201 11.508 2.55734 16.6227 2.55734 22.1634C2.55734 26.8521 5.96705 31.1141 9.80305 31.9665L23.4421 35.3762C24.2947 35.8023 25.1471 37.081 25.1471 38.3596C25.1471 40.0646 23.8684 41.3432 22.1634 41.3432H4.26231L0 49.8676H22.5897C28.5568 49.4416 33.6715 44.753 33.6715 38.3596ZM249.766 11.508H239.962L231.438 23.8684L222.914 11.508H213.111L226.323 30.6881L213.111 49.8676H223.34L231.438 37.9336L239.962 49.8676H249.766L236.553 31.1141L249.766 11.508ZM202.455 32.8189C202.455 36.2286 201.603 39.2122 199.898 41.7696C198.193 44.3269 196.062 46.4579 193.078 47.7366C190.947 49.4416 187.964 49.8676 184.554 49.8676C181.57 49.8676 178.587 49.4416 176.029 47.7366C173.046 46.4579 170.915 44.3269 169.21 41.7696C167.505 39.2122 166.653 36.2286 166.653 32.8189V11.508H174.751V32.8189C174.751 35.8023 175.603 37.9335 177.734 39.6383C179.439 40.917 181.997 41.7696 184.554 41.7696C187.537 41.7696 189.669 40.917 191.8 39.6383C193.078 37.9335 194.357 35.8023 194.357 32.8189V11.508H202.455V32.8189ZM145.342 0V58.392L154.292 53.7036V4.26233L145.342 0ZM108.686 40.0646C110.391 41.3433 112.096 41.7696 114.227 41.7696C115.932 41.7696 117.637 41.3433 119.342 40.0646C121.047 39.2122 122.325 37.9335 123.604 36.2286C124.457 34.5236 124.883 32.8189 124.883 31.5404C124.883 29.4094 124.457 27.7044 123.604 25.9994C122.752 24.2947 121.047 23.016 119.342 21.7374C118.063 20.8848 115.932 20.4587 114.227 20.4587C112.096 20.4587 110.391 20.8848 108.686 21.7374C106.982 23.016 105.703 24.2947 104.85 25.9994C103.572 27.7044 103.146 29.4094 103.146 31.5404C103.146 32.8189 103.572 34.5236 104.85 36.2286C105.703 37.9335 106.982 39.2122 108.686 40.0646ZM102.719 0V15.344C106.129 13.2128 109.965 11.9341 114.227 11.9341C117.637 11.9341 120.621 12.7867 123.604 14.4914C127.014 16.1964 129.145 18.7537 130.85 21.7374C132.981 24.7208 133.833 27.7044 133.833 31.5404C133.833 34.5236 132.555 37.5072 130.85 40.4909C129.145 43.4743 127.014 46.0316 124.03 47.7366C121.047 49.4416 117.637 50.2939 114.227 50.2939C110.391 50.2939 107.408 49.4416 104.424 47.7366C101.441 46.0316 98.8834 43.9006 97.1784 40.9169C95.4737 37.9335 94.6211 34.9499 94.6211 31.9665V4.26233L102.719 0ZM57.1136 40.4909C58.8186 41.3432 60.9496 41.7696 63.0809 41.7696C65.2119 41.7696 66.9169 41.3432 68.6216 40.4909C70.3266 39.2122 72.0313 37.9335 72.8839 36.2286C73.7363 34.5236 74.5887 32.8189 74.5887 31.1141C74.5887 28.9831 73.7363 26.8521 72.8839 25.1471C72.0313 23.4421 70.3266 22.1635 68.6216 20.8848C66.9169 20.0324 65.2119 19.6061 63.0809 19.6061C60.9496 19.6061 59.2449 20.0324 57.1136 21.3111C55.4088 22.1634 54.1302 23.4421 53.2776 25.1471C51.9989 26.8521 51.5728 28.9831 51.5728 31.1141C51.5728 32.3926 51.9989 34.5236 53.2776 36.2286C54.1302 37.9335 55.4088 39.2122 57.1136 40.4909ZM46.0319 20.8848C47.7368 17.9014 50.2942 15.7701 53.2776 14.0654C56.2612 12.3604 59.6709 11.508 63.0809 11.508C66.4906 11.508 69.9003 12.3604 72.8839 14.0654C75.8673 15.7701 77.9986 18.3274 80.1296 21.3111C81.8346 24.2947 82.687 27.2781 82.687 31.1141C82.687 34.0975 81.8346 37.5072 80.1296 40.4909C77.9986 43.4743 75.8673 45.6056 72.8839 47.3103C69.9003 49.0153 66.4906 49.8676 63.0809 49.8676C58.8186 49.8676 54.9825 49.0153 51.5728 46.4579V63.933L43.4745 59.6707V30.2618C43.4745 26.8521 44.3271 23.8684 46.0319 20.8848Z" fill="#D6A56D"/>
</svg>
