<svg width="271" height="54" viewBox="0 0 271 54" fill="none" xmlns="http://www.w3.org/2000/svg">
<path fill-rule="evenodd" clip-rule="evenodd" d="M107.7 34.8001C107.7 32.1002 106.5 30.6002 104.1 30.6002H97.8002V39.0002H104.1C106.5 39.0002 107.7 37.2002 107.7 34.8001ZM97.8002 22.8002H103.5C105.9 22.8002 106.8 21.3002 106.8 18.9002C106.8 16.8002 105.6 15.3002 103.5 15.3002H97.8002V22.8002ZM120.6 35.4001C120.6 43.8002 114.9 48.3002 106.2 48.3002H85.2002V5.7002H105.6C114.6 5.7002 119.4 10.8002 119.4 17.7002C119.4 21.0002 117.6 24.0002 114.6 26.1002C118.2 27.9001 120.6 30.9001 120.6 35.4001ZM68.7002 35.1002C68.7002 37.2002 66.9001 38.7002 63.9001 38.7002C60.6002 38.7002 59.1002 37.2002 59.1002 35.1002V5.7002H46.5001V36.3001C46.5001 42.9001 52.2001 49.5002 63.9001 49.5002C75.0001 49.5002 81.3002 42.9001 81.3002 36.3001V5.7002H68.7002V35.1002ZM44.4001 36.0002C44.4001 42.6002 40.5001 46.8002 34.2001 48.0002C32.7001 48.3002 29.7001 48.3002 27.9001 48.3002H12.9V54.0002L0 43.2002L12.9 32.4001V38.1002H29.7001C31.2001 38.1002 31.8001 37.2002 31.8001 36.3001C31.8001 34.5002 30.3001 33.9001 25.5 31.8001C18 28.2002 12 25.8002 12 17.7002C12 11.1002 16.8001 6.90016 23.4001 6.00014C24.9001 5.70019 27.6 5.7002 29.1 5.7002C32.4001 5.7002 42.0001 6.00014 42.0001 6.00014V16.2002L26.4001 15.9002C24.9001 15.9002 24.3001 16.8002 24.3001 17.7002C24.3001 18.9002 25.5 19.5002 30.0001 21.6002C39.3001 26.1002 44.4001 27.9001 44.4001 36.0002Z" fill="#FCAB1B"/>
<path fill-rule="evenodd" clip-rule="evenodd" d="M200.701 26.4001V18.9C200.701 16.8001 199.501 15.3001 195.901 15.3001C192.601 15.3001 191.401 16.8001 191.401 18.9V26.4001H200.701ZM213.301 18V48.3H200.701V36.0001H191.401V48.3H178.801V18C178.801 10.2001 185.101 4.50001 195.901 4.50001C207.001 4.50001 213.301 10.2001 213.301 18ZM228.901 22.8001V5.70006H216.301V24C216.301 29.7 220.501 34.2 227.401 36.0001V48.3H240.001V36.0001C247.201 34.2 251.101 29.7 251.101 24V17.4001C251.101 16.5 251.401 16.2001 252.001 16.2001H257.701V21.6001L270.601 10.8001L257.701 0V5.40002H249.001C241.501 5.40002 238.501 9.90004 238.501 15.9V22.8001C238.501 24.3001 237.301 26.1001 233.701 26.1001C230.101 26.1001 228.901 24.3001 228.901 22.8001ZM162.301 5.70006H174.901V35.7C174.901 42.9 169.801 49.2001 159.301 49.2001C154.801 49.2001 151.501 47.7001 148.801 45.9C146.401 47.7001 143.101 49.2001 138.901 49.2001C127.801 49.2001 123.301 42.9 123.301 35.7V5.70006H135.601V35.4C135.601 36.6 136.201 38.4 139.201 38.4C141.901 38.4 142.801 36.9 142.801 35.4V5.70006H155.101V35.4C155.101 36.9 156.001 38.4 158.701 38.4C161.701 38.4 162.301 36.9 162.301 35.4V5.70006Z" fill="#FCAB1B"/>
</svg>
