<svg width="299" height="45" viewBox="0 0 299 45" fill="none" xmlns="http://www.w3.org/2000/svg">
<path d="M5.22 26.28V23.328H12.024C12.96 23.328 13.788 23.136 14.508 22.752C15.252 22.368 15.828 21.828 16.236 21.132C16.668 20.436 16.884 19.608 16.884 18.648C16.884 17.688 16.668 16.86 16.236 16.164C15.828 15.468 15.252 14.928 14.508 14.544C13.788 14.16 12.96 13.968 12.024 13.968H5.22V11.016H12.24C13.776 11.016 15.144 11.328 16.344 11.952C17.568 12.576 18.528 13.464 19.224 14.616C19.944 15.744 20.304 17.088 20.304 18.648C20.304 20.184 19.944 21.528 19.224 22.68C18.528 23.808 17.568 24.696 16.344 25.344C15.144 25.968 13.776 26.28 12.24 26.28H5.22ZM2.952 36V11.016H6.336V36H2.952ZM24.5028 36V11.016H27.8868V36H24.5028ZM26.8068 36V32.904H41.1348V36H26.8068ZM26.8068 24.696V21.744H39.9468V24.696H26.8068ZM26.8068 14.112V11.016H40.9548V14.112H26.8068ZM48.0052 25.128V22.284H54.7732C56.2372 22.284 57.3652 21.912 58.1572 21.168C58.9492 20.424 59.3452 19.416 59.3452 18.144C59.3452 16.944 58.9492 15.948 58.1572 15.156C57.3892 14.364 56.2732 13.968 54.8092 13.968H48.0052V11.016H54.9172C56.5012 11.016 57.8812 11.328 59.0572 11.952C60.2332 12.552 61.1332 13.38 61.7572 14.436C62.4052 15.492 62.7292 16.704 62.7292 18.072C62.7292 19.488 62.4052 20.724 61.7572 21.78C61.1332 22.836 60.2332 23.664 59.0572 24.264C57.8812 24.84 56.5012 25.128 54.9172 25.128H48.0052ZM45.7372 36V11.016H49.1212V36H45.7372ZM60.1372 36L51.0652 24.804L54.2692 23.688L64.4212 36H60.1372ZM78.838 36.36C77.086 36.36 75.442 36.036 73.906 35.388C72.394 34.716 71.062 33.792 69.91 32.616C68.782 31.44 67.894 30.072 67.246 28.512C66.598 26.952 66.274 25.272 66.274 23.472C66.274 21.672 66.598 20.004 67.246 18.468C67.894 16.908 68.794 15.54 69.946 14.364C71.098 13.188 72.442 12.276 73.978 11.628C75.538 10.98 77.23 10.656 79.054 10.656C81.046 10.656 82.882 11.04 84.562 11.808C86.242 12.576 87.646 13.68 88.774 15.12L86.434 17.46C85.642 16.308 84.598 15.432 83.302 14.832C82.006 14.208 80.59 13.896 79.054 13.896C77.23 13.896 75.61 14.304 74.194 15.12C72.802 15.936 71.71 17.064 70.918 18.504C70.15 19.944 69.766 21.6 69.766 23.472C69.766 25.368 70.162 27.036 70.954 28.476C71.746 29.916 72.814 31.044 74.158 31.86C75.502 32.676 77.038 33.084 78.766 33.084C80.518 33.084 82.03 32.748 83.302 32.076C84.598 31.404 85.594 30.42 86.29 29.124C86.986 27.804 87.334 26.196 87.334 24.3L89.386 25.776H78.586V22.68H90.826V23.184C90.826 26.088 90.31 28.524 89.278 30.492C88.27 32.436 86.854 33.9 85.03 34.884C83.23 35.868 81.166 36.36 78.838 36.36ZM106.965 36.36C105.189 36.36 103.533 36.036 101.997 35.388C100.461 34.716 99.1167 33.792 97.9647 32.616C96.8127 31.416 95.9127 30.036 95.2647 28.476C94.6407 26.916 94.3287 25.248 94.3287 23.472C94.3287 21.672 94.6407 20.004 95.2647 18.468C95.9127 16.908 96.8007 15.54 97.9287 14.364C99.0807 13.188 100.413 12.276 101.925 11.628C103.461 10.98 105.117 10.656 106.893 10.656C108.669 10.656 110.313 10.98 111.825 11.628C113.361 12.276 114.705 13.188 115.857 14.364C117.009 15.54 117.909 16.908 118.557 18.468C119.205 20.028 119.529 21.708 119.529 23.508C119.529 25.284 119.205 26.952 118.557 28.512C117.909 30.072 117.009 31.44 115.857 32.616C114.729 33.792 113.397 34.716 111.861 35.388C110.349 36.036 108.717 36.36 106.965 36.36ZM106.893 33.12C108.693 33.12 110.265 32.712 111.609 31.896C112.977 31.056 114.057 29.916 114.849 28.476C115.641 27.012 116.037 25.344 116.037 23.472C116.037 22.08 115.809 20.808 115.353 19.656C114.897 18.48 114.261 17.46 113.445 16.596C112.629 15.732 111.669 15.072 110.565 14.616C109.461 14.136 108.237 13.896 106.893 13.896C105.117 13.896 103.545 14.304 102.177 15.12C100.833 15.936 99.7647 17.064 98.9727 18.504C98.2047 19.944 97.8207 21.6 97.8207 23.472C97.8207 24.864 98.0367 26.16 98.4687 27.36C98.9247 28.536 99.5487 29.556 100.341 30.42C101.157 31.26 102.117 31.92 103.221 32.4C104.349 32.88 105.573 33.12 106.893 33.12ZM124.171 36V11.016H127.555V36H124.171ZM126.475 36V32.904H139.867V36H126.475ZM141.284 36L151.508 11.016H153.956L164.144 36H160.472L152.084 14.868H153.344L144.884 36H141.284ZM146.144 30.348V27.396H159.284V30.348H146.144Z" fill="white"/>
<line x1="180.5" y1="7.5" x2="180.5" y2="37.5" stroke="white"/>
<path d="M197.348 36V11.448H199.256V36H197.348ZM213.692 36V11.448H215.6V36H213.692ZM198.572 24.228V22.5H214.376V24.228H198.572ZM233.289 36.36C231.561 36.36 229.953 36.036 228.465 35.388C227.001 34.74 225.717 33.84 224.613 32.688C223.509 31.512 222.645 30.156 222.021 28.62C221.421 27.084 221.121 25.44 221.121 23.688C221.121 21.912 221.421 20.268 222.021 18.756C222.621 17.22 223.473 15.876 224.577 14.724C225.681 13.572 226.965 12.684 228.429 12.06C229.893 11.412 231.489 11.088 233.217 11.088C234.945 11.088 236.541 11.412 238.005 12.06C239.493 12.684 240.777 13.572 241.857 14.724C242.961 15.876 243.825 17.22 244.449 18.756C245.073 20.292 245.385 21.948 245.385 23.724C245.385 25.476 245.073 27.12 244.449 28.656C243.849 30.192 242.997 31.536 241.893 32.688C240.789 33.84 239.505 34.74 238.041 35.388C236.601 36.036 235.017 36.36 233.289 36.36ZM233.217 34.524C235.185 34.524 236.925 34.056 238.437 33.12C239.973 32.16 241.185 30.864 242.073 29.232C242.961 27.6 243.405 25.752 243.405 23.688C243.405 22.152 243.141 20.736 242.613 19.44C242.109 18.12 241.401 16.98 240.489 16.02C239.577 15.036 238.497 14.28 237.249 13.752C236.025 13.2 234.681 12.924 233.217 12.924C231.273 12.924 229.533 13.392 227.997 14.328C226.485 15.264 225.285 16.548 224.397 18.18C223.533 19.788 223.101 21.624 223.101 23.688C223.101 25.224 223.353 26.652 223.857 27.972C224.361 29.292 225.069 30.444 225.981 31.428C226.893 32.412 227.961 33.18 229.185 33.732C230.433 34.26 231.777 34.524 233.217 34.524ZM250.856 36V11.448H252.224L263.024 29.16H261.98L272.78 11.448H274.148V36H272.24V14.724L272.708 14.832L263.204 30.42H261.836L252.332 14.832L252.764 14.724V36H250.856ZM280.844 36V11.448H282.752V36H280.844ZM282.068 36V34.272H296.828V36H282.068ZM282.068 24.228V22.572H295.712V24.228H282.068ZM282.068 13.176V11.448H296.648V13.176H282.068Z" fill="white"/>
</svg>
