<svg width="500" height="83" viewBox="0 0 500 83" fill="none" xmlns="http://www.w3.org/2000/svg">
<path d="M21.1432 34.5772L41.1062 24.1972L41.1062 15.2341L13.0963 29.5377V69.0681L0 60.8793V21.4205L41.1062 0L54.2025 8.17478V17.4286L62.3078 13.2395L75.404 21.4089V30.7194V45.6883V60.6785L62.3078 52.4549V37.466V28.1285L54.2025 32.3562V41.6415V47.422L41.1062 39.1769L34.2395 42.7846V82.2998L21.1432 74.1109V34.5772Z" fill="white"/>
<path d="M329.314 60.673L344.201 21.3481H353.667L368.779 60.673H359.425L356.364 52.2463H341.392L338.415 60.673H329.314ZM343.358 45.224H354.341L348.779 30.449L343.358 45.224Z" fill="white"/>
<path d="M302.057 60.673V21.3481H310.371V53.0609H326.607V60.673H302.057Z" fill="white"/>
<path d="M273.453 61.5156C270.457 61.5156 267.686 61.0006 265.139 59.9707C262.592 58.922 260.383 57.4707 258.51 55.6168C256.637 53.763 255.177 51.5907 254.128 49.1001C253.098 46.6096 252.583 43.913 252.583 41.0104C252.583 38.0892 253.098 35.3832 254.128 32.8926C255.177 30.4021 256.637 28.2298 258.51 26.3759C260.383 24.5221 262.592 23.0801 265.139 22.0502C267.686 21.0203 270.457 20.5053 273.453 20.5053C276.45 20.5053 279.212 21.0296 281.74 22.0783C284.287 23.127 286.496 24.5876 288.369 26.4602C290.26 28.3328 291.73 30.5144 292.779 33.005C293.828 35.4769 294.352 38.1453 294.352 41.0104C294.352 43.913 293.828 46.6096 292.779 49.1001C291.73 51.5907 290.26 53.763 288.369 55.6168C286.496 57.4707 284.287 58.922 281.74 59.9707C279.212 61.0006 276.45 61.5156 273.453 61.5156ZM273.453 53.7068C275.195 53.7068 276.805 53.4072 278.285 52.8079C279.764 52.2087 281.056 51.3566 282.161 50.2518C283.266 49.1282 284.118 47.7893 284.717 46.235C285.335 44.6808 285.644 42.9392 285.644 41.0104C285.644 38.445 285.11 36.2165 284.043 34.3252C282.976 32.4151 281.524 30.9358 279.689 29.8871C277.854 28.8384 275.775 28.3141 273.453 28.3141C271.731 28.3141 270.12 28.6137 268.622 29.213C267.143 29.8122 265.851 30.6642 264.746 31.7691C263.66 32.8739 262.808 34.2128 262.19 35.7858C261.59 37.3401 261.291 39.0816 261.291 41.0104C261.291 43.5759 261.824 45.8137 262.892 47.7238C263.959 49.6151 265.411 51.0851 267.246 52.1338C269.081 53.1824 271.15 53.7068 273.453 53.7068Z" fill="white"/>
<path d="M231.856 61.5156C228.803 61.5156 225.938 61.0474 223.261 60.1111C220.583 59.1561 218.233 57.7984 216.21 56.0382C214.206 54.2592 212.633 52.1057 211.491 49.5777C210.349 47.0496 209.778 44.2032 209.778 41.0385C209.778 37.9113 210.321 35.0836 211.407 32.5556C212.512 30.0275 214.047 27.8647 216.014 26.067C217.98 24.2693 220.264 22.8929 222.867 21.9378C225.489 20.9828 228.317 20.5053 231.35 20.5053C232.736 20.5053 234.178 20.6177 235.676 20.8424C237.174 21.0484 238.682 21.4229 240.198 21.9659C241.734 22.4903 243.213 23.23 244.636 24.185L241.153 30.6455C239.768 29.7654 238.288 29.11 236.715 28.6793C235.161 28.2486 233.522 28.0332 231.8 28.0332C229.721 28.0332 227.848 28.3328 226.182 28.9321C224.515 29.5313 223.101 30.4021 221.94 31.5444C220.779 32.6679 219.89 34.0349 219.272 35.6454C218.654 37.2558 218.345 39.0629 218.345 41.0666C218.345 43.9504 218.954 46.3755 220.171 48.3417C221.388 50.2892 223.055 51.7686 225.171 52.7798C227.287 53.7723 229.674 54.2686 232.333 54.2686C233.494 54.2686 234.571 54.1656 235.564 53.9596C236.556 53.7536 237.399 53.5101 238.092 53.2293V45.4204H229.777V38.7352H245.423V58.2291C244.299 58.9033 242.942 59.4932 241.35 59.9988C239.758 60.4856 238.12 60.8602 236.434 61.1223C234.768 61.3845 233.242 61.5156 231.856 61.5156Z" fill="white"/>
<path d="M174.025 60.673V21.3481H189.614C192.461 21.3481 194.942 21.8256 197.058 22.7807C199.193 23.717 200.831 25.0746 201.974 26.8536C203.135 28.6326 203.715 30.758 203.715 33.2299C203.715 35.1774 203.331 36.8908 202.564 38.3702C201.796 39.8308 200.738 41.048 199.389 42.0218C198.06 42.9955 196.524 43.6978 194.783 44.1285L205.794 60.673H195.878L186.412 45.7296H182.339V60.673H174.025ZM182.339 39.0162H188.519C190.654 39.0162 192.32 38.5855 193.519 37.7241C194.736 36.844 195.345 35.5145 195.345 33.7355C195.345 31.9003 194.783 30.5239 193.659 29.6063C192.554 28.6888 190.935 28.23 188.8 28.23H182.339V39.0162Z" fill="white"/>
<path d="M138.187 60.673V21.3481H165.068V28.5951H146.501V37.0219H162.231V43.7352H146.501V53.3418H165.293V60.673H138.187Z" fill="white"/>
<path d="M101.142 60.673V21.3481H116.394C119.278 21.3481 121.834 21.8537 124.063 22.8649C126.291 23.8574 128.042 25.3087 129.315 27.2188C130.589 29.1101 131.225 31.3853 131.225 34.0444C131.225 36.7597 130.636 39.0631 129.456 40.9544C128.276 42.827 126.563 44.2596 124.315 45.2521C122.087 46.2258 119.381 46.7127 116.198 46.7127H109.456V60.673H101.142ZM109.456 39.7185H116.057C118.211 39.7185 119.887 39.2784 121.085 38.3983C122.302 37.5181 122.911 36.1231 122.911 34.213C122.911 32.2842 122.293 30.8516 121.057 29.9153C119.821 28.979 118.173 28.5109 116.113 28.5109H109.456V39.7185Z" fill="white"/>
<path d="M479.607 61.5156C476.723 61.5156 474.036 61.0006 471.546 59.9707C469.074 58.922 466.911 57.4707 465.057 55.6168C463.222 53.763 461.789 51.5907 460.759 49.1001C459.729 46.6096 459.214 43.913 459.214 41.0104C459.214 38.0892 459.729 35.3832 460.759 32.8926C461.789 30.4021 463.222 28.2298 465.057 26.3759C466.911 24.5221 469.074 23.0801 471.546 22.0502C474.036 21.0203 476.723 20.5053 479.607 20.5053C482.472 20.5053 485.141 21.0296 487.613 22.0783C490.084 23.127 492.247 24.5876 494.101 26.4602C495.955 28.3328 497.397 30.5144 498.427 33.005C499.476 35.4769 500 38.1453 500 41.0104C500 43.913 499.476 46.6096 498.427 49.1001C497.397 51.5907 495.955 53.763 494.101 55.6168C492.247 57.4707 490.084 58.922 487.613 59.9707C485.141 61.0006 482.472 61.5156 479.607 61.5156ZM479.607 58.3696C481.967 58.3696 484.176 57.9576 486.236 57.1337C488.296 56.3097 490.103 55.1393 491.657 53.6225C493.212 52.087 494.429 50.2518 495.309 48.117C496.189 45.9822 496.629 43.6134 496.629 41.0104C496.629 37.5274 495.861 34.4844 494.326 31.8814C492.809 29.2785 490.759 27.2561 488.174 25.8142C485.609 24.3722 482.753 23.6513 479.607 23.6513C477.248 23.6513 475.038 24.0633 472.978 24.8872C470.918 25.7112 469.111 26.8909 467.557 28.4265C466.003 29.9433 464.785 31.7691 463.905 33.9039C463.025 36.0199 462.585 38.3888 462.585 41.0104C462.585 44.4935 463.343 47.5365 464.86 50.1394C466.396 52.7424 468.446 54.7648 471.012 56.2067C473.596 57.6486 476.461 58.3696 479.607 58.3696Z" fill="white"/>
<path d="M425.629 60.673V21.3481H439.392C441.902 21.3481 444.065 21.8163 445.881 22.7526C447.716 23.6889 449.121 25.0091 450.094 26.7132C451.087 28.3985 451.583 30.3741 451.583 32.64C451.583 34.625 451.115 36.3852 450.179 37.9208C449.261 39.4376 447.941 40.6735 446.218 41.6285C444.514 42.5648 442.482 43.1454 440.123 43.3701L453.268 60.673H449.111L436.134 43.4263H428.887V60.673H425.629ZM428.887 40.3926H438.437C441.565 40.3926 443.99 39.6997 445.712 38.314C447.454 36.9095 448.325 35.0182 448.325 32.64C448.325 30.1681 447.576 28.1738 446.078 26.657C444.58 25.1402 442.257 24.3818 439.111 24.3818H428.887V40.3926Z" fill="white"/>
<path d="M390.779 60.673V21.3481H403.475C406.134 21.3481 408.465 21.7975 410.469 22.6964C412.492 23.5953 414.065 24.8874 415.188 26.5727C416.33 28.2393 416.902 30.243 416.902 32.5838C416.902 34.9995 416.377 37.0313 415.329 38.6792C414.28 40.3271 412.754 41.5817 410.75 42.4431C408.746 43.2858 406.303 43.7071 403.419 43.7071H394.037V60.673H390.779ZM394.037 40.6735H403.812C406.939 40.6735 409.355 39.9994 411.059 38.6511C412.782 37.2841 413.643 35.2991 413.643 32.6962C413.643 30.1681 412.772 28.1551 411.031 26.657C409.289 25.1402 406.902 24.3818 403.868 24.3818H394.037V40.6735Z" fill="white"/>
</svg>
