<svg width="44" height="44" viewBox="0 0 44 44" fill="none" xmlns="http://www.w3.org/2000/svg">
<path d="M1.83301 44H42.1663V5.5C42.1663 4.04131 41.5869 2.64236 40.5554 1.61091C39.524 0.579463 38.125 0 36.6663 0L7.33301 0C5.87432 0 4.47537 0.579463 3.44392 1.61091C2.41247 2.64236 1.83301 4.04131 1.83301 5.5V44ZM5.49967 5.5C5.49967 5.01377 5.69283 4.54745 6.03665 4.20364C6.38046 3.85982 6.84678 3.66667 7.33301 3.66667H36.6663C37.1526 3.66667 37.6189 3.85982 37.9627 4.20364C38.3065 4.54745 38.4997 5.01377 38.4997 5.5V40.3333H5.49967V5.5ZM9.16634 18.3333H34.833V7.33333H9.16634V18.3333ZM12.833 11H31.1663V14.6667H12.833V11ZM9.16634 23.8333H12.833V27.5H9.16634V23.8333ZM16.4997 23.8333H20.1663V27.5H16.4997V23.8333ZM27.4997 23.8333V27.5H23.833V23.8333H27.4997ZM9.16634 31.1667H12.833V34.8333H9.16634V31.1667ZM16.4997 31.1667H20.1663V34.8333H16.4997V31.1667ZM31.1663 23.8333H34.833V27.5H31.1663V23.8333ZM23.833 31.1667H34.833V34.8333H23.833V31.1667Z" fill="#5C5651"/>
</svg>
