<svg width="44" height="44" viewBox="0 0 44 44" fill="none" xmlns="http://www.w3.org/2000/svg">
<g clip-path="url(#clip0_12003_741)">
<path d="M7.48 36.6667H25.5237C24.6052 30.8293 19.4957 26.7117 16.5257 24.7738C13.5263 26.741 8.40767 30.8788 7.48 36.6667ZM16.5348 29.3003C17.7613 30.283 19.0685 31.5315 20.097 33H12.9598C14.0213 31.5132 15.356 30.2537 16.5348 29.3003ZM33.0018 10.9982C26.9353 10.9982 22.0018 15.9317 22.0018 21.9982C22.0018 28.0647 26.9353 32.9982 33.0018 32.9982C39.0683 32.9982 44.0018 28.0647 44.0018 21.9982C44.0018 15.9317 39.0683 10.9982 33.0018 10.9982ZM33.0018 29.3315C28.9575 29.3315 25.6685 26.0425 25.6685 21.9982C25.6685 17.9538 28.9575 14.6648 33.0018 14.6648C37.0462 14.6648 40.3352 17.9538 40.3352 21.9982C40.3352 26.0425 37.0462 29.3315 33.0018 29.3315ZM34.8352 21.2227L37.5338 23.8443L34.98 26.4752L31.1685 22.7737V16.4982H34.8352V21.2227ZM32.8753 36.6575C32.934 37.2643 33.0018 37.8657 33.0018 38.4982V43.9982H0V38.4982C0 31.1557 4.10667 25.6428 8.14367 21.9982C4.10667 18.3553 0 12.8425 0 5.5C0 2.46767 2.46767 0 5.5 0H27.5018C28.9703 0 30.3508 0.572 31.3885 1.60967C32.4262 2.64733 33 4.02967 33 5.5C33 6.1325 32.9322 6.73383 32.8735 7.33883C31.5828 7.34983 30.338 7.53683 29.1482 7.86133C29.2655 7.09867 29.3333 6.314 29.3333 5.5C29.3333 5.0105 29.1427 4.5485 28.7962 4.202C28.4515 3.85733 27.9913 3.66667 27.5018 3.66667H5.5C4.488 3.66667 3.66667 4.48983 3.66667 5.5C3.66667 12.4172 8.26467 17.5083 12.122 20.5627L13.937 22L12.1202 23.4373C8.26283 26.4898 3.66667 31.581 3.66667 38.4982V40.3315H29.3333V38.4982C29.3333 37.6842 29.2655 36.8977 29.1463 36.135C30.3362 36.4595 31.5828 36.6465 32.8717 36.6575H32.8753Z" fill="#5C5651"/>
</g>
<defs>
<clipPath id="clip0_12003_741">
<rect width="44" height="44" fill="white"/>
</clipPath>
</defs>
</svg>
