<svg width="44" height="44" viewBox="0 0 44 44" fill="none" xmlns="http://www.w3.org/2000/svg">
<g clip-path="url(#clip0_12003_752)">
<path d="M38.5 3.66667H33V0H29.3333V3.66667H14.6667V0H11V3.66667H5.5C4.04131 3.66667 2.64236 4.24613 1.61091 5.27758C0.579463 6.30903 0 7.70798 0 9.16667L0 44H44V9.16667C44 7.70798 43.4205 6.30903 42.3891 5.27758C41.3576 4.24613 39.9587 3.66667 38.5 3.66667ZM3.66667 9.16667C3.66667 8.68044 3.85982 8.21412 4.20364 7.8703C4.54745 7.52649 5.01377 7.33333 5.5 7.33333H38.5C38.9862 7.33333 39.4525 7.52649 39.7964 7.8703C40.1402 8.21412 40.3333 8.68044 40.3333 9.16667V14.6667H3.66667V9.16667ZM3.66667 40.3333V18.3333H40.3333V40.3333H3.66667Z" fill="#5C5651"/>
<path d="M31.1667 23.8333H27.5V27.5H31.1667V23.8333Z" fill="#5C5651"/>
<path d="M23.8337 23.8333H20.167V27.5H23.8337V23.8333Z" fill="#5C5651"/>
<path d="M16.4997 23.8333H12.833V27.5H16.4997V23.8333Z" fill="#5C5651"/>
<path d="M31.1667 31.1667H27.5V34.8334H31.1667V31.1667Z" fill="#5C5651"/>
<path d="M23.8337 31.1667H20.167V34.8334H23.8337V31.1667Z" fill="#5C5651"/>
<path d="M16.4997 31.1667H12.833V34.8334H16.4997V31.1667Z" fill="#5C5651"/>
</g>
<defs>
<clipPath id="clip0_12003_752">
<rect width="44" height="44" fill="white"/>
</clipPath>
</defs>
</svg>
