<svg width="44" height="44" viewBox="0 0 44 44" fill="none" xmlns="http://www.w3.org/2000/svg">
<path d="M7.33008 0L14.2824 16.8781C10.1145 19.4648 7.33008 24.0711 7.33008 29.3305C7.33008 37.4172 13.9129 44 21.9996 44C30.0863 44 36.6691 37.4172 36.6691 29.3305C36.6691 24.0797 33.8848 19.4648 29.7168 16.8781L36.6691 0H33.1457L26.7691 15.4773C25.6949 15.1078 24.5777 14.85 23.409 14.7383L29.4762 0H25.9527L19.8426 14.8414C18.9402 14.9789 18.0723 15.1852 17.2387 15.4773L10.8535 0H7.33008ZM14.523 0L18.6652 10.0633L20.427 5.78359L18.0465 0H14.523ZM21.9996 17.9266C28.2902 17.9266 33.4035 23.0398 33.4035 29.3305C33.4035 35.6211 28.2902 40.743 21.9996 40.743C15.709 40.743 10.5957 35.6297 10.5957 29.3391C10.5957 23.0484 15.709 17.9266 21.9996 17.9266ZM21.9996 23.0828L20.1004 27.3539L15.4855 27.8609L18.9402 30.9633L17.9605 35.5352L21.9996 33.2062L26.0387 35.5352L25.0676 30.9547L28.5223 27.8523L23.9074 27.3453L21.9996 23.0828Z" fill="#5C5651"/>
</svg>
