<svg width="44" height="44" viewBox="0 0 44 44" fill="none" xmlns="http://www.w3.org/2000/svg">
<g clip-path="url(#clip0_12003_767)">
<path d="M25.6669 36.5548V40.3333H33.0003V44H14.6669V40.3333H22.0003V36.5732C17.9135 36.2341 14.0031 34.7589 10.7107 32.3143C7.41826 29.8696 4.87512 26.5529 3.36859 22.7389C1.86206 18.9249 1.45216 14.7656 2.18522 10.7308C2.91828 6.69612 4.76507 2.94681 7.51695 -0.0935059L10.2394 2.36316C8.55609 4.22651 7.27348 6.41581 6.47114 8.79531C5.66881 11.1748 5.36385 13.6938 5.57518 16.196C5.78652 18.6982 6.50964 21.1303 7.6997 23.3415C8.88977 25.5528 10.5214 27.4959 12.4934 29.0505C14.4655 30.6052 16.7358 31.7381 19.1638 32.3791C21.5917 33.0201 24.1255 33.1554 26.6079 32.7768C29.0903 32.3981 31.4684 31.5136 33.5949 30.1779C35.7213 28.8423 37.5507 27.084 38.9696 25.0122L41.9964 27.0838C40.1487 29.7761 37.7245 32.0229 34.8999 33.6611C32.0753 35.2994 28.9213 36.2879 25.6669 36.5548ZM9.16695 14.6667C9.16695 11.7659 10.0271 8.93022 11.6387 6.5183C13.2503 4.10638 15.5409 2.22651 18.2209 1.11643C20.9009 0.00634237 23.8499 -0.284107 26.6949 0.28181C29.54 0.847727 32.1533 2.24459 34.2045 4.29576C36.2557 6.34693 37.6525 8.96028 38.2185 11.8053C38.7844 14.6504 38.4939 17.5994 37.3839 20.2794C36.2738 22.9593 34.3939 25.25 31.982 26.8615C29.5701 28.4731 26.7344 29.3333 23.8336 29.3333C19.9451 29.329 16.2171 27.7823 13.4675 25.0327C10.7179 22.2831 9.17131 18.5552 9.16695 14.6667ZM12.8336 14.6667C12.8336 16.8423 13.4788 18.969 14.6874 20.7779C15.8961 22.5869 17.6141 23.9968 19.6241 24.8293C21.6341 25.6619 23.8458 25.8797 25.9796 25.4553C28.1134 25.0309 30.0734 23.9832 31.6118 22.4448C33.1502 20.9065 34.1978 18.9464 34.6223 16.8127C35.0467 14.6789 34.8289 12.4671 33.9963 10.4571C33.1637 8.44716 31.7538 6.72919 29.9449 5.5205C28.1359 4.3118 26.0092 3.66666 23.8336 3.66666C20.9171 3.66957 18.1209 4.82943 16.0587 6.8917C13.9964 8.95397 12.8365 11.7502 12.8336 14.6667Z" fill="#5C5651"/>
</g>
<defs>
<clipPath id="clip0_12003_767">
<rect width="44" height="44" fill="white"/>
</clipPath>
</defs>
</svg>
