<svg width="14" height="14" viewBox="0 0 14 14" fill="none" xmlns="http://www.w3.org/2000/svg">
<g clip-path="url(#clip0_6002_568)">
<path d="M12.9208 2.12917L10.7917 0L6.91833 3.87333L8.645 5.6C7.96833 7.00583 6.965 8.00917 5.60583 8.65083L3.87333 6.91833L0 10.7917L2.12333 12.915C2.78833 13.58 3.68083 13.9475 4.64333 13.9475C8.81417 13.9475 13.9417 8.82 13.9417 4.64917C13.9417 3.68667 13.5742 2.78833 12.915 2.12917H12.9208ZM4.64917 12.1975C4.15333 12.1975 3.69833 12.0167 3.36583 11.6783L2.47917 10.7917L3.87917 9.39167L5.19167 10.7042L5.7225 10.5C7.96833 9.6425 9.57833 8.03833 10.5 5.72833L10.7158 5.19167L9.39167 3.8675L10.7917 2.4675L11.6842 3.35417C12.0167 3.68667 12.1975 4.14167 12.1975 4.6375C12.1975 8.0675 7.56 12.1858 4.64917 12.1858V12.1975Z" fill="#5C5651"/>
</g>
<defs>
<clipPath id="clip0_6002_568">
<rect width="14" height="14" fill="white"/>
</clipPath>
</defs>
</svg>
