<svg width="15" height="16" viewBox="0 0 15 16" fill="none" xmlns="http://www.w3.org/2000/svg">
<g clip-path="url(#clip0_42002_326)">
<path d="M14.125 15.5H12.25V12.375C12.25 12.0435 12.1183 11.7255 11.8839 11.4911C11.6495 11.2567 11.3315 11.125 11 11.125H6C5.66848 11.125 5.35054 11.2567 5.11612 11.4911C4.8817 11.7255 4.75 12.0435 4.75 12.375V15.5H2.875V12.375C2.87599 11.5465 3.20555 10.7522 3.79139 10.1664C4.37722 9.58055 5.1715 9.25099 6 9.25H11C11.8285 9.25099 12.6228 9.58055 13.2086 10.1664C13.7944 10.7522 14.124 11.5465 14.125 12.375V15.5Z" fill="#5C5651"/>
<path d="M8.5 8C7.75832 8 7.0333 7.78007 6.41661 7.36801C5.79993 6.95596 5.31928 6.37029 5.03545 5.68506C4.75162 4.99984 4.67736 4.24584 4.82206 3.51841C4.96675 2.79098 5.3239 2.1228 5.84835 1.59835C6.3728 1.0739 7.04098 0.716751 7.76841 0.572057C8.49584 0.427362 9.24984 0.501625 9.93506 0.785453C10.6203 1.06928 11.206 1.54993 11.618 2.16661C12.0301 2.7833 12.25 3.50832 12.25 4.25C12.249 5.24426 11.8536 6.19751 11.1506 6.90056C10.4475 7.6036 9.49426 7.99901 8.5 8ZM8.5 2.375C8.12916 2.375 7.76665 2.48497 7.45831 2.691C7.14997 2.89702 6.90964 3.18986 6.76773 3.53247C6.62581 3.87508 6.58868 4.25208 6.66103 4.6158C6.73338 4.97951 6.91195 5.3136 7.17418 5.57583C7.4364 5.83805 7.77049 6.01663 8.13421 6.08897C8.49792 6.16132 8.87492 6.12419 9.21753 5.98228C9.56014 5.84036 9.85298 5.60004 10.059 5.2917C10.265 4.98335 10.375 4.62084 10.375 4.25C10.375 3.75272 10.1775 3.27581 9.82583 2.92418C9.4742 2.57255 8.99728 2.375 8.5 2.375Z" fill="#5C5651"/>
</g>
<defs>
<clipPath id="clip0_42002_326">
<rect width="15" height="15" fill="white" transform="translate(0 0.5)"/>
</clipPath>
</defs>
</svg>
