<svg width="44" height="45" viewBox="0 0 44 45" fill="none" xmlns="http://www.w3.org/2000/svg">
<path d="M15.455 3.45955L14.774 4.79606L15.455 3.45955ZM17.2976 5.30216L15.9611 5.98315L17.2976 5.30216ZM5.30216 3.45955L5.98315 4.79606L5.30216 3.45955ZM3.45955 5.30216L4.79606 5.98315L3.45955 5.30216ZM40.4875 38.6449L41.824 39.3259L41.824 39.3259L40.4875 38.6449ZM38.6449 40.4875L39.3259 41.824V41.824L38.6449 40.4875ZM40.4875 28.492L41.824 27.811L41.824 27.811L40.4875 28.492ZM38.6449 26.6494L37.9639 27.9859L38.6449 26.6494ZM31.4932 11.559L32.5538 10.4984L32.5538 10.4984L31.4932 11.559ZM32.3876 12.4535L31.3269 13.5141H31.3269L32.3876 12.4535ZM32.3876 21.9939L33.4483 23.0546L32.3876 21.9939ZM15.5427 38.8389L14.482 37.7782L15.5427 38.8389ZM6.16844 37.7782C5.58266 37.1924 4.63291 37.1924 4.04712 37.7782C3.46134 38.364 3.46134 39.3137 4.04712 39.8995L6.16844 37.7782ZM35.205 15.9208L33.7784 16.3843L33.7784 16.3843L35.205 15.9208ZM35.205 18.5266L33.7784 18.0631L33.7784 18.0631L35.205 18.5266ZM28.0259 8.74163L28.4894 7.31504H28.4894L28.0259 8.74163ZM21.9527 11.559L23.0134 12.6197V12.6197L21.9527 11.559ZM25.42 8.74163L24.9565 7.31504L25.42 8.74163ZM9.98305 31.6731C9.15463 31.6731 8.48305 32.3447 8.48305 33.1731C8.48305 34.0015 9.15463 34.6731 9.98305 34.6731V31.6731ZM10.7736 34.6731C11.602 34.6731 12.2736 34.0015 12.2736 33.1731C12.2736 32.3447 11.602 31.6731 10.7736 31.6731V34.6731ZM9.98305 32.4637C9.15463 32.4637 8.48305 33.1352 8.48305 33.9637C8.48305 34.7921 9.15463 35.4637 9.98305 35.4637V32.4637ZM10.7736 35.4637C11.602 35.4637 12.2736 34.7921 12.2736 33.9637C12.2736 33.1352 11.602 32.4637 10.7736 32.4637V35.4637ZM9.74614 4.5H11.011V1.5H9.74614V4.5ZM16.2572 9.74614V33.5685H19.2572V9.74614H16.2572ZM4.5 33.5685V9.74614H1.5V33.5685H4.5ZM10.3786 39.447C7.13194 39.447 4.5 36.8151 4.5 33.5685H1.5C1.5 38.472 5.47508 42.447 10.3786 42.447V39.447ZM16.2572 33.5685C16.2572 36.8151 13.6252 39.447 10.3786 39.447V42.447C15.2821 42.447 19.2572 38.472 19.2572 33.5685H16.2572ZM11.011 4.5C12.2165 4.5 13.0303 4.50117 13.6582 4.55246C14.2685 4.60233 14.5698 4.69199 14.774 4.79606L16.136 2.12304C15.4383 1.76757 14.6983 1.62745 13.9025 1.56243C13.1241 1.49883 12.167 1.5 11.011 1.5V4.5ZM19.2572 9.74614C19.2572 8.59021 19.2584 7.63304 19.1948 6.85471C19.1297 6.05887 18.9896 5.31884 18.6341 4.62117L15.9611 5.98315C16.0652 6.18741 16.1549 6.48868 16.2047 7.09901C16.256 7.72684 16.2572 8.5407 16.2572 9.74614H19.2572ZM14.774 4.79606C15.2851 5.05649 15.7007 5.47203 15.9611 5.98315L18.6341 4.62117C18.0861 3.54558 17.2116 2.67109 16.136 2.12304L14.774 4.79606ZM9.74614 1.5C8.59021 1.5 7.63304 1.49883 6.85471 1.56243C6.05887 1.62745 5.31884 1.76757 4.62117 2.12304L5.98315 4.79606C6.18741 4.69199 6.48868 4.60233 7.09901 4.55246C7.72684 4.50117 8.5407 4.5 9.74614 4.5V1.5ZM4.5 9.74614C4.5 8.5407 4.50117 7.72684 4.55246 7.09901C4.60233 6.48868 4.69199 6.18741 4.79606 5.98315L2.12304 4.62117C1.76757 5.31884 1.62745 6.05887 1.56243 6.85471C1.49883 7.63304 1.5 8.59021 1.5 9.74614H4.5ZM4.62117 2.12304C3.54558 2.67109 2.67109 3.54558 2.12304 4.62117L4.79606 5.98315C5.05649 5.47203 5.47203 5.05649 5.98315 4.79606L4.62117 2.12304ZM39.447 32.936V34.2009H42.447V32.936H39.447ZM34.2009 39.447H10.3786V42.447H34.2009V39.447ZM39.447 34.2009C39.447 35.4063 39.4459 36.2202 39.3946 36.848C39.3447 37.4584 39.2551 37.7596 39.151 37.9639L41.824 39.3259C42.1795 38.6282 42.3196 37.8882 42.3846 37.0923C42.4482 36.314 42.447 35.3568 42.447 34.2009H39.447ZM34.2009 42.447C35.3568 42.447 36.314 42.4482 37.0923 42.3846C37.8882 42.3196 38.6282 42.1795 39.3259 41.824L37.9639 39.151C37.7596 39.2551 37.4584 39.3447 36.848 39.3946C36.2202 39.4459 35.4063 39.447 34.2009 39.447V42.447ZM39.151 37.9639C38.8906 38.475 38.475 38.8906 37.9639 39.151L39.3259 41.824C40.4015 41.276 41.276 40.4015 41.824 39.3259L39.151 37.9639ZM42.447 32.936C42.447 31.7801 42.4482 30.8229 42.3846 30.0446C42.3196 29.2487 42.1795 28.5087 41.824 27.811L39.151 29.173C39.2551 29.3773 39.3447 29.6785 39.3946 30.2889C39.4459 30.9167 39.447 31.7306 39.447 32.936H42.447ZM34.2009 27.6899C35.4063 27.6899 36.2202 27.691 36.848 27.7423C37.4584 27.7922 37.7596 27.8818 37.9639 27.9859L39.3259 25.3129C38.6282 24.9574 37.8882 24.8173 37.0923 24.7523C36.314 24.6887 35.3568 24.6899 34.2009 24.6899V27.6899ZM41.824 27.811C41.276 26.7354 40.4015 25.8609 39.3259 25.3129L37.9639 27.9859C38.475 28.2463 38.8906 28.6619 39.151 29.173L41.824 27.811ZM28.298 27.6899H34.2009V24.6899H28.298V27.6899ZM30.4325 12.6197L31.3269 13.5141L33.4483 11.3928L32.5538 10.4984L30.4325 12.6197ZM31.3269 20.9333L14.482 37.7782L16.6033 39.8995L33.4483 23.0546L31.3269 20.9333ZM14.482 37.7782C12.1863 40.0739 8.46418 40.0739 6.16844 37.7782L4.04712 39.8995C7.51443 43.3668 13.136 43.3668 16.6033 39.8995L14.482 37.7782ZM31.3269 13.5141C32.1793 14.3665 32.754 14.9428 33.1617 15.423C33.558 15.8899 33.7076 16.1663 33.7784 16.3843L36.6316 15.4573C36.3896 14.7126 35.9654 14.0902 35.4487 13.4815C34.9433 12.8862 34.2656 12.2102 33.4483 11.3928L31.3269 13.5141ZM33.4483 23.0546C34.2656 22.2372 34.9433 21.5612 35.4487 20.9659C35.9654 20.3572 36.3896 19.7348 36.6316 18.9901L33.7784 18.0631C33.7076 18.2811 33.558 18.5576 33.1617 19.0244C32.754 19.5046 32.1793 20.0809 31.3269 20.9333L33.4483 23.0546ZM33.7784 16.3843C33.9557 16.9299 33.9557 17.5175 33.7784 18.0631L36.6316 18.9901C37.0046 17.8421 37.0046 16.6053 36.6316 15.4573L33.7784 16.3843ZM32.5538 10.4984C31.7365 9.68101 31.0605 9.00337 30.4652 8.49797C29.8564 7.9812 29.2341 7.557 28.4894 7.31504L27.5623 10.1682C27.7804 10.2391 28.0568 10.3887 28.5236 10.785C29.0038 11.1927 29.5802 11.7673 30.4325 12.6197L32.5538 10.4984ZM23.0134 12.6197C23.8657 11.7673 24.442 11.1927 24.9223 10.785C25.3891 10.3887 25.6655 10.2391 25.8836 10.1682L24.9565 7.31504C24.2118 7.557 23.5895 7.9812 22.9807 8.49797C22.3854 9.00337 21.7094 9.68101 20.892 10.4984L23.0134 12.6197ZM28.4894 7.31504C27.3413 6.942 26.1046 6.942 24.9565 7.31504L25.8836 10.1682C26.4291 9.99095 27.0168 9.99095 27.5623 10.1682L28.4894 7.31504ZM18.818 16.815L23.0134 12.6197L20.892 10.4984L16.6967 14.6937L18.818 16.815ZM9.93268 33.5685C9.93268 33.3222 10.1323 33.1225 10.3786 33.1225V36.1225C11.7892 36.1225 12.9327 34.979 12.9327 33.5685H9.93268ZM10.3786 33.1225C10.6249 33.1225 10.8245 33.3222 10.8245 33.5685H7.82451C7.82451 34.979 8.96801 36.1225 10.3786 36.1225V33.1225ZM10.8245 33.5685C10.8245 33.8147 10.6249 34.0144 10.3786 34.0144V31.0144C8.96801 31.0144 7.82451 32.1579 7.82451 33.5685H10.8245ZM10.3786 34.0144C10.1323 34.0144 9.93268 33.8147 9.93268 33.5685H12.9327C12.9327 32.1579 11.7892 31.0144 10.3786 31.0144V34.0144ZM9.98305 34.6731H10.7736V31.6731H9.98305V34.6731ZM9.98305 35.4637H10.7736V32.4637H9.98305V35.4637Z" fill="#5C5651"/>
</svg>
