<svg width="44" height="45" viewBox="0 0 44 45" fill="none" xmlns="http://www.w3.org/2000/svg">
<path d="M18.0392 33.704V38.3399C18.0392 40.527 19.8122 42.2999 21.9992 42.2999C24.1863 42.2999 25.9592 40.527 25.9592 38.3399V33.704M21.9992 2.69995V4.67995M4.17922 22.5H2.19922M9.12922 9.62995L7.94103 8.44176M34.8692 9.62995L36.0577 8.44176M41.7992 22.5H39.8192M33.8792 22.5C33.8792 29.0611 28.5604 34.3799 21.9992 34.3799C15.4381 34.3799 10.1192 29.0611 10.1192 22.5C10.1192 15.9388 15.4381 10.62 21.9992 10.62C28.5604 10.62 33.8792 15.9388 33.8792 22.5Z" stroke="#5C5651" stroke-width="3" stroke-linecap="round" stroke-linejoin="round"/>
</svg>
