<svg width="44" height="45" viewBox="0 0 44 45" fill="none" xmlns="http://www.w3.org/2000/svg">
<path d="M22.5396 8.94881C21.7111 8.94881 21.0396 9.62038 21.0396 10.4488C21.0396 11.2772 21.7111 11.9488 22.5396 11.9488V8.94881ZM23.1873 11.9488C24.0157 11.9488 24.6873 11.2772 24.6873 10.4488C24.6873 9.62038 24.0157 8.94881 23.1873 8.94881V11.9488ZM22.5396 9.59654C21.7111 9.59654 21.0396 10.2681 21.0396 11.0965C21.0396 11.925 21.7111 12.5965 22.5396 12.5965V9.59654ZM23.1873 12.5965C24.0157 12.5965 24.6873 11.925 24.6873 11.0965C24.6873 10.2681 24.0157 9.59654 23.1873 9.59654V12.5965ZM10.4487 21.0397C9.62023 21.0397 8.94865 21.7113 8.94865 22.5397C8.94865 23.3681 9.62023 24.0397 10.4487 24.0397V21.0397ZM11.0964 24.0397C11.9248 24.0397 12.5964 23.3681 12.5964 22.5397C12.5964 21.7113 11.9248 21.0397 11.0964 21.0397V24.0397ZM10.4487 21.6874C9.62023 21.6874 8.94865 22.359 8.94865 23.1874C8.94865 24.0159 9.62023 24.6874 10.4487 24.6874V21.6874ZM11.0964 24.6874C11.9248 24.6874 12.5964 24.0159 12.5964 23.1874C12.5964 22.359 11.9248 21.6874 11.0964 21.6874V24.6874ZM15.6305 27.9488C14.802 27.9488 14.1305 28.6204 14.1305 29.4488C14.1305 30.2772 14.802 30.9488 15.6305 30.9488V27.9488ZM16.2782 30.9488C17.1066 30.9488 17.7782 30.2772 17.7782 29.4488C17.7782 28.6204 17.1066 27.9488 16.2782 27.9488V30.9488ZM15.6305 28.5965C14.802 28.5965 14.1305 29.2681 14.1305 30.0965C14.1305 30.925 14.802 31.5965 15.6305 31.5965V28.5965ZM16.2782 31.5965C17.1066 31.5965 17.7782 30.925 17.7782 30.0965C17.7782 29.2681 17.1066 28.5965 16.2782 28.5965V31.5965ZM29.4487 14.1306C28.6202 14.1306 27.9487 14.8022 27.9487 15.6306C27.9487 16.4591 28.6202 17.1306 29.4487 17.1306V14.1306ZM30.0964 17.1306C30.9248 17.1306 31.5964 16.4591 31.5964 15.6306C31.5964 14.8022 30.9248 14.1306 30.0964 14.1306V17.1306ZM29.4487 14.7784C28.6202 14.7784 27.9487 15.4499 27.9487 16.2784C27.9487 17.1068 28.6202 17.7784 29.4487 17.7784V14.7784ZM30.0964 17.7784C30.9248 17.7784 31.5964 17.1068 31.5964 16.2784C31.5964 15.4499 30.9248 14.7784 30.0964 14.7784V17.7784ZM13.9032 12.4034C13.0748 12.4034 12.4032 13.0749 12.4032 13.9034C12.4032 14.7318 13.0748 15.4034 13.9032 15.4034V12.4034ZM14.5509 15.4034C15.3794 15.4034 16.0509 14.7318 16.0509 13.9034C16.0509 13.0749 15.3794 12.4034 14.5509 12.4034V15.4034ZM13.9032 13.0511C13.0748 13.0511 12.4032 13.7227 12.4032 14.5511C12.4032 15.3795 13.0748 16.0511 13.9032 16.0511V13.0511ZM14.5509 16.0511C15.3794 16.0511 16.0509 15.3795 16.0509 14.5511C16.0509 13.7227 15.3794 13.0511 14.5509 13.0511V16.0511ZM35.5376 25.8037L35.9829 24.3713L35.5376 25.8037ZM40.9178 23.7793L42.4114 23.918V23.918L40.9178 23.7793ZM23.7793 40.9178L23.918 42.4114H23.918L23.7793 40.9178ZM25.8037 35.5376L24.3713 35.9829L24.3713 35.9829L25.8037 35.5376ZM26.103 40.4606L25.2236 39.2454H25.2236L26.103 40.4606ZM26.7711 39.4593L28.2308 39.8048V39.8048L26.7711 39.4593ZM39.4593 26.7711L39.1137 25.3115L39.4593 26.7711ZM40.4606 26.103L39.2454 25.2236L39.2454 25.2236L40.4606 26.103ZM22.2273 10.7727C22.2273 10.4213 22.5122 10.1364 22.8636 10.1364V13.1364C24.169 13.1364 25.2273 12.0781 25.2273 10.7727H22.2273ZM22.8636 10.1364C23.2151 10.1364 23.5 10.4213 23.5 10.7727H20.5C20.5 12.0781 21.5582 13.1364 22.8636 13.1364V10.1364ZM23.5 10.7727C23.5 11.1242 23.2151 11.4091 22.8636 11.4091V8.40909C21.5582 8.40909 20.5 9.46733 20.5 10.7727H23.5ZM22.8636 11.4091C22.5122 11.4091 22.2273 11.1242 22.2273 10.7727H25.2273C25.2273 9.46733 24.169 8.40909 22.8636 8.40909V11.4091ZM22.5396 11.9488H23.1873V8.94881H22.5396V11.9488ZM22.5396 12.5965H23.1873V9.59654H22.5396V12.5965ZM10.1364 22.8636C10.1364 22.5122 10.4213 22.2273 10.7727 22.2273V25.2273C12.0781 25.2273 13.1364 24.169 13.1364 22.8636H10.1364ZM10.7727 22.2273C11.1242 22.2273 11.4091 22.5122 11.4091 22.8636H8.40909C8.40909 24.169 9.46733 25.2273 10.7727 25.2273V22.2273ZM11.4091 22.8636C11.4091 23.2151 11.1242 23.5 10.7727 23.5V20.5C9.46733 20.5 8.40909 21.5582 8.40909 22.8636H11.4091ZM10.7727 23.5C10.4213 23.5 10.1364 23.2151 10.1364 22.8636H13.1364C13.1364 21.5582 12.0781 20.5 10.7727 20.5V23.5ZM10.4487 24.0397H11.0964V21.0397H10.4487V24.0397ZM10.4487 24.6874H11.0964V21.6874H10.4487V24.6874ZM15.3182 29.7727C15.3182 29.4213 15.6031 29.1364 15.9545 29.1364V32.1364C17.2599 32.1364 18.3182 31.0781 18.3182 29.7727H15.3182ZM15.9545 29.1364C16.306 29.1364 16.5909 29.4213 16.5909 29.7727H13.5909C13.5909 31.0781 14.6491 32.1364 15.9545 32.1364V29.1364ZM16.5909 29.7727C16.5909 30.1242 16.306 30.4091 15.9545 30.4091V27.4091C14.6491 27.4091 13.5909 28.4673 13.5909 29.7727H16.5909ZM15.9545 30.4091C15.6031 30.4091 15.3182 30.1242 15.3182 29.7727H18.3182C18.3182 28.4673 17.2599 27.4091 15.9545 27.4091V30.4091ZM15.6305 30.9488H16.2782V27.9488H15.6305V30.9488ZM15.6305 31.5965H16.2782V28.5965H15.6305V31.5965ZM29.1364 15.9545C29.1364 15.6031 29.4213 15.3182 29.7727 15.3182V18.3182C31.0781 18.3182 32.1364 17.2599 32.1364 15.9545H29.1364ZM29.7727 15.3182C30.1242 15.3182 30.4091 15.6031 30.4091 15.9545H27.4091C27.4091 17.2599 28.4673 18.3182 29.7727 18.3182V15.3182ZM30.4091 15.9545C30.4091 16.306 30.1242 16.5909 29.7727 16.5909V13.5909C28.4673 13.5909 27.4091 14.6491 27.4091 15.9545H30.4091ZM29.7727 16.5909C29.4213 16.5909 29.1364 16.306 29.1364 15.9545H32.1364C32.1364 14.6491 31.0781 13.5909 29.7727 13.5909V16.5909ZM29.4487 17.1306H30.0964V14.1306H29.4487V17.1306ZM29.4487 17.7784H30.0964V14.7784H29.4487V17.7784ZM13.5909 14.2273C13.5909 13.8758 13.8758 13.5909 14.2273 13.5909V16.5909C15.5327 16.5909 16.5909 15.5327 16.5909 14.2273H13.5909ZM14.2273 13.5909C14.5787 13.5909 14.8636 13.8758 14.8636 14.2273H11.8636C11.8636 15.5327 12.9219 16.5909 14.2273 16.5909V13.5909ZM14.8636 14.2273C14.8636 14.5787 14.5787 14.8636 14.2273 14.8636V11.8636C12.9219 11.8636 11.8636 12.9219 11.8636 14.2273H14.8636ZM14.2273 14.8636C13.8758 14.8636 13.5909 14.5787 13.5909 14.2273H16.5909C16.5909 12.9219 15.5327 11.8636 14.2273 11.8636V14.8636ZM13.9032 15.4034H14.5509V12.4034H13.9032V15.4034ZM13.9032 16.0511H14.5509V13.0511H13.9032V16.0511ZM22 39.5C12.335 39.5 4.5 31.665 4.5 22H1.5C1.5 33.3218 10.6782 42.5 22 42.5V39.5ZM4.5 22C4.5 12.335 12.335 4.5 22 4.5V1.5C10.6782 1.5 1.5 10.6782 1.5 22H4.5ZM22 4.5C31.665 4.5 39.5 12.335 39.5 22H42.5C42.5 10.6782 33.3218 1.5 22 1.5V4.5ZM26.9545 33.2273C26.9545 29.7629 29.7629 26.9545 33.2273 26.9545V23.9545C28.1061 23.9545 23.9545 28.1061 23.9545 33.2273H26.9545ZM33.2273 26.9545C33.8791 26.9545 34.505 27.0535 35.0923 27.236L35.9829 24.3713C35.1105 24.1001 34.1845 23.9545 33.2273 23.9545V26.9545ZM39.5 22C39.5 22.5536 39.4743 23.1008 39.4242 23.6405L42.4114 23.918C42.47 23.2861 42.5 22.6464 42.5 22H39.5ZM23.6405 39.4242C23.1008 39.4743 22.5536 39.5 22 39.5V42.5C22.6464 42.5 23.2861 42.47 23.918 42.4114L23.6405 39.4242ZM27.2361 35.0923C27.0535 34.505 26.9545 33.8791 26.9545 33.2273H23.9545C23.9545 34.1845 24.1001 35.1105 24.3713 35.9829L27.2361 35.0923ZM23.918 42.4114C24.5397 42.3536 25.0958 42.3031 25.5402 42.2257C25.9804 42.1491 26.5109 42.017 26.9825 41.6757L25.2236 39.2454C25.3125 39.1811 25.3281 39.2175 25.0256 39.2702C24.7273 39.3221 24.3128 39.3618 23.6405 39.4242L23.918 42.4114ZM24.3713 35.9829C24.7348 37.1523 24.9911 37.9778 25.146 38.5708C25.2232 38.8663 25.2638 39.0618 25.2815 39.1872C25.3032 39.3403 25.2733 39.2751 25.3115 39.1137L28.2308 39.8048C28.3234 39.4136 28.2894 39.0318 28.252 38.7671C28.2106 38.4747 28.1371 38.1513 28.0485 37.8124C27.8719 37.1364 27.59 36.231 27.236 35.0923L24.3713 35.9829ZM26.9825 41.6757C27.2498 41.4822 27.5514 41.2327 27.7958 40.8665C28.0401 40.5003 28.1547 40.1259 28.2308 39.8048L25.3115 39.1137C25.291 39.2003 25.2781 39.2372 25.2741 39.2475C25.2723 39.2524 25.28 39.2318 25.3002 39.2014C25.3205 39.171 25.3366 39.156 25.3328 39.1596C25.3248 39.1672 25.2957 39.1933 25.2236 39.2454L26.9825 41.6757ZM35.0923 27.236C36.231 27.59 37.1364 27.8719 37.8124 28.0485C38.1513 28.1371 38.4747 28.2106 38.7671 28.252C39.0318 28.2894 39.4136 28.3234 39.8048 28.2308L39.1137 25.3115C39.2751 25.2733 39.3403 25.3032 39.1872 25.2815C39.0618 25.2638 38.8663 25.2232 38.5708 25.146C37.9778 24.9911 37.1523 24.7348 35.9829 24.3713L35.0923 27.236ZM39.4242 23.6405C39.3618 24.3129 39.3221 24.7273 39.2702 25.0256C39.2175 25.3281 39.1811 25.3125 39.2454 25.2236L41.6757 26.9825C42.017 26.5109 42.1491 25.9804 42.2257 25.5402C42.3031 25.0958 42.3536 24.5397 42.4114 23.918L39.4242 23.6405ZM39.8048 28.2308C40.1259 28.1547 40.5003 28.0401 40.8665 27.7958C41.2327 27.5514 41.4822 27.2498 41.6757 26.9825L39.2454 25.2236C39.1933 25.2957 39.1672 25.3248 39.1596 25.3328C39.156 25.3366 39.171 25.3205 39.2014 25.3002C39.2318 25.28 39.2524 25.2723 39.2475 25.2741C39.2372 25.2781 39.2003 25.291 39.1137 25.3115L39.8048 28.2308Z" fill="#5C5651"/>
</svg>
