<svg width="44" height="45" viewBox="0 0 44 45" fill="none" xmlns="http://www.w3.org/2000/svg">
<g clip-path="url(#clip0_40002_9416)">
<path d="M28.5729 16.9175L20.8021 24.6884C20.386 25.1045 19.7113 25.1045 19.2952 24.6884L15.7865 21.1797M12.7674 2H31.592C32.2785 2 32.8351 2.55657 32.8351 3.24313C32.8351 6.67594 35.6179 9.45877 39.0507 9.45877H39.9387C40.7233 9.45877 41.3594 10.0949 41.3594 10.8795V12.7092C41.3594 24.5139 34.9595 35.3906 24.6404 41.1234L23.8344 41.5712C22.8053 42.1429 21.5541 42.1429 20.525 41.5712L19.719 41.1234C9.39991 35.3906 3 24.5139 3 12.7092V10.8795C3 10.0949 3.63608 9.45877 4.42072 9.45877H5.30867C8.74147 9.45877 11.5243 6.67593 11.5243 3.24313C11.5243 2.55657 12.0809 2 12.7674 2Z" stroke="#5C5651" stroke-width="3" stroke-linecap="round"/>
</g>
<defs>
<clipPath id="clip0_40002_9416">
<rect width="44" height="44" fill="white" transform="translate(0 0.5)"/>
</clipPath>
</defs>
</svg>
