<svg width="44" height="46" viewBox="0 0 44 46" fill="none" xmlns="http://www.w3.org/2000/svg">
<path d="M22.4992 3H3.64922C2.84841 3 2.19922 3.64919 2.19922 4.45V30.55C2.19922 31.3508 2.84841 32 3.64922 32H22.4992C23.3 32 23.9492 31.3508 23.9492 30.55V4.45C23.9492 3.64919 23.3 3 22.4992 3Z" stroke="#5C5651" stroke-width="3"/>
<path d="M13.0766 26.9249C15.479 26.9249 17.4266 24.9773 17.4266 22.5749C17.4266 20.1724 15.479 18.2249 13.0766 18.2249C10.6741 18.2249 8.72656 20.1724 8.72656 22.5749C8.72656 24.9773 10.6741 26.9249 13.0766 26.9249Z" stroke="#5C5651" stroke-width="3"/>
<path d="M8.72656 8.80005H10.9016" stroke="#5C5651" stroke-width="3" stroke-linecap="round" stroke-linejoin="round"/>
<path d="M8.72656 13.1499H10.9016" stroke="#5C5651" stroke-width="3" stroke-linecap="round" stroke-linejoin="round"/>
<path d="M15.25 13.1499H17.425" stroke="#5C5651" stroke-width="3" stroke-linecap="round" stroke-linejoin="round"/>
<path d="M30.5 44C36.8513 44 42 39.3363 42 33.5833V26.6389C42 25.4883 40.9703 24.5556 39.7 24.5556C38.4297 24.5556 37.4 25.4883 37.4 26.6389V22.4722C37.4 21.3216 36.3703 20.3889 35.1 20.3889C33.8297 20.3889 32.8 21.3216 32.8 22.4722V21.0833C32.8 19.9327 31.7703 19 30.5 19C29.2297 19 28.2 19.9327 28.2 21.0833V22.4722C28.2 21.3216 27.1703 20.3889 25.9 20.3889C24.6297 20.3889 23.6 21.3216 23.6 22.4722V30.8056C23.6 29.655 22.5703 28.7222 21.3 28.7222C20.0297 28.7222 19 29.655 19 30.8056V33.5833C19 39.3363 24.1487 44 30.5 44Z" fill="#F6F6F6"/>
<path d="M23.6 30.8056V34.2778M23.6 30.8056V22.4722C23.6 21.3216 24.6297 20.3889 25.9 20.3889C27.1703 20.3889 28.2 21.3216 28.2 22.4722M23.6 30.8056C23.6 29.655 22.5703 28.7222 21.3 28.7222C20.0297 28.7222 19 29.655 19 30.8056V33.5833C19 39.3363 24.1487 44 30.5 44C36.8513 44 42 39.3363 42 33.5833V26.6389C42 25.4883 40.9703 24.5556 39.7 24.5556C38.4297 24.5556 37.4 25.4883 37.4 26.6389M28.2 22.4722V30.1111M28.2 22.4722V21.0833C28.2 19.9327 29.2297 19 30.5 19C31.7703 19 32.8 19.9327 32.8 21.0833V22.4722M32.8 22.4722V30.1111M32.8 22.4722C32.8 21.3216 33.8297 20.3889 35.1 20.3889C36.3703 20.3889 37.4 21.3216 37.4 22.4722V26.6389M37.4 26.6389V30.1111" stroke="#5C5651" stroke-width="3" stroke-linecap="round" stroke-linejoin="round"/>
</svg>
