<svg width="44" height="45" viewBox="0 0 44 45" fill="none" xmlns="http://www.w3.org/2000/svg">
<g clip-path="url(#clip0_40002_9435)">
<path d="M28.1584 24.1137L20.9385 31.3337C20.5519 31.7203 19.925 31.7203 19.5384 31.3337L16.2784 28.0737M4.39844 18.1737H40.0384M14.2984 10.2537V2.33374M30.1384 10.2537V2.33374M17.0704 41.9337H27.3664C31.8021 41.9337 34.0199 41.9337 35.714 41.0705C37.2043 40.3112 38.4159 39.0996 39.1752 37.6093C40.0384 35.9152 40.0384 33.6974 40.0384 29.2617V18.9657C40.0384 14.5301 40.0384 12.3123 39.1752 10.6181C38.4159 9.12789 37.2043 7.91629 35.714 7.15697C34.0199 6.29374 31.8021 6.29374 27.3664 6.29374H17.0704C12.6348 6.29374 10.417 6.29374 8.72283 7.15697C7.23259 7.91629 6.02098 9.12789 5.26167 10.6181C4.39844 12.3123 4.39844 14.5301 4.39844 18.9657V29.2617C4.39844 33.6974 4.39844 35.9152 5.26167 37.6093C6.02098 39.0996 7.23259 40.3112 8.72283 41.0705C10.417 41.9337 12.6348 41.9337 17.0704 41.9337Z" stroke="#5C5651" stroke-width="3" stroke-linecap="round"/>
</g>
<defs>
<clipPath id="clip0_40002_9435">
<rect width="44" height="44" fill="white" transform="translate(0 0.5)"/>
</clipPath>
</defs>
</svg>
