<svg width="44" height="44" viewBox="0 0 44 44" fill="none" xmlns="http://www.w3.org/2000/svg">
<path d="M3 10.375L3.69562 9.67938C4.77091 8.60409 6.22931 8 7.75 8C9.27069 8 10.7291 8.60409 11.8044 9.67938L13.1956 11.0706C14.2709 12.1459 15.7293 12.75 17.25 12.75C18.7707 12.75 20.2291 12.1459 21.3044 11.0706L22.6956 9.67938C23.7709 8.60409 25.2293 8 26.75 8C28.2707 8 29.7291 8.60409 30.8044 9.67938L32.1956 11.0706C33.2709 12.1459 34.7293 12.75 36.25 12.75C37.7707 12.75 39.2291 12.1459 40.3044 11.0706L41 10.375M3 22.25L3.69562 21.5544C4.77091 20.4791 6.22931 19.875 7.75 19.875C9.27069 19.875 10.7291 20.4791 11.8044 21.5544L13.1956 22.9456C14.2709 24.0209 15.7293 24.625 17.25 24.625C18.7707 24.625 20.2291 24.0209 21.3044 22.9456L22.6956 21.5544C23.7709 20.4791 25.2293 19.875 26.75 19.875C28.2707 19.875 29.7291 20.4791 30.8044 21.5544L32.1956 22.9456C33.2709 24.0209 34.7293 24.625 36.25 24.625C37.7707 24.625 39.2291 24.0209 40.3044 22.9456L41 22.25M3 34.125L3.69562 33.4294C4.77091 32.3541 6.22931 31.75 7.75 31.75C9.27069 31.75 10.7291 32.3541 11.8044 33.4294L13.1956 34.8206C14.2709 35.8959 15.7293 36.5 17.25 36.5C18.7707 36.5 20.2291 35.8959 21.3044 34.8206L22.6956 33.4294C23.7709 32.3541 25.2293 31.75 26.75 31.75C28.2707 31.75 29.7291 32.3541 30.8044 33.4294L32.1956 34.8206C33.2709 35.8959 34.7293 36.5 36.25 36.5C37.7707 36.5 39.2291 35.8959 40.3044 34.8206L41 34.125" stroke="#5C5651" stroke-width="3" stroke-linecap="round"/>
</svg>
