<svg width="44" height="44" viewBox="0 0 44 44" fill="none" xmlns="http://www.w3.org/2000/svg">
<path d="M7 15.5714L7 8.51523C7 7.67839 7.67839 7 8.51523 7L15.5714 7M28.4286 7L35.4848 7C36.3216 7 37 7.67839 37 8.51523V15.5714M28.4286 37H35.4848C36.3216 37 37 36.3216 37 35.4848V28.4286M7 28.4286L7 35.4848C7 36.3216 7.67839 37 8.51523 37H15.5714M26.2857 17.7143L34.8571 9.14286M17.7143 17.7143L9.14286 9.14286M26.2857 26.2857L34.8571 34.8571M17.7143 26.2857L9.14286 34.8571" stroke="#5C5651" stroke-width="3" stroke-linecap="round"/>
</svg>
