<svg width="16" height="16" viewBox="0 0 16 16" fill="none" xmlns="http://www.w3.org/2000/svg">
<path d="M10.8704 0.5H5.13741C2.5807 0.5 0.503906 2.57679 0.503906 5.13351V10.8665C0.503906 13.4232 2.5807 15.5 5.13741 15.5H10.8704C13.4271 15.5 15.5039 13.4232 15.5039 10.8665V5.13351C15.5039 2.58115 13.4228 0.5 10.8704 0.5ZM13.8329 10.8665C13.8329 12.4983 12.5022 13.829 10.8704 13.829H5.13741C3.50565 13.829 2.17494 12.4983 2.17494 10.8665V5.13351C2.17494 3.50175 3.50565 2.17103 5.13741 2.17103H10.8704C12.5022 2.17103 13.8329 3.50175 13.8329 5.13351V10.8665Z" fill="#D0D0D0"/>
<path d="M8.00402 4.16479C5.89233 4.16479 4.16895 5.88382 4.16895 7.99987C4.16895 10.1159 5.88797 11.835 8.00402 11.835C10.1201 11.835 11.8391 10.1159 11.8391 7.99987C11.8391 5.88382 10.1157 4.16479 8.00402 4.16479ZM8.00402 10.3297C6.7213 10.3297 5.67418 9.28696 5.67418 7.99987C5.67418 6.71715 6.71694 5.67003 8.00402 5.67003C9.28675 5.67003 10.3339 6.71279 10.3339 7.99987C10.3339 9.2826 9.28675 10.3297 8.00402 10.3297Z" fill="#D0D0D0"/>
<path d="M12.1329 4.58575C12.4872 4.52831 12.7279 4.19447 12.6705 3.8401C12.613 3.48574 12.2792 3.24503 11.9248 3.30248C11.5705 3.35993 11.3298 3.69376 11.3872 4.04813C11.4447 4.4025 11.7785 4.6432 12.1329 4.58575Z" fill="#D0D0D0"/>
</svg>
