<svg width="15" height="16" viewBox="0 0 15 16" fill="none" xmlns="http://www.w3.org/2000/svg">
<g clip-path="url(#clip0_6002_844)">
<path d="M7.50187 0.5H7.49813C3.36281 0.5 0 3.86375 0 8C0 9.64062 0.52875 11.1613 1.42781 12.3959L0.493125 15.1822L3.37594 14.2606C4.56187 15.0463 5.97656 15.5 7.50187 15.5C11.6372 15.5 15 12.1353 15 8C15 3.86469 11.6372 0.5 7.50187 0.5Z" fill="#D0D0D0"/>
<path d="M11.866 11.091C11.6851 11.602 10.967 12.0257 10.3941 12.1495C10.0023 12.2329 9.49039 12.2995 7.76727 11.5851C5.5632 10.672 4.14383 8.43229 4.0332 8.28698C3.92727 8.14167 3.14258 7.10105 3.14258 6.0248C3.14258 4.94855 3.68914 4.42448 3.90945 4.19948C4.09039 4.0148 4.38945 3.93042 4.67633 3.93042C4.76914 3.93042 4.85258 3.93511 4.92758 3.93886C5.14789 3.94823 5.25852 3.96136 5.40383 4.30917C5.58477 4.74511 6.02539 5.82136 6.07789 5.93198C6.13133 6.04261 6.18477 6.19261 6.10977 6.33792C6.03945 6.48792 5.97758 6.55448 5.86695 6.68198C5.75633 6.80948 5.65133 6.90698 5.5407 7.04386C5.43945 7.16292 5.32508 7.29042 5.45258 7.51073C5.58008 7.72636 6.0207 8.44542 6.66945 9.02292C7.50664 9.76823 8.18539 10.0064 8.4282 10.1076C8.60914 10.1826 8.82477 10.1648 8.95695 10.0242C9.12477 9.84323 9.33195 9.54323 9.54289 9.24792C9.69289 9.03605 9.88227 9.00979 10.081 9.08479C10.2835 9.15511 11.3551 9.68479 11.5754 9.79448C11.7957 9.90511 11.941 9.95761 11.9945 10.0504C12.047 10.1432 12.047 10.5792 11.866 11.091Z" fill="#5C5651"/>
</g>
<defs>
<clipPath id="clip0_6002_844">
<rect width="15" height="15" fill="white" transform="translate(0 0.5)"/>
</clipPath>
</defs>
</svg>
